<svg width="1080" height="190" viewBox="0 0 1080 190" fill="none" xmlns="http://www.w3.org/2000/svg">
<g opacity="0.7">
<path opacity="0.6" d="M90.7926 177.695L19.2616 136.395C14.1765 133.458 14.8135 128.329 20.6853 124.938L89.3652 85.2849C95.237 81.8936 104.122 81.5267 109.207 84.4617L180.74 125.761C185.825 128.698 185.188 133.827 179.316 137.218L110.636 176.871C104.763 180.263 95.8777 180.631 90.7926 177.695Z" fill="#0C0F38"/>
<path d="M99.3037 189.156C95.3429 189.156 91.5556 188.356 88.7301 186.724L4.46633 138.076C1.58611 136.412 0 134.07 0 131.482C0 128.419 2.23957 125.371 6.14557 123.117L87.0491 76.4054C94.1876 72.284 105.055 71.8496 111.27 75.4362L195.534 124.086C198.414 125.751 200 128.092 200 130.681C200 133.741 197.759 136.791 193.854 139.046L112.951 185.757C109.058 188.004 104.057 189.156 99.3037 189.156ZM89.5751 185.259C95.3246 188.577 105.429 188.146 112.106 184.291L193.009 137.58C196.379 135.636 198.31 133.121 198.31 130.681C198.31 128.72 197.023 126.899 194.689 125.55L110.425 76.9C104.677 73.5836 94.569 74.0161 87.8941 77.8692L6.99068 124.581C3.62129 126.523 1.69016 129.038 1.69016 131.48C1.69016 133.44 2.97696 135.262 5.31144 136.611L89.5751 185.259Z" fill="url(#paint0_linear_140_3981)" fill-opacity="0.8"/>
<path d="M184.173 89.1858H148.698L109.207 66.3868C104.122 63.45 95.237 63.8186 89.3653 67.2099L51.3001 89.1876H15.843V113.003H15.854C15.7098 114.991 16.8177 116.909 19.2617 118.32L90.7926 159.62C95.8777 162.556 104.763 162.188 110.635 158.797L179.315 119.143C182.366 117.382 183.989 115.152 184.146 113.003H184.172L184.173 89.1858Z" fill="url(#paint1_linear_140_3981)"/>
<path d="M179.315 117.498L110.635 157.152C104.761 160.543 95.8779 160.91 90.7927 157.975L19.26 116.675C16.816 115.264 15.7081 113.346 15.8523 111.358H15.8414V112.999H15.8523C15.7081 114.987 16.816 116.903 19.26 118.316L90.7927 159.616C95.8779 162.553 104.763 162.184 110.635 158.793L179.315 119.139C182.367 117.378 183.991 115.148 184.146 112.999H184.172V111.358H184.146C183.991 113.509 182.367 115.737 179.315 117.498Z" fill="url(#paint2_linear_140_3981)"/>
<path d="M18.0918 114.642H18.0808V90.8283H53.5378L91.603 68.8507C97.4766 65.4594 106.36 65.0925 111.445 68.0275L150.936 90.8265H184.172V89.1838H148.698L109.207 66.3848C104.122 63.448 95.237 63.8167 89.3653 67.208L51.3001 89.1856H15.843V113.001H15.854C15.7098 114.989 16.8177 116.905 19.2617 118.318L19.6651 118.55C18.5152 117.378 17.9914 116.029 18.0918 114.642Z" fill="#93323C"/>
<path d="M182.158 91.0951V114.792H182.133C182.043 116.011 181.467 117.253 180.441 118.423C182.764 116.794 184.011 114.867 184.148 113H184.173V89.4287C183.443 89.9051 182.759 90.4454 182.158 91.0951Z" fill="#FEE142"/>
<path d="M90.7926 135.801L19.2616 94.501C14.1765 91.5642 14.8135 86.4353 20.6853 83.044L89.3652 43.3908C95.237 39.9996 104.122 39.6327 109.207 42.5677L180.74 83.8672C185.825 86.804 185.188 91.9329 179.316 95.3242L110.636 134.977C104.763 138.369 95.8777 138.737 90.7926 135.801Z" fill="url(#paint3_linear_140_3981)"/>
<path d="M180.74 83.8705L109.207 42.571C106.573 41.0506 102.919 40.4227 99.1941 40.6362C101.903 40.7987 104.442 41.4357 106.407 42.571L177.94 83.8705C183.025 86.8074 182.388 91.9362 176.515 95.3275L107.835 134.981C105.004 136.614 101.474 137.54 98.0059 137.739C102.301 137.998 107.033 137.06 110.635 134.981L179.315 95.3275C185.188 91.9362 185.825 86.8055 180.74 83.8705Z" fill="#FEE142"/>
<path d="M93.1455 123.891L39.8907 93.1449C36.1033 90.9583 36.5797 87.1399 40.9511 84.6156L92.0832 55.0942C96.4546 52.5699 103.069 52.2962 106.857 54.4828L160.111 85.2307C163.899 87.4173 163.422 91.2357 159.051 93.76L107.919 123.281C103.546 125.804 96.931 126.078 93.1455 123.891Z" fill="url(#paint4_linear_140_3981)"/>
<path d="M95.0346 114.33L56.451 92.0532C53.7076 90.4689 54.0508 87.7037 57.2194 85.8748L94.2643 64.4867C97.4311 62.6578 102.224 62.4588 104.967 64.0431L143.551 86.3183C146.294 87.9026 145.951 90.6678 142.783 92.4967L105.738 113.885C102.569 115.716 97.7779 115.913 95.0346 114.33Z" fill="#966602"/>
<path d="M94.0013 135.8L22.4703 94.5007C17.3852 91.5639 18.0223 86.435 23.894 83.0437L92.5739 43.3905C95.3629 41.7807 98.829 40.8607 102.246 40.6435C97.8854 40.3314 93.0357 41.2696 89.3652 43.3905L20.6853 83.0437C14.8117 86.435 14.1747 91.5639 19.2598 94.5007L90.7925 135.8C93.4628 137.343 97.1826 137.965 100.963 137.724C98.349 137.538 95.9068 136.903 94.0013 135.8Z" fill="#93323C"/>
<mask id="mask0_140_3981" style="mask-type:luminance" maskUnits="userSpaceOnUse" x="54" y="62" width="92" height="54">
<path d="M95.0346 114.33L56.451 92.0532C53.7076 90.4689 54.0508 87.7037 57.2194 85.8748L94.2643 64.4867C97.4311 62.6578 102.224 62.4588 104.967 64.0431L143.551 86.3183C146.294 87.9026 145.951 90.6678 142.783 92.4967L105.738 113.885C102.569 115.716 97.7779 115.913 95.0346 114.33Z" fill="white"/>
</mask>
<g mask="url(#mask0_140_3981)">
<path d="M57.203 88.8885L94.2626 67.4931C97.4312 65.6643 102.226 65.4653 104.969 67.0496L143.568 89.3339C144.175 89.6862 144.608 90.1023 144.916 90.5459C145.844 89.0346 145.444 87.4028 143.568 86.3186L104.969 64.0343C102.226 62.45 97.4312 62.649 94.2626 64.4779L57.203 85.8733C54.7371 87.2969 54.007 89.2828 55.0858 90.8415C55.5147 90.1425 56.1992 89.4671 57.203 88.8885Z" fill="url(#paint5_linear_140_3981)"/>
</g>
<mask id="mask1_140_3981" style="mask-type:luminance" maskUnits="userSpaceOnUse" x="54" y="62" width="92" height="54">
<path d="M95.0346 114.33L56.451 92.0532C53.7076 90.4689 54.0508 87.7037 57.2194 85.8748L94.2643 64.4867C97.4311 62.6578 102.224 62.4588 104.967 64.0431L143.551 86.3183C146.294 87.9026 145.951 90.6678 142.783 92.4967L105.738 113.885C102.569 115.716 97.7779 115.913 95.0346 114.33Z" fill="white"/>
</mask>
<g mask="url(#mask1_140_3981)">
<path d="M57.203 92.5223L94.2626 71.1269C97.4312 69.298 102.226 69.0991 104.969 70.6834L143.568 92.9677C144.051 93.2469 144.404 93.57 144.697 93.9113C145.922 92.3088 145.59 90.5 143.568 89.3318L104.969 67.0475C102.226 65.4632 97.4312 65.6622 94.2626 67.4911L57.203 88.8864C54.5911 90.3941 53.9322 92.5296 55.3048 94.1249C55.7428 93.5517 56.3689 93.0042 57.203 92.5223Z" fill="#966602"/>
</g>
<mask id="mask2_140_3981" style="mask-type:luminance" maskUnits="userSpaceOnUse" x="54" y="62" width="92" height="54">
<path d="M95.0346 114.33L56.451 92.0532C53.7076 90.4689 54.0508 87.7037 57.2194 85.8748L94.2643 64.4867C97.4311 62.6578 102.224 62.4588 104.967 64.0431L143.551 86.3183C146.294 87.9026 145.951 90.6678 142.783 92.4967L105.738 113.885C102.569 115.716 97.7779 115.913 95.0346 114.33Z" fill="white"/>
</mask>
<g mask="url(#mask2_140_3981)">
<path d="M55.679 98.1536C56.0842 97.732 56.5715 97.3232 57.203 96.96L94.2626 75.5646C97.4312 73.7357 102.226 73.5367 104.969 75.121L143.568 97.4053C143.86 97.5732 144.101 97.763 144.323 97.9565C145.951 96.2591 145.765 94.2385 143.568 92.97L104.969 70.6857C102.226 69.1014 97.4312 69.3004 94.2626 71.1292L57.203 92.5246C54.3721 94.1582 53.8136 96.5347 55.679 98.1536Z" fill="#FEE142"/>
</g>
</g>
<g opacity="0.7">
<path opacity="0.6" d="M384.126 177.695L312.595 136.395C307.51 133.458 308.147 128.329 314.019 124.938L382.699 85.2849C388.57 81.8936 397.456 81.5267 402.541 84.4617L474.073 125.761C479.159 128.698 478.521 133.827 472.65 137.218L403.97 176.871C398.096 180.263 389.211 180.631 384.126 177.695Z" fill="#0C0F38"/>
<path d="M392.637 189.156C388.676 189.156 384.889 188.356 382.063 186.724L297.8 138.076C294.919 136.412 293.333 134.07 293.333 131.482C293.333 128.419 295.573 125.371 299.479 123.117L380.382 76.4054C387.521 72.284 398.388 71.8496 404.603 75.4362L488.867 124.086C491.747 125.751 493.333 128.092 493.333 130.681C493.333 133.741 491.092 136.791 487.188 139.046L406.284 185.757C402.391 188.004 397.39 189.156 392.637 189.156ZM382.909 185.259C388.658 188.577 398.763 188.146 405.439 184.291L486.343 137.58C489.712 135.636 491.643 133.121 491.643 130.681C491.643 128.72 490.356 126.899 488.022 125.55L403.758 76.9C398.011 73.5836 387.902 74.0161 381.228 77.8692L300.324 124.581C296.955 126.523 295.024 129.038 295.024 131.48C295.024 133.44 296.31 135.262 298.645 136.611L382.909 185.259Z" fill="url(#paint6_linear_140_3981)" fill-opacity="0.8"/>
<path d="M477.507 89.1858H442.032L402.541 66.3868C397.456 63.45 388.57 63.8186 382.699 67.2099L344.633 89.1876H309.176V113.003H309.187C309.043 114.991 310.151 116.909 312.595 118.32L384.126 159.62C389.211 162.556 398.096 162.188 403.968 158.797L472.648 119.143C475.7 117.382 477.322 115.152 477.479 113.003H477.505L477.507 89.1858Z" fill="url(#paint7_linear_140_3981)"/>
<path d="M472.648 117.498L403.968 157.152C398.095 160.543 389.211 160.91 384.126 157.975L312.593 116.675C310.149 115.264 309.041 113.346 309.186 111.358H309.175V112.999H309.186C309.041 114.987 310.149 116.903 312.593 118.316L384.126 159.616C389.211 162.553 398.096 162.184 403.968 158.793L472.648 119.139C475.7 117.378 477.324 115.148 477.479 112.999H477.505V111.358H477.479C477.324 113.509 475.7 115.737 472.648 117.498Z" fill="url(#paint8_linear_140_3981)"/>
<path d="M311.425 114.642H311.414V90.8283H346.871L384.936 68.8507C390.81 65.4594 399.693 65.0925 404.779 68.0275L444.269 90.8265H477.505V89.1838H442.032L402.541 66.3848C397.456 63.448 388.57 63.8167 382.699 67.208L344.633 89.1856H309.176V113.001H309.187C309.043 114.989 310.151 116.905 312.595 118.318L312.998 118.55C311.849 117.378 311.325 116.029 311.425 114.642Z" fill="#93323C"/>
<path d="M475.492 91.0951V114.792H475.466C475.377 116.011 474.8 117.253 473.774 118.423C476.098 116.794 477.344 114.867 477.481 113H477.507V89.4287C476.777 89.9051 476.092 90.4454 475.492 91.0951Z" fill="#FEE142"/>
<path d="M384.126 135.801L312.595 94.501C307.51 91.5642 308.147 86.4353 314.019 83.044L382.699 43.3908C388.57 39.9996 397.456 39.6327 402.541 42.5677L474.073 83.8672C479.159 86.804 478.521 91.9329 472.65 95.3242L403.97 134.977C398.096 138.369 389.211 138.737 384.126 135.801Z" fill="url(#paint9_linear_140_3981)"/>
<path d="M474.073 83.8705L402.541 42.571C399.907 41.0506 396.253 40.4227 392.527 40.6362C395.236 40.7987 397.775 41.4357 399.741 42.571L471.274 83.8705C476.359 86.8074 475.722 91.9362 469.848 95.3275L401.168 134.981C398.337 136.614 394.807 137.54 391.339 137.739C395.634 137.998 400.367 137.06 403.968 134.981L472.648 95.3275C478.522 91.9362 479.159 86.8055 474.073 83.8705Z" fill="#FEE142"/>
<path d="M386.479 123.891L333.224 93.1449C329.437 90.9583 329.913 87.1399 334.284 84.6156L385.417 55.0942C389.788 52.5699 396.403 52.2962 400.19 54.4828L453.445 85.2307C457.232 87.4173 456.756 91.2357 452.384 93.76L401.252 123.281C396.879 125.804 390.264 126.078 386.479 123.891Z" fill="url(#paint10_linear_140_3981)"/>
<path d="M388.368 114.33L349.784 92.0532C347.041 90.4689 347.384 87.7037 350.553 85.8748L387.598 64.4867C390.764 62.6578 395.558 62.4588 398.301 64.0431L436.884 86.3183C439.628 87.9026 439.285 90.6678 436.116 92.4967L399.071 113.885C395.903 115.716 391.111 115.913 388.368 114.33Z" fill="#966602"/>
<path d="M387.335 135.8L315.804 94.5007C310.719 91.5639 311.356 86.435 317.227 83.0437L385.907 43.3905C388.696 41.7807 392.162 40.8607 395.579 40.6435C391.219 40.3314 386.369 41.2696 382.699 43.3905L314.019 83.0437C308.145 86.435 307.508 91.5639 312.593 94.5007L384.126 135.8C386.796 137.343 390.516 137.965 394.296 137.724C391.682 137.538 389.24 136.903 387.335 135.8Z" fill="#93323C"/>
<mask id="mask3_140_3981" style="mask-type:luminance" maskUnits="userSpaceOnUse" x="347" y="62" width="92" height="54">
<path d="M388.368 114.33L349.784 92.0532C347.041 90.4689 347.384 87.7037 350.553 85.8748L387.598 64.4867C390.764 62.6578 395.558 62.4588 398.301 64.0431L436.884 86.3183C439.628 87.9026 439.285 90.6678 436.116 92.4967L399.071 113.885C395.903 115.716 391.111 115.913 388.368 114.33Z" fill="white"/>
</mask>
<g mask="url(#mask3_140_3981)">
<path d="M350.536 88.8885L387.596 67.4931C390.765 65.6643 395.559 65.4653 398.303 67.0496L436.901 89.3339C437.509 89.6862 437.941 90.1023 438.25 90.5459C439.177 89.0346 438.777 87.4028 436.901 86.3186L398.303 64.0343C395.559 62.45 390.765 62.649 387.596 64.4779L350.536 85.8733C348.071 87.2969 347.34 89.2828 348.419 90.8415C348.848 90.1425 349.533 89.4671 350.536 88.8885Z" fill="url(#paint11_linear_140_3981)"/>
</g>
<mask id="mask4_140_3981" style="mask-type:luminance" maskUnits="userSpaceOnUse" x="347" y="62" width="92" height="54">
<path d="M388.368 114.33L349.784 92.0532C347.041 90.4689 347.384 87.7037 350.553 85.8748L387.598 64.4867C390.764 62.6578 395.558 62.4588 398.301 64.0431L436.884 86.3183C439.628 87.9026 439.285 90.6678 436.116 92.4967L399.071 113.885C395.903 115.716 391.111 115.913 388.368 114.33Z" fill="white"/>
</mask>
<g mask="url(#mask4_140_3981)">
<path d="M350.536 92.5223L387.596 71.1269C390.765 69.298 395.559 69.0991 398.303 70.6834L436.901 92.9677C437.385 93.2469 437.737 93.57 438.031 93.9113C439.256 92.3088 438.923 90.5 436.901 89.3318L398.303 67.0475C395.559 65.4632 390.765 65.6622 387.596 67.4911L350.536 88.8864C347.925 90.3941 347.266 92.5296 348.638 94.1249C349.076 93.5517 349.702 93.0042 350.536 92.5223Z" fill="#966602"/>
</g>
<mask id="mask5_140_3981" style="mask-type:luminance" maskUnits="userSpaceOnUse" x="347" y="62" width="92" height="54">
<path d="M388.368 114.33L349.784 92.0532C347.041 90.4689 347.384 87.7037 350.553 85.8748L387.598 64.4867C390.764 62.6578 395.558 62.4588 398.301 64.0431L436.884 86.3183C439.628 87.9026 439.285 90.6678 436.116 92.4967L399.071 113.885C395.903 115.716 391.111 115.913 388.368 114.33Z" fill="white"/>
</mask>
<g mask="url(#mask5_140_3981)">
<path d="M349.012 98.1536C349.418 97.732 349.905 97.3232 350.536 96.96L387.596 75.5646C390.765 73.7357 395.559 73.5367 398.303 75.121L436.901 97.4053C437.193 97.5732 437.434 97.763 437.657 97.9565C439.285 96.2591 439.099 94.2385 436.901 92.97L398.303 70.6857C395.559 69.1014 390.765 69.3004 387.596 71.1292L350.536 92.5246C347.705 94.1582 347.147 96.5347 349.012 98.1536Z" fill="#FEE142"/>
</g>
</g>
<g opacity="0.5">
<path d="M274.333 121.53C274.333 122.359 275.348 122.945 276.065 122.53L287.601 115.87C288.319 115.456 288.319 114.284 287.601 113.87L276.065 107.21C275.348 106.796 274.333 107.381 274.333 108.21V121.53ZM219 108.21C219 107.381 217.985 106.796 217.268 107.21L205.732 113.87C205.015 114.284 205.015 115.456 205.732 115.87L217.268 122.53C217.985 122.945 219 122.359 219 121.53V108.21ZM216.8 116.37H225.333V113.37H216.8V116.37ZM233.867 116.37H242.4V113.37H233.867V116.37ZM250.933 116.37H259.467V113.37H250.933V116.37ZM268 116.37H276.533V113.37H268V116.37Z" fill="url(#paint12_linear_140_3981)"/>
</g>
<g opacity="0.7">
<path opacity="0.6" d="M677.459 177.695L605.928 136.395C600.843 133.458 601.48 128.329 607.352 124.938L676.032 85.2849C681.904 81.8936 690.789 81.5267 695.874 84.4617L767.407 125.761C772.492 128.698 771.855 133.827 765.983 137.218L697.303 176.871C691.43 180.263 682.544 180.631 677.459 177.695Z" fill="#0C0F38"/>
<path d="M685.97 189.156C682.01 189.156 678.222 188.356 675.397 186.724L591.133 138.076C588.253 136.412 586.667 134.07 586.667 131.482C586.667 128.419 588.906 125.371 592.812 123.117L673.716 76.4054C680.854 72.284 691.722 71.8496 697.937 75.4362L782.2 124.086C785.081 125.751 786.667 128.092 786.667 130.681C786.667 133.741 784.425 136.791 780.521 139.046L699.618 185.757C695.724 188.004 690.723 189.156 685.97 189.156ZM676.242 185.259C681.991 188.577 692.096 188.146 698.773 184.291L779.676 137.58C783.045 135.636 784.977 133.121 784.977 130.681C784.977 128.72 783.69 126.899 781.355 125.55L697.092 76.9C691.344 73.5836 681.236 74.0161 674.561 77.8692L593.657 124.581C590.288 126.523 588.357 129.038 588.357 131.48C588.357 133.44 589.644 135.262 591.978 136.611L676.242 185.259Z" fill="url(#paint13_linear_140_3981)" fill-opacity="0.8"/>
<path d="M770.84 89.1858H735.365L695.874 66.3868C690.789 63.45 681.904 63.8186 676.032 67.2099L637.967 89.1876H602.51V113.003H602.521C602.377 114.991 603.484 116.909 605.928 118.32L677.459 159.62C682.544 162.556 691.43 162.188 697.301 158.797L765.981 119.143C769.033 117.382 770.656 115.152 770.813 113.003H770.838L770.84 89.1858Z" fill="url(#paint14_linear_140_3981)"/>
<path d="M765.981 117.498L697.302 157.152C691.428 160.543 682.545 160.91 677.459 157.975L605.927 116.675C603.483 115.264 602.375 113.346 602.519 111.358H602.508V112.999H602.519C602.375 114.987 603.483 116.903 605.927 118.316L677.459 159.616C682.545 162.553 691.43 162.184 697.302 158.793L765.981 119.139C769.033 117.378 770.658 115.148 770.813 112.999H770.838V111.358H770.813C770.658 113.509 769.033 115.737 765.981 117.498Z" fill="url(#paint15_linear_140_3981)"/>
<path d="M604.758 114.642H604.748V90.8283H640.205L678.27 68.8507C684.143 65.4594 693.027 65.0925 698.112 68.0275L737.603 90.8265H770.838V89.1838H735.365L695.874 66.3848C690.789 63.448 681.904 63.8167 676.032 67.208L637.967 89.1856H602.51V113.001H602.521C602.377 114.989 603.484 116.905 605.928 118.318L606.332 118.55C605.182 117.378 604.658 116.029 604.758 114.642Z" fill="#93323C"/>
<path d="M768.825 91.0951V114.792H768.799C768.71 116.011 768.133 117.253 767.107 118.423C769.431 116.794 770.678 114.867 770.814 113H770.84V89.4287C770.11 89.9051 769.425 90.4454 768.825 91.0951Z" fill="#FEE142"/>
<path d="M677.459 135.801L605.928 94.501C600.843 91.5642 601.48 86.4353 607.352 83.044L676.032 43.3908C681.904 39.9996 690.789 39.6327 695.874 42.5677L767.407 83.8672C772.492 86.804 771.855 91.9329 765.983 95.3242L697.303 134.977C691.43 138.369 682.544 138.737 677.459 135.801Z" fill="url(#paint16_linear_140_3981)"/>
<path d="M767.407 83.8705L695.874 42.571C693.24 41.0506 689.586 40.4227 685.861 40.6362C688.569 40.7987 691.108 41.4357 693.074 42.571L764.607 83.8705C769.692 86.8074 769.055 91.9362 763.181 95.3275L694.502 134.981C691.671 136.614 688.141 137.54 684.673 137.739C688.967 137.998 693.7 137.06 697.301 134.981L765.981 95.3275C771.855 91.9362 772.492 86.8055 767.407 83.8705Z" fill="#FEE142"/>
<path d="M679.812 123.891L626.557 93.1449C622.77 90.9583 623.246 87.1399 627.618 84.6156L678.75 55.0942C683.121 52.5699 689.736 52.2962 693.523 54.4828L746.778 85.2307C750.566 87.4173 750.089 91.2357 745.718 93.76L694.586 123.281C690.212 125.804 683.598 126.078 679.812 123.891Z" fill="url(#paint17_linear_140_3981)"/>
<path d="M681.701 114.33L643.118 92.0532C640.374 90.4689 640.718 87.7037 643.886 85.8748L680.931 64.4867C684.098 62.6578 688.891 62.4588 691.634 64.0431L730.218 86.3183C732.961 87.9026 732.618 90.6678 729.449 92.4967L692.404 113.885C689.236 115.716 684.445 115.913 681.701 114.33Z" fill="#966602"/>
<path d="M680.668 135.8L609.137 94.5007C604.052 91.5639 604.689 86.435 610.561 83.0437L679.241 43.3905C682.03 41.7807 685.496 40.8607 688.913 40.6435C684.552 40.3314 679.702 41.2696 676.032 43.3905L607.352 83.0437C601.478 86.435 600.841 91.5639 605.927 94.5007L677.459 135.8C680.13 137.343 683.849 137.965 687.629 137.724C685.016 137.538 682.574 136.903 680.668 135.8Z" fill="#93323C"/>
<mask id="mask6_140_3981" style="mask-type:luminance" maskUnits="userSpaceOnUse" x="641" y="62" width="92" height="54">
<path d="M681.701 114.33L643.118 92.0532C640.374 90.4689 640.718 87.7037 643.886 85.8748L680.931 64.4867C684.098 62.6578 688.891 62.4588 691.634 64.0431L730.218 86.3183C732.961 87.9026 732.618 90.6678 729.449 92.4967L692.404 113.885C689.236 115.716 684.445 115.913 681.701 114.33Z" fill="white"/>
</mask>
<g mask="url(#mask6_140_3981)">
<path d="M643.87 88.8885L680.929 67.4931C684.098 65.6643 688.893 65.4653 691.636 67.0496L730.234 89.3339C730.842 89.6862 731.275 90.1023 731.583 90.5459C732.51 89.0346 732.111 87.4028 730.234 86.3186L691.636 64.0343C688.893 62.45 684.098 62.649 680.929 64.4779L643.87 85.8733C641.404 87.2969 640.674 89.2828 641.753 90.8415C642.181 90.1425 642.866 89.4671 643.87 88.8885Z" fill="url(#paint18_linear_140_3981)"/>
</g>
<mask id="mask7_140_3981" style="mask-type:luminance" maskUnits="userSpaceOnUse" x="641" y="62" width="92" height="54">
<path d="M681.701 114.33L643.118 92.0532C640.374 90.4689 640.718 87.7037 643.886 85.8748L680.931 64.4867C684.098 62.6578 688.891 62.4588 691.634 64.0431L730.218 86.3183C732.961 87.9026 732.618 90.6678 729.449 92.4967L692.404 113.885C689.236 115.716 684.445 115.913 681.701 114.33Z" fill="white"/>
</mask>
<g mask="url(#mask7_140_3981)">
<path d="M643.87 92.5223L680.929 71.1269C684.098 69.298 688.893 69.0991 691.636 70.6834L730.234 92.9677C730.718 93.2469 731.07 93.57 731.364 93.9113C732.589 92.3088 732.257 90.5 730.234 89.3318L691.636 67.0475C688.893 65.4632 684.098 65.6622 680.929 67.4911L643.87 88.8864C641.258 90.3941 640.599 92.5296 641.972 94.1249C642.41 93.5517 643.036 93.0042 643.87 92.5223Z" fill="#966602"/>
</g>
<mask id="mask8_140_3981" style="mask-type:luminance" maskUnits="userSpaceOnUse" x="641" y="62" width="92" height="54">
<path d="M681.701 114.33L643.118 92.0532C640.374 90.4689 640.718 87.7037 643.886 85.8748L680.931 64.4867C684.098 62.6578 688.891 62.4588 691.634 64.0431L730.218 86.3183C732.961 87.9026 732.618 90.6678 729.449 92.4967L692.404 113.885C689.236 115.716 684.445 115.913 681.701 114.33Z" fill="white"/>
</mask>
<g mask="url(#mask8_140_3981)">
<path d="M642.346 98.1536C642.751 97.732 643.238 97.3232 643.87 96.96L680.929 75.5646C684.098 73.7357 688.893 73.5367 691.636 75.121L730.234 97.4053C730.526 97.5732 730.767 97.763 730.99 97.9565C732.618 96.2591 732.432 94.2385 730.234 92.97L691.636 70.6857C688.893 69.1014 684.098 69.3004 680.929 71.1292L643.87 92.5246C641.039 94.1582 640.48 96.5347 642.346 98.1536Z" fill="#FEE142"/>
</g>
</g>
<g opacity="0.5">
<path d="M567.667 121.53C567.667 122.359 568.681 122.945 569.399 122.53L580.935 115.87C581.652 115.456 581.652 114.284 580.935 113.87L569.399 107.21C568.681 106.796 567.667 107.381 567.667 108.21V121.53ZM512.333 108.21C512.333 107.381 511.319 106.796 510.601 107.21L499.065 113.87C498.348 114.284 498.348 115.456 499.065 115.87L510.601 122.53C511.319 122.945 512.333 122.359 512.333 121.53V108.21ZM510.133 116.37H518.667V113.37H510.133V116.37ZM527.2 116.37H535.733V113.37H527.2V116.37ZM544.267 116.37H552.8V113.37H544.267V116.37ZM561.333 116.37H569.867V113.37H561.333V116.37Z" fill="url(#paint19_linear_140_3981)"/>
</g>
<g opacity="0.7">
<path opacity="0.6" d="M970.793 177.695L899.262 136.395C894.177 133.458 894.814 128.329 900.685 124.938L969.365 85.2849C975.237 81.8936 984.122 81.5267 989.207 84.4617L1060.74 125.761C1065.83 128.698 1065.19 133.827 1059.32 137.218L990.636 176.871C984.763 180.263 975.878 180.631 970.793 177.695Z" fill="#0C0F38"/>
<path d="M979.304 189.156C975.343 189.156 971.556 188.356 968.73 186.724L884.466 138.076C881.586 136.412 880 134.07 880 131.482C880 128.419 882.24 125.371 886.146 123.117L967.049 76.4054C974.188 72.284 985.055 71.8496 991.27 75.4362L1075.53 124.086C1078.41 125.751 1080 128.092 1080 130.681C1080 133.741 1077.76 136.791 1073.85 139.046L992.951 185.757C989.058 188.004 984.057 189.156 979.304 189.156ZM969.575 185.259C975.325 188.577 985.429 188.146 992.106 184.291L1073.01 137.58C1076.38 135.636 1078.31 133.121 1078.31 130.681C1078.31 128.72 1077.02 126.899 1074.69 125.55L990.425 76.9C984.677 73.5836 974.569 74.0161 967.894 77.8692L886.991 124.581C883.621 126.523 881.69 129.038 881.69 131.48C881.69 133.44 882.977 135.262 885.311 136.611L969.575 185.259Z" fill="url(#paint20_linear_140_3981)" fill-opacity="0.8"/>
<path d="M1064.17 89.1858H1028.7L989.207 66.3868C984.122 63.45 975.237 63.8186 969.365 67.2099L931.3 89.1876H895.843V113.003H895.854C895.71 114.991 896.818 116.909 899.262 118.32L970.793 159.62C975.878 162.556 984.763 162.188 990.635 158.797L1059.31 119.143C1062.37 117.382 1063.99 115.152 1064.15 113.003H1064.17L1064.17 89.1858Z" fill="url(#paint21_linear_140_3981)"/>
<path d="M1059.31 117.498L990.635 157.152C984.761 160.543 975.878 160.91 970.793 157.975L899.26 116.675C896.816 115.264 895.708 113.346 895.852 111.358H895.841V112.999H895.852C895.708 114.987 896.816 116.903 899.26 118.316L970.793 159.616C975.878 162.553 984.763 162.184 990.635 158.793L1059.31 119.139C1062.37 117.378 1063.99 115.148 1064.15 112.999H1064.17V111.358H1064.15C1063.99 113.509 1062.37 115.737 1059.31 117.498Z" fill="url(#paint22_linear_140_3981)"/>
<path d="M898.092 114.642H898.081V90.8283H933.538L971.603 68.8507C977.477 65.4594 986.36 65.0925 991.445 68.0275L1030.94 90.8265H1064.17V89.1838H1028.7L989.207 66.3848C984.122 63.448 975.237 63.8167 969.365 67.208L931.3 89.1856H895.843V113.001H895.854C895.71 114.989 896.818 116.905 899.262 118.318L899.665 118.55C898.515 117.378 897.991 116.029 898.092 114.642Z" fill="#93323C"/>
<path d="M1062.16 91.0951V114.792H1062.13C1062.04 116.011 1061.47 117.253 1060.44 118.423C1062.76 116.794 1064.01 114.867 1064.15 113H1064.17V89.4287C1063.44 89.9051 1062.76 90.4454 1062.16 91.0951Z" fill="#FEE142"/>
<path d="M970.793 135.801L899.262 94.501C894.177 91.5642 894.814 86.4353 900.685 83.044L969.365 43.3908C975.237 39.9996 984.122 39.6327 989.207 42.5677L1060.74 83.8672C1065.83 86.804 1065.19 91.9329 1059.32 95.3242L990.636 134.977C984.763 138.369 975.878 138.737 970.793 135.801Z" fill="url(#paint23_linear_140_3981)"/>
<path d="M1060.74 83.8705L989.207 42.571C986.573 41.0506 982.919 40.4227 979.194 40.6362C981.903 40.7987 984.442 41.4357 986.407 42.571L1057.94 83.8705C1063.03 86.8074 1062.39 91.9362 1056.51 95.3275L987.835 134.981C985.004 136.614 981.474 137.54 978.006 137.739C982.301 137.998 987.033 137.06 990.635 134.981L1059.31 95.3275C1065.19 91.9362 1065.83 86.8055 1060.74 83.8705Z" fill="#FEE142"/>
<path d="M973.145 123.891L919.891 93.1449C916.103 90.9583 916.58 87.1399 920.951 84.6156L972.083 55.0942C976.455 52.5699 983.069 52.2962 986.857 54.4828L1040.11 85.2307C1043.9 87.4173 1043.42 91.2357 1039.05 93.76L987.919 123.281C983.546 125.804 976.931 126.078 973.145 123.891Z" fill="url(#paint24_linear_140_3981)"/>
<path d="M975.035 114.33L936.451 92.0532C933.708 90.4689 934.051 87.7037 937.219 85.8748L974.264 64.4867C977.431 62.6578 982.224 62.4588 984.967 64.0431L1023.55 86.3183C1026.29 87.9026 1025.95 90.6678 1022.78 92.4967L985.738 113.885C982.569 115.716 977.778 115.913 975.035 114.33Z" fill="#966602"/>
<path d="M974.001 135.8L902.47 94.5007C897.385 91.5639 898.022 86.435 903.894 83.0437L972.574 43.3905C975.363 41.7807 978.829 40.8607 982.246 40.6435C977.885 40.3314 973.036 41.2696 969.365 43.3905L900.685 83.0437C894.812 86.435 894.175 91.5639 899.26 94.5007L970.793 135.8C973.463 137.343 977.183 137.965 980.963 137.724C978.349 137.538 975.907 136.903 974.001 135.8Z" fill="#93323C"/>
<mask id="mask9_140_3981" style="mask-type:luminance" maskUnits="userSpaceOnUse" x="934" y="62" width="92" height="54">
<path d="M975.035 114.33L936.451 92.0532C933.708 90.4689 934.051 87.7037 937.219 85.8748L974.264 64.4867C977.431 62.6578 982.224 62.4588 984.967 64.0431L1023.55 86.3183C1026.29 87.9026 1025.95 90.6678 1022.78 92.4967L985.738 113.885C982.569 115.716 977.778 115.913 975.035 114.33Z" fill="white"/>
</mask>
<g mask="url(#mask9_140_3981)">
<path d="M937.203 88.8885L974.263 67.4931C977.431 65.6643 982.226 65.4653 984.969 67.0496L1023.57 89.3339C1024.18 89.6862 1024.61 90.1023 1024.92 90.5459C1025.84 89.0346 1025.44 87.4028 1023.57 86.3186L984.969 64.0343C982.226 62.45 977.431 62.649 974.263 64.4779L937.203 85.8733C934.737 87.2969 934.007 89.2828 935.086 90.8415C935.515 90.1425 936.199 89.4671 937.203 88.8885Z" fill="url(#paint25_linear_140_3981)"/>
</g>
<mask id="mask10_140_3981" style="mask-type:luminance" maskUnits="userSpaceOnUse" x="934" y="62" width="92" height="54">
<path d="M975.035 114.33L936.451 92.0532C933.708 90.4689 934.051 87.7037 937.219 85.8748L974.264 64.4867C977.431 62.6578 982.224 62.4588 984.967 64.0431L1023.55 86.3183C1026.29 87.9026 1025.95 90.6678 1022.78 92.4967L985.738 113.885C982.569 115.716 977.778 115.913 975.035 114.33Z" fill="white"/>
</mask>
<g mask="url(#mask10_140_3981)">
<path d="M937.203 92.5223L974.263 71.1269C977.431 69.298 982.226 69.0991 984.969 70.6834L1023.57 92.9677C1024.05 93.2469 1024.4 93.57 1024.7 93.9113C1025.92 92.3088 1025.59 90.5 1023.57 89.3318L984.969 67.0475C982.226 65.4632 977.431 65.6622 974.263 67.4911L937.203 88.8864C934.591 90.3941 933.932 92.5296 935.305 94.1249C935.743 93.5517 936.369 93.0042 937.203 92.5223Z" fill="#966602"/>
</g>
<mask id="mask11_140_3981" style="mask-type:luminance" maskUnits="userSpaceOnUse" x="934" y="62" width="92" height="54">
<path d="M975.035 114.33L936.451 92.0532C933.708 90.4689 934.051 87.7037 937.219 85.8748L974.264 64.4867C977.431 62.6578 982.224 62.4588 984.967 64.0431L1023.55 86.3183C1026.29 87.9026 1025.95 90.6678 1022.78 92.4967L985.738 113.885C982.569 115.716 977.778 115.913 975.035 114.33Z" fill="white"/>
</mask>
<g mask="url(#mask11_140_3981)">
<path d="M935.679 98.1536C936.084 97.732 936.571 97.3232 937.203 96.96L974.263 75.5646C977.431 73.7357 982.226 73.5367 984.969 75.121L1023.57 97.4053C1023.86 97.5732 1024.1 97.763 1024.32 97.9565C1025.95 96.2591 1025.77 94.2385 1023.57 92.97L984.969 70.6857C982.226 69.1014 977.431 69.3004 974.263 71.1292L937.203 92.5246C934.372 94.1582 933.814 96.5347 935.679 98.1536Z" fill="#FEE142"/>
</g>
</g>
<g opacity="0.5">
<path d="M861 121.53C861 122.359 862.015 122.945 862.732 122.53L874.268 115.87C874.985 115.456 874.985 114.284 874.268 113.87L862.732 107.21C862.015 106.796 861 107.381 861 108.21V121.53ZM805.667 108.21C805.667 107.381 804.652 106.796 803.935 107.21L792.399 113.87C791.681 114.284 791.681 115.456 792.399 115.87L803.935 122.53C804.652 122.945 805.667 122.359 805.667 121.53V108.21ZM803.467 116.37H812V113.37H803.467V116.37ZM820.533 116.37H829.067V113.37H820.533V116.37ZM837.6 116.37H846.133V113.37H837.6V116.37ZM854.667 116.37H863.2V113.37H854.667V116.37Z" fill="url(#paint26_linear_140_3981)"/>
</g>
<defs>
<linearGradient id="paint0_linear_140_3981" x1="-10.383" y1="132.281" x2="218.359" y2="132.281" gradientUnits="userSpaceOnUse">
<stop stop-color="#966602"/>
<stop offset="0.245" stop-color="#D3BD01"/>
<stop offset="0.397897" stop-color="#F9F400"/>
<stop offset="0.565" stop-color="#F9F400"/>
<stop offset="0.835" stop-color="#BC9C01"/>
<stop offset="1" stop-color="#966602"/>
</linearGradient>
<linearGradient id="paint1_linear_140_3981" x1="7.10257" y1="114.008" x2="199.625" y2="114.008" gradientUnits="userSpaceOnUse">
<stop stop-color="#966602"/>
<stop offset="0.245" stop-color="#D3BD01"/>
<stop offset="0.397897" stop-color="#F9F400"/>
<stop offset="0.565" stop-color="#F9F400"/>
<stop offset="0.835" stop-color="#BC9C01"/>
<stop offset="1" stop-color="#966602"/>
</linearGradient>
<linearGradient id="paint2_linear_140_3981" x1="7.10086" y1="136.997" x2="199.624" y2="136.997" gradientUnits="userSpaceOnUse">
<stop stop-color="#966602"/>
<stop offset="0.245" stop-color="#D3BD01"/>
<stop offset="0.397897" stop-color="#F9F400"/>
<stop offset="0.565" stop-color="#F9F400"/>
<stop offset="0.835" stop-color="#BC9C01"/>
<stop offset="1" stop-color="#966602"/>
</linearGradient>
<linearGradient id="paint3_linear_140_3981" x1="7.08871" y1="90.189" x2="199.626" y2="90.189" gradientUnits="userSpaceOnUse">
<stop stop-color="#966602"/>
<stop offset="0.245" stop-color="#D3BD01"/>
<stop offset="0.397897" stop-color="#F9F400"/>
<stop offset="0.565" stop-color="#F9F400"/>
<stop offset="0.835" stop-color="#BC9C01"/>
<stop offset="1" stop-color="#966602"/>
</linearGradient>
<linearGradient id="paint4_linear_140_3981" x1="30.8275" y1="89.9348" x2="174.173" y2="89.9348" gradientUnits="userSpaceOnUse">
<stop stop-color="#966602"/>
<stop offset="0.245" stop-color="#D3BD01"/>
<stop offset="0.397897" stop-color="#F9F400"/>
<stop offset="0.565" stop-color="#F9F400"/>
<stop offset="0.835" stop-color="#BC9C01"/>
<stop offset="1" stop-color="#966602"/>
</linearGradient>
<linearGradient id="paint5_linear_140_3981" x1="49.8877" y1="77.1913" x2="153.731" y2="77.1913" gradientUnits="userSpaceOnUse">
<stop stop-color="#966602"/>
<stop offset="0.245" stop-color="#D3BD01"/>
<stop offset="0.397897" stop-color="#F9F400"/>
<stop offset="0.565" stop-color="#F9F400"/>
<stop offset="0.835" stop-color="#BC9C01"/>
<stop offset="1" stop-color="#966602"/>
</linearGradient>
<linearGradient id="paint6_linear_140_3981" x1="282.95" y1="132.281" x2="511.692" y2="132.281" gradientUnits="userSpaceOnUse">
<stop stop-color="#966602"/>
<stop offset="0.245" stop-color="#D3BD01"/>
<stop offset="0.397897" stop-color="#F9F400"/>
<stop offset="0.565" stop-color="#F9F400"/>
<stop offset="0.835" stop-color="#BC9C01"/>
<stop offset="1" stop-color="#966602"/>
</linearGradient>
<linearGradient id="paint7_linear_140_3981" x1="300.436" y1="114.008" x2="492.959" y2="114.008" gradientUnits="userSpaceOnUse">
<stop stop-color="#966602"/>
<stop offset="0.245" stop-color="#D3BD01"/>
<stop offset="0.397897" stop-color="#F9F400"/>
<stop offset="0.565" stop-color="#F9F400"/>
<stop offset="0.835" stop-color="#BC9C01"/>
<stop offset="1" stop-color="#966602"/>
</linearGradient>
<linearGradient id="paint8_linear_140_3981" x1="300.434" y1="136.997" x2="492.957" y2="136.997" gradientUnits="userSpaceOnUse">
<stop stop-color="#966602"/>
<stop offset="0.245" stop-color="#D3BD01"/>
<stop offset="0.397897" stop-color="#F9F400"/>
<stop offset="0.565" stop-color="#F9F400"/>
<stop offset="0.835" stop-color="#BC9C01"/>
<stop offset="1" stop-color="#966602"/>
</linearGradient>
<linearGradient id="paint9_linear_140_3981" x1="300.422" y1="90.189" x2="492.96" y2="90.189" gradientUnits="userSpaceOnUse">
<stop stop-color="#966602"/>
<stop offset="0.245" stop-color="#D3BD01"/>
<stop offset="0.397897" stop-color="#F9F400"/>
<stop offset="0.565" stop-color="#F9F400"/>
<stop offset="0.835" stop-color="#BC9C01"/>
<stop offset="1" stop-color="#966602"/>
</linearGradient>
<linearGradient id="paint10_linear_140_3981" x1="324.161" y1="89.9348" x2="467.506" y2="89.9348" gradientUnits="userSpaceOnUse">
<stop stop-color="#966602"/>
<stop offset="0.245" stop-color="#D3BD01"/>
<stop offset="0.397897" stop-color="#F9F400"/>
<stop offset="0.565" stop-color="#F9F400"/>
<stop offset="0.835" stop-color="#BC9C01"/>
<stop offset="1" stop-color="#966602"/>
</linearGradient>
<linearGradient id="paint11_linear_140_3981" x1="343.221" y1="77.1913" x2="447.064" y2="77.1913" gradientUnits="userSpaceOnUse">
<stop stop-color="#966602"/>
<stop offset="0.245" stop-color="#D3BD01"/>
<stop offset="0.397897" stop-color="#F9F400"/>
<stop offset="0.565" stop-color="#F9F400"/>
<stop offset="0.835" stop-color="#BC9C01"/>
<stop offset="1" stop-color="#966602"/>
</linearGradient>
<linearGradient id="paint12_linear_140_3981" x1="-1.21372e+20" y1="-7591.45" x2="-1.21372e+20" y2="-7596.79" gradientUnits="userSpaceOnUse">
<stop stop-color="#966602"/>
<stop offset="0.397897" stop-color="#E6CB3C"/>
<stop offset="0.565" stop-color="#E1BF30"/>
<stop offset="1" stop-color="#966602"/>
</linearGradient>
<linearGradient id="paint13_linear_140_3981" x1="576.284" y1="132.281" x2="805.026" y2="132.281" gradientUnits="userSpaceOnUse">
<stop stop-color="#966602"/>
<stop offset="0.245" stop-color="#D3BD01"/>
<stop offset="0.397897" stop-color="#F9F400"/>
<stop offset="0.565" stop-color="#F9F400"/>
<stop offset="0.835" stop-color="#BC9C01"/>
<stop offset="1" stop-color="#966602"/>
</linearGradient>
<linearGradient id="paint14_linear_140_3981" x1="593.769" y1="114.008" x2="786.292" y2="114.008" gradientUnits="userSpaceOnUse">
<stop stop-color="#966602"/>
<stop offset="0.245" stop-color="#D3BD01"/>
<stop offset="0.397897" stop-color="#F9F400"/>
<stop offset="0.565" stop-color="#F9F400"/>
<stop offset="0.835" stop-color="#BC9C01"/>
<stop offset="1" stop-color="#966602"/>
</linearGradient>
<linearGradient id="paint15_linear_140_3981" x1="593.768" y1="136.997" x2="786.29" y2="136.997" gradientUnits="userSpaceOnUse">
<stop stop-color="#966602"/>
<stop offset="0.245" stop-color="#D3BD01"/>
<stop offset="0.397897" stop-color="#F9F400"/>
<stop offset="0.565" stop-color="#F9F400"/>
<stop offset="0.835" stop-color="#BC9C01"/>
<stop offset="1" stop-color="#966602"/>
</linearGradient>
<linearGradient id="paint16_linear_140_3981" x1="593.755" y1="90.189" x2="786.293" y2="90.189" gradientUnits="userSpaceOnUse">
<stop stop-color="#966602"/>
<stop offset="0.245" stop-color="#D3BD01"/>
<stop offset="0.397897" stop-color="#F9F400"/>
<stop offset="0.565" stop-color="#F9F400"/>
<stop offset="0.835" stop-color="#BC9C01"/>
<stop offset="1" stop-color="#966602"/>
</linearGradient>
<linearGradient id="paint17_linear_140_3981" x1="617.494" y1="89.9348" x2="760.84" y2="89.9348" gradientUnits="userSpaceOnUse">
<stop stop-color="#966602"/>
<stop offset="0.245" stop-color="#D3BD01"/>
<stop offset="0.397897" stop-color="#F9F400"/>
<stop offset="0.565" stop-color="#F9F400"/>
<stop offset="0.835" stop-color="#BC9C01"/>
<stop offset="1" stop-color="#966602"/>
</linearGradient>
<linearGradient id="paint18_linear_140_3981" x1="636.554" y1="77.1913" x2="740.397" y2="77.1913" gradientUnits="userSpaceOnUse">
<stop stop-color="#966602"/>
<stop offset="0.245" stop-color="#D3BD01"/>
<stop offset="0.397897" stop-color="#F9F400"/>
<stop offset="0.565" stop-color="#F9F400"/>
<stop offset="0.835" stop-color="#BC9C01"/>
<stop offset="1" stop-color="#966602"/>
</linearGradient>
<linearGradient id="paint19_linear_140_3981" x1="-1.21372e+20" y1="-7591.45" x2="-1.21372e+20" y2="-7596.79" gradientUnits="userSpaceOnUse">
<stop stop-color="#966602"/>
<stop offset="0.397897" stop-color="#E6CB3C"/>
<stop offset="0.565" stop-color="#E1BF30"/>
<stop offset="1" stop-color="#966602"/>
</linearGradient>
<linearGradient id="paint20_linear_140_3981" x1="869.617" y1="132.281" x2="1098.36" y2="132.281" gradientUnits="userSpaceOnUse">
<stop stop-color="#966602"/>
<stop offset="0.245" stop-color="#D3BD01"/>
<stop offset="0.397897" stop-color="#F9F400"/>
<stop offset="0.565" stop-color="#F9F400"/>
<stop offset="0.835" stop-color="#BC9C01"/>
<stop offset="1" stop-color="#966602"/>
</linearGradient>
<linearGradient id="paint21_linear_140_3981" x1="887.103" y1="114.008" x2="1079.63" y2="114.008" gradientUnits="userSpaceOnUse">
<stop stop-color="#966602"/>
<stop offset="0.245" stop-color="#D3BD01"/>
<stop offset="0.397897" stop-color="#F9F400"/>
<stop offset="0.565" stop-color="#F9F400"/>
<stop offset="0.835" stop-color="#BC9C01"/>
<stop offset="1" stop-color="#966602"/>
</linearGradient>
<linearGradient id="paint22_linear_140_3981" x1="887.101" y1="136.997" x2="1079.62" y2="136.997" gradientUnits="userSpaceOnUse">
<stop stop-color="#966602"/>
<stop offset="0.245" stop-color="#D3BD01"/>
<stop offset="0.397897" stop-color="#F9F400"/>
<stop offset="0.565" stop-color="#F9F400"/>
<stop offset="0.835" stop-color="#BC9C01"/>
<stop offset="1" stop-color="#966602"/>
</linearGradient>
<linearGradient id="paint23_linear_140_3981" x1="887.089" y1="90.189" x2="1079.63" y2="90.189" gradientUnits="userSpaceOnUse">
<stop stop-color="#966602"/>
<stop offset="0.245" stop-color="#D3BD01"/>
<stop offset="0.397897" stop-color="#F9F400"/>
<stop offset="0.565" stop-color="#F9F400"/>
<stop offset="0.835" stop-color="#BC9C01"/>
<stop offset="1" stop-color="#966602"/>
</linearGradient>
<linearGradient id="paint24_linear_140_3981" x1="910.828" y1="89.9348" x2="1054.17" y2="89.9348" gradientUnits="userSpaceOnUse">
<stop stop-color="#966602"/>
<stop offset="0.245" stop-color="#D3BD01"/>
<stop offset="0.397897" stop-color="#F9F400"/>
<stop offset="0.565" stop-color="#F9F400"/>
<stop offset="0.835" stop-color="#BC9C01"/>
<stop offset="1" stop-color="#966602"/>
</linearGradient>
<linearGradient id="paint25_linear_140_3981" x1="929.888" y1="77.1913" x2="1033.73" y2="77.1913" gradientUnits="userSpaceOnUse">
<stop stop-color="#966602"/>
<stop offset="0.245" stop-color="#D3BD01"/>
<stop offset="0.397897" stop-color="#F9F400"/>
<stop offset="0.565" stop-color="#F9F400"/>
<stop offset="0.835" stop-color="#BC9C01"/>
<stop offset="1" stop-color="#966602"/>
</linearGradient>
<linearGradient id="paint26_linear_140_3981" x1="-1.21371e+20" y1="-7591.44" x2="-1.21371e+20" y2="-7596.78" gradientUnits="userSpaceOnUse">
<stop stop-color="#966602"/>
<stop offset="0.397897" stop-color="#E6CB3C"/>
<stop offset="0.565" stop-color="#E1BF30"/>
<stop offset="1" stop-color="#966602"/>
</linearGradient>
</defs>
</svg>
