<svg width="29" height="29" viewBox="0 0 29 29" fill="none" xmlns="http://www.w3.org/2000/svg">
<path fill-rule="evenodd" clip-rule="evenodd" d="M14.5371 0.0168457C22.2697 0.0168457 28.5371 6.28432 28.5371 14.0168C28.5371 21.7494 22.2697 28.0168 14.5371 28.0168C6.80458 28.0168 0.537109 21.7494 0.537109 14.0168C0.537109 6.28432 6.80458 0.0168457 14.5371 0.0168457Z" fill="#F0B90B"/>
<path d="M8.23155 14.0169L8.24165 17.7188L11.3872 19.5698V21.7371L6.40079 18.8126V12.9344L8.23155 14.0169ZM8.23155 10.315V12.4722L6.39966 11.3886V9.23139L8.23155 8.14771L10.0724 9.23139L8.23155 10.315ZM12.7008 9.23139L14.5327 8.14771L16.3736 9.23139L14.5327 10.315L12.7008 9.23139Z" fill="white"/>
<path d="M9.55591 16.9515V14.7843L11.3878 15.8679V18.0251L9.55591 16.9515ZM12.7014 20.3461L14.5333 21.4298L16.3742 20.3461V22.5033L14.5333 23.587L12.7014 22.5033V20.3461ZM19.0014 9.23139L20.8333 8.14771L22.6742 9.23139V11.3886L20.8333 12.4722V10.315L19.0014 9.23139ZM20.8333 17.7188L20.8434 14.0169L22.6753 12.9333V18.8115L17.6889 21.736V19.5687L20.8333 17.7188Z" fill="white"/>
<path d="M19.5221 16.9512L17.6902 18.0248V15.8676L19.5221 14.7839V16.9512Z" fill="white"/>
<path d="M19.5197 11.0822L19.5298 13.2495L16.3753 15.1005V18.8114L14.5434 19.8849L12.7115 18.8114V15.1005L9.55703 13.2495V11.0822L11.3968 9.99858L14.5322 11.8585L17.6867 9.99858L19.5276 11.0822H19.5197ZM9.55591 7.38139L14.5333 4.44678L19.5197 7.38139L17.6878 8.46506L14.5333 6.60511L11.3878 8.46506L9.55591 7.38139Z" fill="white"/>
</svg>
