<svg width="277" height="32" viewBox="0 0 277 32" fill="none" xmlns="http://www.w3.org/2000/svg">
<path opacity="0.7" d="M0.690866 29.7532L4.48728 31.2545L5.98858 27.4581L2.19216 25.9568L0.690866 29.7532ZM276.016 29.7532L274.515 25.9568L270.718 27.4581L272.22 31.2545L276.016 29.7532ZM3.53849 29.0644C4.42069 28.6822 5.30512 28.3037 6.19177 27.9288L5.80232 27.0077C4.91298 27.3838 4.02585 27.7635 3.14096 28.1468L3.53849 29.0644ZM11.5298 25.7267C13.3128 25.0094 15.1044 24.3067 16.9044 23.6189L16.5474 22.6848C14.742 23.3747 12.945 24.0794 11.1566 24.7989L11.5298 25.7267ZM22.316 21.6049C24.1232 20.9503 25.9384 20.3105 27.7616 19.6857L27.4374 18.7397C25.6087 19.3664 23.788 20.0081 21.9755 20.6647L22.316 21.6049ZM33.2394 17.8615C35.0683 17.27 36.9049 16.6935 38.749 16.1322L38.4578 15.1755C36.6082 15.7385 34.766 16.3168 32.9316 16.91L33.2394 17.8615ZM44.2866 14.4988C46.1345 13.9711 47.9896 13.4584 49.8518 12.9611L49.5938 11.995C47.726 12.4938 45.8654 13.0079 44.012 13.5373L44.2866 14.4988ZM55.4439 11.5191C57.3085 11.0553 59.18 10.6068 61.0581 10.1737L60.8334 9.19929C58.9497 9.63367 57.0727 10.0835 55.2025 10.5487L55.4439 11.5191ZM66.6953 8.92446C68.5752 8.52467 70.4615 8.14027 72.3542 7.77141L72.1629 6.78988C70.2647 7.15983 68.3727 7.54536 66.4873 7.94633L66.6953 8.92446ZM78.0298 6.7153C79.9217 6.37986 81.8197 6.0599 83.7235 5.75557L83.5656 4.7681C81.6562 5.07333 79.7527 5.39423 77.8552 5.73066L78.0298 6.7153ZM89.4338 4.89223C91.3356 4.62112 93.243 4.36557 95.1559 4.12573L95.0315 3.1335C93.1131 3.37404 91.2001 3.63034 89.2927 3.90224L89.4338 4.89223ZM100.891 3.45559C102.801 3.24862 104.717 3.05727 106.637 2.8817L106.546 1.88586C104.62 2.06193 102.699 2.25383 100.783 2.46141L100.891 3.45559ZM112.391 2.40417C114.307 2.26129 116.227 2.13407 118.152 2.02267L118.095 1.02434C116.164 1.13606 114.238 1.26364 112.317 1.40694L112.391 2.40417ZM123.92 1.73691C125.84 1.65776 127.764 1.59432 129.692 1.54672L129.667 0.547022C127.734 0.594756 125.804 0.658381 123.879 0.737761L123.92 1.73691ZM135.465 1.4518C136.426 1.4439 137.389 1.43994 138.353 1.43994V0.439941C137.387 0.439941 136.421 0.443912 135.456 0.451836L135.465 1.4518ZM138.353 1.43994C139.317 1.43994 140.28 1.4439 141.242 1.4518L141.251 0.451836C140.286 0.443912 139.32 0.439941 138.353 0.439941V1.43994ZM147.015 1.54672C148.943 1.59432 150.867 1.65776 152.787 1.73691L152.828 0.73776C150.903 0.658381 148.973 0.594756 147.039 0.547021L147.015 1.54672ZM158.554 2.02267C160.479 2.13407 162.4 2.26129 164.315 2.40417L164.39 1.40694C162.469 1.26364 160.543 1.13606 158.612 1.02434L158.554 2.02267ZM170.069 2.8817C171.99 3.05727 173.906 3.24862 175.816 3.45559L175.924 2.46141C174.008 2.25383 172.087 2.06193 170.16 1.88586L170.069 2.8817ZM181.551 4.12572C183.464 4.36557 185.371 4.62112 187.273 4.89223L187.414 3.90224C185.507 3.63034 183.594 3.37404 181.675 3.13349L181.551 4.12572ZM192.983 5.75556C194.887 6.0599 196.785 6.37986 198.677 6.7153L198.852 5.73065C196.954 5.39423 195.051 5.07332 193.141 4.7681L192.983 5.75556ZM204.353 7.77141C206.245 8.14027 208.132 8.52467 210.012 8.92445L210.22 7.94633C208.334 7.54536 206.442 7.15982 204.544 6.78988L204.353 7.77141ZM215.649 10.1737C217.527 10.6068 219.398 11.0553 221.263 11.5191L221.504 10.5487C219.634 10.0835 217.757 9.63366 215.873 9.19928L215.649 10.1737ZM226.855 12.9611C228.717 13.4584 230.572 13.9711 232.42 14.4988L232.695 13.5373C230.841 13.0079 228.981 12.4938 227.113 11.995L226.855 12.9611ZM237.958 16.1322C239.802 16.6935 241.639 17.27 243.467 17.8615L243.775 16.91C241.941 16.3168 240.099 15.7385 238.249 15.1755L237.958 16.1322ZM248.945 19.6857C250.768 20.3105 252.584 20.9503 254.391 21.6049L254.731 20.6647C252.919 20.0081 251.098 19.3663 249.269 18.7397L248.945 19.6857ZM259.802 23.6189C261.602 24.3067 263.394 25.0093 265.177 25.7267L265.55 24.7989C263.762 24.0794 261.965 23.3747 260.159 22.6847L259.802 23.6189ZM270.515 27.9288C271.402 28.3037 272.286 28.6822 273.168 29.0644L273.566 28.1468C272.681 27.7635 271.794 27.3838 270.904 27.0077L270.515 27.9288ZM0.690866 29.7532L4.48728 31.2545L5.98858 27.4581L2.19216 25.9568L0.690866 29.7532ZM276.016 29.7532L274.515 25.9568L270.718 27.4581L272.22 31.2545L276.016 29.7532ZM3.53849 29.0644C4.42069 28.6822 5.30512 28.3037 6.19177 27.9288L5.80232 27.0077C4.91298 27.3838 4.02585 27.7635 3.14096 28.1468L3.53849 29.0644ZM11.5298 25.7267C13.3128 25.0094 15.1044 24.3067 16.9044 23.6189L16.5474 22.6848C14.742 23.3747 12.945 24.0794 11.1566 24.7989L11.5298 25.7267ZM22.316 21.6049C24.1232 20.9503 25.9384 20.3105 27.7616 19.6857L27.4374 18.7397C25.6087 19.3664 23.788 20.0081 21.9755 20.6647L22.316 21.6049ZM33.2394 17.8615C35.0683 17.27 36.9049 16.6935 38.749 16.1322L38.4578 15.1755C36.6082 15.7385 34.766 16.3168 32.9316 16.91L33.2394 17.8615ZM44.2866 14.4988C46.1345 13.9711 47.9896 13.4584 49.8518 12.9611L49.5938 11.995C47.726 12.4938 45.8654 13.0079 44.012 13.5373L44.2866 14.4988ZM55.4439 11.5191C57.3085 11.0553 59.18 10.6068 61.0581 10.1737L60.8334 9.19929C58.9497 9.63367 57.0727 10.0835 55.2025 10.5487L55.4439 11.5191ZM66.6953 8.92446C68.5752 8.52467 70.4615 8.14027 72.3542 7.77141L72.1629 6.78988C70.2647 7.15983 68.3727 7.54536 66.4873 7.94633L66.6953 8.92446ZM78.0298 6.7153C79.9217 6.37986 81.8197 6.0599 83.7235 5.75557L83.5656 4.7681C81.6562 5.07333 79.7527 5.39423 77.8552 5.73066L78.0298 6.7153ZM89.4338 4.89223C91.3356 4.62112 93.243 4.36557 95.1559 4.12573L95.0315 3.1335C93.1131 3.37404 91.2001 3.63034 89.2927 3.90224L89.4338 4.89223ZM100.891 3.45559C102.801 3.24862 104.717 3.05727 106.637 2.8817L106.546 1.88586C104.62 2.06193 102.699 2.25383 100.783 2.46141L100.891 3.45559ZM112.391 2.40417C114.307 2.26129 116.227 2.13407 118.152 2.02267L118.095 1.02434C116.164 1.13606 114.238 1.26364 112.317 1.40694L112.391 2.40417ZM123.92 1.73691C125.84 1.65776 127.764 1.59432 129.692 1.54672L129.667 0.547022C127.734 0.594756 125.804 0.658381 123.879 0.737761L123.92 1.73691ZM135.465 1.4518C136.426 1.4439 137.389 1.43994 138.353 1.43994V0.439941C137.387 0.439941 136.421 0.443912 135.456 0.451836L135.465 1.4518ZM138.353 1.43994C139.317 1.43994 140.28 1.4439 141.242 1.4518L141.251 0.451836C140.286 0.443912 139.32 0.439941 138.353 0.439941V1.43994ZM147.015 1.54672C148.943 1.59432 150.867 1.65776 152.787 1.73691L152.828 0.73776C150.903 0.658381 148.973 0.594756 147.039 0.547021L147.015 1.54672ZM158.554 2.02267C160.479 2.13407 162.4 2.26129 164.315 2.40417L164.39 1.40694C162.469 1.26364 160.543 1.13606 158.612 1.02434L158.554 2.02267ZM170.069 2.8817C171.99 3.05727 173.906 3.24862 175.816 3.45559L175.924 2.46141C174.008 2.25383 172.087 2.06193 170.16 1.88586L170.069 2.8817ZM181.551 4.12572C183.464 4.36557 185.371 4.62112 187.273 4.89223L187.414 3.90224C185.507 3.63034 183.594 3.37404 181.675 3.13349L181.551 4.12572ZM192.983 5.75556C194.887 6.0599 196.785 6.37986 198.677 6.7153L198.852 5.73065C196.954 5.39423 195.051 5.07332 193.141 4.7681L192.983 5.75556ZM204.353 7.77141C206.245 8.14027 208.132 8.52467 210.012 8.92445L210.22 7.94633C208.334 7.54536 206.442 7.15982 204.544 6.78988L204.353 7.77141ZM215.649 10.1737C217.527 10.6068 219.398 11.0553 221.263 11.5191L221.504 10.5487C219.634 10.0835 217.757 9.63366 215.873 9.19928L215.649 10.1737ZM226.855 12.9611C228.717 13.4584 230.572 13.9711 232.42 14.4988L232.695 13.5373C230.841 13.0079 228.981 12.4938 227.113 11.995L226.855 12.9611ZM237.958 16.1322C239.802 16.6935 241.639 17.27 243.467 17.8615L243.775 16.91C241.941 16.3168 240.099 15.7385 238.249 15.1755L237.958 16.1322ZM248.945 19.6857C250.768 20.3105 252.584 20.9503 254.391 21.6049L254.731 20.6647C252.919 20.0081 251.098 19.3663 249.269 18.7397L248.945 19.6857ZM259.802 23.6189C261.602 24.3067 263.394 25.0093 265.177 25.7267L265.55 24.7989C263.762 24.0794 261.965 23.3747 260.159 22.6847L259.802 23.6189ZM270.515 27.9288C271.402 28.3037 272.286 28.6822 273.168 29.0644L273.566 28.1468C272.681 27.7635 271.794 27.3838 270.904 27.0077L270.515 27.9288Z" fill="url(#paint0_linear_70_1934)"/>
<defs>
<linearGradient id="paint0_linear_70_1934" x1="-10.6788" y1="15.0587" x2="298.154" y2="15.0587" gradientUnits="userSpaceOnUse">
<stop stop-color="#966602"/>
<stop offset="0.245" stop-color="#D3BD01"/>
<stop offset="0.397897" stop-color="#F9F400"/>
<stop offset="0.565" stop-color="#F9F400"/>
<stop offset="0.835" stop-color="#BC9C01"/>
<stop offset="1" stop-color="#966602"/>
</linearGradient>
</defs>
</svg>
