<svg width="276" height="39" viewBox="0 0 276 39" fill="none" xmlns="http://www.w3.org/2000/svg">
<path opacity="0.7" d="M0.0818372 16.5266L3.79244 14.824L5.49478 18.5345L1.78417 20.2371L0.0818372 16.5266ZM275.012 1.76993L273.716 5.64137L269.844 4.3457L271.14 0.474265L275.012 1.76993ZM2.96223 17.0617C3.86362 17.3961 4.76705 17.7267 5.67249 18.0536L5.3329 18.9942C4.4247 18.6663 3.51852 18.3347 2.61439 17.9993L2.96223 17.0617ZM11.1207 19.9664C12.9396 20.5871 14.7662 21.1927 16.6004 21.7831L16.294 22.735C14.4542 22.1429 12.622 21.5354 10.7977 20.9128L11.1207 19.9664ZM22.1121 23.5041C23.9517 24.061 25.7985 24.6025 27.6526 25.1287L27.3795 26.0907C25.5199 25.563 23.6674 25.0198 21.8223 24.4612L22.1121 23.5041ZM33.2201 26.6567C35.078 27.1493 36.9429 27.6265 38.8144 28.0882L38.5748 29.0591C36.6977 28.596 34.8273 28.1174 32.9638 27.6233L33.2201 26.6567ZM44.4315 29.4224C46.3049 29.8504 48.1848 30.2629 50.071 30.6597L49.8651 31.6382C47.9733 31.2403 46.0878 30.8266 44.2087 30.3973L44.4315 29.4224ZM55.7322 31.7999C57.619 32.1631 59.5117 32.5106 61.4104 32.8424L61.2381 33.8275C59.3339 33.4947 57.4355 33.1461 55.5431 32.7819L55.7322 31.7999ZM67.1063 33.7878C69.0049 34.0862 70.9092 34.369 72.8188 34.6359L72.6803 35.6262C70.765 35.3586 68.8552 35.075 66.951 34.7756L67.1063 33.7878ZM78.5428 35.3863C80.45 35.6198 82.3623 35.8376 84.2797 36.0394L84.1749 37.034C82.2519 36.8315 80.334 36.6131 78.4212 36.3788L78.5428 35.3863ZM90.028 36.5955C91.9416 36.7643 93.86 36.9172 95.783 37.0542L95.7118 38.0517C93.7833 37.9143 91.8593 37.7609 89.9401 37.5916L90.028 36.5955ZM101.545 37.416C103.464 37.5203 105.387 37.6087 107.315 37.6811L107.277 38.6804C105.344 38.6078 103.415 38.5191 101.491 38.4145L101.545 37.416ZM113.086 37.8495C115.006 37.8895 116.931 37.9136 118.859 37.9217L118.855 38.9217C116.921 38.9136 114.991 38.8894 113.065 38.8493L113.086 37.8495ZM124.634 37.8979C126.555 37.8741 128.48 37.8343 130.408 37.7785L130.436 38.778C128.503 38.834 126.573 38.8739 124.646 38.8978L124.634 37.8979ZM136.177 37.5639C137.138 37.5202 138.1 37.4725 139.062 37.4209L139.116 38.4194C138.15 38.4712 137.186 38.519 136.222 38.5628L136.177 37.5639ZM139.062 37.4209C140.025 37.3692 140.986 37.3136 141.946 37.2542L142.008 38.2523C141.045 38.3119 140.081 38.3676 139.116 38.4194L139.062 37.4209ZM147.705 36.85C149.628 36.6991 151.546 36.5327 153.459 36.3507L153.553 37.3463C151.635 37.5287 149.712 37.6956 147.784 37.847L147.705 36.85ZM159.203 35.7563C161.119 35.5418 163.03 35.3119 164.935 35.0665L165.063 36.0583C163.152 36.3044 161.236 36.535 159.314 36.7501L159.203 35.7563ZM170.656 34.2813C172.564 34.003 174.467 33.7093 176.363 33.4002L176.524 34.3872C174.622 34.6972 172.714 34.9918 170.8 35.2708L170.656 34.2813ZM182.054 32.4237C183.951 32.0816 185.842 31.7242 187.727 31.3516L187.921 32.3326C186.031 32.7063 184.134 33.0648 182.231 33.4078L182.054 32.4237ZM193.383 30.1834C195.267 29.7775 197.146 29.3563 199.017 28.9199L199.244 29.8938C197.367 30.3314 195.483 30.7539 193.593 31.161L193.383 30.1834ZM204.628 27.5611C206.498 27.0913 208.361 26.6064 210.217 26.1064L210.477 27.072C208.616 27.5734 206.747 28.0598 204.871 28.531L204.628 27.5611ZM215.779 24.5568C217.631 24.0237 219.476 23.4755 221.313 22.9125L221.606 23.8686C219.764 24.4333 217.913 24.9831 216.056 25.5178L215.779 24.5568ZM226.82 21.1728C228.653 20.5764 230.478 19.9651 232.295 19.339L232.621 20.2845C230.798 20.9124 228.968 21.5255 227.129 22.1237L226.82 21.1728ZM237.737 17.4112C239.549 16.7518 241.352 16.0777 243.146 15.3891L243.505 16.3227C241.705 17.0134 239.896 17.6895 238.079 18.3508L237.737 17.4112ZM248.519 13.2739C250.306 12.5523 252.084 11.8161 253.854 11.0656L254.244 11.9862C252.469 12.739 250.686 13.4774 248.893 14.2012L248.519 13.2739ZM259.15 8.76442C260.91 7.98111 262.662 7.18345 264.404 6.3716L264.826 7.278C263.079 8.09231 261.322 8.8924 259.556 9.67808L259.15 8.76442ZM269.616 3.88657C270.482 3.46468 271.345 3.03926 272.205 2.61033L272.651 3.5053C271.788 3.93554 270.923 4.36225 270.055 4.78542L269.616 3.88657ZM0.0818372 16.5266L3.79244 14.824L5.49478 18.5345L1.78417 20.2371L0.0818372 16.5266ZM275.012 1.76993L273.716 5.64137L269.844 4.3457L271.14 0.474265L275.012 1.76993ZM2.96223 17.0617C3.86362 17.3961 4.76705 17.7267 5.67249 18.0536L5.3329 18.9942C4.4247 18.6663 3.51852 18.3347 2.61439 17.9993L2.96223 17.0617ZM11.1207 19.9664C12.9396 20.5871 14.7662 21.1927 16.6004 21.7831L16.294 22.735C14.4542 22.1429 12.622 21.5354 10.7977 20.9128L11.1207 19.9664ZM22.1121 23.5041C23.9517 24.061 25.7985 24.6025 27.6526 25.1287L27.3795 26.0907C25.5199 25.563 23.6674 25.0198 21.8223 24.4612L22.1121 23.5041ZM33.2201 26.6567C35.078 27.1493 36.9429 27.6265 38.8144 28.0882L38.5748 29.0591C36.6977 28.596 34.8273 28.1174 32.9638 27.6233L33.2201 26.6567ZM44.4315 29.4224C46.3049 29.8504 48.1848 30.2629 50.071 30.6597L49.8651 31.6382C47.9733 31.2403 46.0878 30.8266 44.2087 30.3973L44.4315 29.4224ZM55.7322 31.7999C57.619 32.1631 59.5117 32.5106 61.4104 32.8424L61.2381 33.8275C59.3339 33.4947 57.4355 33.1461 55.5431 32.7819L55.7322 31.7999ZM67.1063 33.7878C69.0049 34.0862 70.9092 34.369 72.8188 34.6359L72.6803 35.6262C70.765 35.3586 68.8552 35.075 66.951 34.7756L67.1063 33.7878ZM78.5428 35.3863C80.45 35.6198 82.3623 35.8376 84.2797 36.0394L84.1749 37.034C82.2519 36.8315 80.334 36.6131 78.4212 36.3788L78.5428 35.3863ZM90.028 36.5955C91.9416 36.7643 93.86 36.9172 95.783 37.0542L95.7118 38.0517C93.7833 37.9143 91.8593 37.7609 89.9401 37.5916L90.028 36.5955ZM101.545 37.416C103.464 37.5203 105.387 37.6087 107.315 37.6811L107.277 38.6804C105.344 38.6078 103.415 38.5191 101.491 38.4145L101.545 37.416ZM113.086 37.8495C115.006 37.8895 116.931 37.9136 118.859 37.9217L118.855 38.9217C116.921 38.9136 114.991 38.8894 113.065 38.8493L113.086 37.8495ZM124.634 37.8979C126.555 37.8741 128.48 37.8343 130.408 37.7785L130.436 38.778C128.503 38.834 126.573 38.8739 124.646 38.8978L124.634 37.8979ZM136.177 37.5639C137.138 37.5202 138.1 37.4725 139.062 37.4209L139.116 38.4194C138.15 38.4712 137.186 38.519 136.222 38.5628L136.177 37.5639ZM139.062 37.4209C140.025 37.3692 140.986 37.3136 141.946 37.2542L142.008 38.2523C141.045 38.3119 140.081 38.3676 139.116 38.4194L139.062 37.4209ZM147.705 36.85C149.628 36.6991 151.546 36.5327 153.459 36.3507L153.553 37.3463C151.635 37.5287 149.712 37.6956 147.784 37.847L147.705 36.85ZM159.203 35.7563C161.119 35.5418 163.03 35.3119 164.935 35.0665L165.063 36.0583C163.152 36.3044 161.236 36.535 159.314 36.7501L159.203 35.7563ZM170.656 34.2813C172.564 34.003 174.467 33.7093 176.363 33.4002L176.524 34.3872C174.622 34.6972 172.714 34.9918 170.8 35.2708L170.656 34.2813ZM182.054 32.4237C183.951 32.0816 185.842 31.7242 187.727 31.3516L187.921 32.3326C186.031 32.7063 184.134 33.0648 182.231 33.4078L182.054 32.4237ZM193.383 30.1834C195.267 29.7775 197.146 29.3563 199.017 28.9199L199.244 29.8938C197.367 30.3314 195.483 30.7539 193.593 31.161L193.383 30.1834ZM204.628 27.5611C206.498 27.0913 208.361 26.6064 210.217 26.1064L210.477 27.072C208.616 27.5734 206.747 28.0598 204.871 28.531L204.628 27.5611ZM215.779 24.5568C217.631 24.0237 219.476 23.4755 221.313 22.9125L221.606 23.8686C219.764 24.4333 217.913 24.9831 216.056 25.5178L215.779 24.5568ZM226.82 21.1728C228.653 20.5764 230.478 19.9651 232.295 19.339L232.621 20.2845C230.798 20.9124 228.968 21.5255 227.129 22.1237L226.82 21.1728ZM237.737 17.4112C239.549 16.7518 241.352 16.0777 243.146 15.3891L243.505 16.3227C241.705 17.0134 239.896 17.6895 238.079 18.3508L237.737 17.4112ZM248.519 13.2739C250.306 12.5523 252.084 11.8161 253.854 11.0656L254.244 11.9862C252.469 12.739 250.686 13.4774 248.893 14.2012L248.519 13.2739ZM259.15 8.76442C260.91 7.98111 262.662 7.18345 264.404 6.3716L264.826 7.278C263.079 8.09231 261.322 8.8924 259.556 9.67808L259.15 8.76442ZM269.616 3.88657C270.482 3.46468 271.345 3.03926 272.205 2.61033L272.651 3.5053C271.788 3.93554 270.923 4.36225 270.055 4.78542L269.616 3.88657Z" fill="url(#paint0_linear_70_1935)"/>
<defs>
<linearGradient id="paint0_linear_70_1935" x1="-10.485" y1="31.8094" x2="297.906" y2="15.2798" gradientUnits="userSpaceOnUse">
<stop stop-color="#966602"/>
<stop offset="0.245" stop-color="#D3BD01"/>
<stop offset="0.397897" stop-color="#F9F400"/>
<stop offset="0.565" stop-color="#F9F400"/>
<stop offset="0.835" stop-color="#BC9C01"/>
<stop offset="1" stop-color="#966602"/>
</linearGradient>
</defs>
</svg>
