<svg width="80" height="81" viewBox="0 0 80 81" fill="none" xmlns="http://www.w3.org/2000/svg">
<rect y="0.360352" width="80" height="80" rx="40" fill="#A38604" fill-opacity="0.15"/>
<path d="M36.9071 32.8247L50.7743 21.463C51.2701 21.0441 51.8627 20.7101 52.5176 20.4806C53.1725 20.2511 53.8765 20.1306 54.5888 20.1261C55.301 20.1217 56.0072 20.2333 56.6663 20.4546C57.3254 20.6759 57.9241 21.0025 58.4277 21.4152C58.9313 21.8279 59.3296 22.3185 59.5995 22.8586C59.8694 23.3987 60.0055 23.9773 59.9998 24.5609C59.9942 25.1444 59.8469 25.7212 59.5665 26.2577C59.2862 26.7942 58.8784 27.2796 58.3669 27.6857L44.502 39.0454C43.6924 39.7073 42.6793 40.1775 41.5702 40.4062L37.2712 41.2858C36.8433 41.3738 36.3949 41.3694 35.9697 41.2731C35.5445 41.1768 35.157 40.9919 34.845 40.7365C34.5329 40.481 34.307 40.1636 34.1892 39.8153C34.0713 39.467 34.0656 39.0997 34.1726 38.749L35.2486 35.2268C35.5258 34.3164 36.099 33.4868 36.9071 32.8247ZM35.2462 31.4639L45.8081 22.8103C44.9462 22.3455 43.9365 22.0985 42.9046 22.1001H25.2857C23.8838 22.1001 22.5394 22.5564 21.5481 23.3685C20.5569 24.1807 20 25.2822 20 26.4308V56.2641C20 57.4126 20.5569 58.5142 21.5481 59.3263C22.5394 60.1385 23.8838 60.5947 25.2857 60.5947H42.9046C44.3064 60.5947 45.6508 60.1385 46.6421 59.3263C47.6333 58.5142 48.1902 57.4126 48.1902 56.2641V38.7452L46.1629 40.4062C45.0525 41.3146 43.6628 41.9597 42.1411 42.2732L37.8421 43.1528C34.2478 43.89 30.9965 41.2242 31.8939 38.2833L32.9698 34.7591C33.3504 33.5118 34.1374 32.3724 35.2486 31.4639M37.0316 52.8958C37.4989 52.8958 37.947 53.0479 38.2774 53.3186C38.6079 53.5893 38.7935 53.9565 38.7935 54.3394C38.7935 54.7222 38.6079 55.0894 38.2774 55.3601C37.947 55.6308 37.4989 55.7829 37.0316 55.7829H31.1586C30.6913 55.7829 30.2432 55.6308 29.9128 55.3601C29.5824 55.0894 29.3967 54.7222 29.3967 54.3394C29.3967 53.9565 29.5824 53.5893 29.9128 53.3186C30.2432 53.0479 30.6913 52.8958 31.1586 52.8958H37.0316Z" fill="url(#paint0_linear_192_293)"/>
<defs>
<linearGradient id="paint0_linear_192_293" x1="20" y1="45.7509" x2="59.9961" y2="46.5672" gradientUnits="userSpaceOnUse">
<stop offset="0.205" stop-color="#935600"/>
<stop offset="0.525" stop-color="#9E9B11"/>
<stop offset="0.77" stop-color="#966602"/>
</linearGradient>
</defs>
</svg>
