<svg width="80" height="81" viewBox="0 0 80 81" fill="none" xmlns="http://www.w3.org/2000/svg">
<rect y="0.360352" width="80" height="80" rx="40" fill="#A38604" fill-opacity="0.15"/>
<path d="M34.296 20.4629L32.5471 34.4189H36.3856L40.7892 21.2737L34.296 20.4629ZM42.5202 21.1804L38.0897 34.4189L51.5157 34.4279L54.5919 25.2252L42.5202 21.1804ZM32.4664 22.1346L26.0179 22.8378L27.2825 34.4189H30.9327L32.4664 22.1346ZM22.0628 31.7284C21.0314 31.7284 20.3426 32.5176 20.1552 33.271C20.0619 33.6476 20.1148 33.9526 20.2206 34.123C20.3256 34.2844 20.4709 34.4189 20.9865 34.4189H25.6592L25.3632 31.7284H22.0628ZM54.1166 31.7284L53.2197 34.4189H57.4798C57.2466 33.9705 57.148 33.4952 57.2108 33.0198C57.2735 32.5535 57.4529 32.1319 57.6861 31.7284H54.1166ZM20 36.0333V58.1768C20 58.6342 20.2502 59.1723 20.661 59.5849C21.0726 59.9974 21.6143 60.2485 22.0628 60.2485L56.5022 60.2575C56.9507 60.2575 57.4888 60.0064 57.9013 59.5938C58.3139 59.1813 58.565 58.6432 58.565 58.1858V51.818H50.7623C46.8161 51.818 46.8161 44.4638 50.7623 44.4638H58.565V36.0423L20 36.0333ZM50.7623 46.0781C48.9686 46.0781 48.9686 50.2037 50.7623 50.2037H52.7623C51.9552 49.8629 51.3901 49.0647 51.3901 48.1409C51.3901 47.2172 51.9552 46.4189 52.7623 46.0781H50.7623ZM54.5022 46.0781C55.3094 46.4189 55.8744 47.2172 55.8744 48.1409C55.8744 49.0647 55.3094 49.8629 54.5022 50.2037H60V46.0781H54.5022ZM53.6323 47.5131C53.2735 47.5131 53.0045 47.7822 53.0045 48.1409C53.0045 48.4997 53.2735 48.7687 53.6323 48.7687C53.991 48.7687 54.2601 48.4997 54.2601 48.1409C54.2601 47.7822 53.991 47.5131 53.6323 47.5131Z" fill="url(#paint0_linear_192_306)"/>
<defs>
<linearGradient id="paint0_linear_192_306" x1="20" y1="45.6609" x2="59.9955" y2="46.4911" gradientUnits="userSpaceOnUse">
<stop offset="0.205" stop-color="#935600"/>
<stop offset="0.525" stop-color="#9E9B11"/>
<stop offset="0.77" stop-color="#966602"/>
</linearGradient>
</defs>
</svg>
