<svg width="80" height="81" viewBox="0 0 80 81" fill="none" xmlns="http://www.w3.org/2000/svg">
<rect y="0.360352" width="80" height="80" rx="40" fill="#A38604" fill-opacity="0.15"/>
<path d="M40.1868 19.9105C40.0901 19.9112 39.9932 19.9128 39.8961 19.9152C36.477 20.0058 32.8085 21.3041 29.1322 24.2982L28.608 24.7252L28.1096 24.2686C27.0101 23.2619 26.3464 21.8658 25.8789 20.4672C25.0985 23.6829 24.6066 27.5442 25.0761 30.4258C26.647 30.5047 29.0247 30.2365 31.4848 29.7459C33.0377 29.4363 34.6194 29.0393 36.099 28.6093C34.9322 28.3561 33.8472 28.0108 32.7823 27.5586L31.3833 26.9646L32.6795 26.1709C36.7114 23.7019 39.7198 22.633 43.1347 23.0793C46.0134 23.4556 49.1657 24.8939 53.4883 27.1899C51.2819 24.0321 48.0758 21.5606 44.3815 20.4947C43.0422 20.1084 41.6377 19.901 40.1868 19.9105ZM47.8261 28.1868C43.7681 28.1868 43.7682 28.1868 43.7682 32.2447V48.4825C43.7682 49.3169 43.7688 49.9773 43.8042 50.5035C45.258 50.0918 46.7274 49.7372 48.209 49.4406C50.3524 49.0133 52.4149 48.7255 54.1148 48.7093C54.6815 48.7039 55.2079 48.7288 55.6836 48.7886L56.2323 48.8576L56.3503 49.3979C56.5646 50.3774 56.6697 51.4367 56.6907 52.5334C59.9978 52.5169 60 52.2673 60 48.4769V32.2446C60 28.1868 60 28.1868 55.9421 28.1868C56.0616 28.4061 56.1769 28.6275 56.288 28.8512L57.3857 31.0717L55.2115 29.8849C54.0737 29.2638 53.0233 28.6995 52.0417 28.1868H47.8261ZM23.3093 28.1882C20.0022 28.2047 20 28.4543 20 32.2447V48.4825C20 52.5346 20 52.5346 24.0579 52.5346C23.9384 52.3154 23.8231 52.0939 23.712 51.8703L22.6143 49.6498L24.7885 50.8366C25.9263 51.4577 26.9767 52.022 27.9583 52.5346H32.1739C36.2319 52.5346 36.2318 52.5346 36.2318 48.4767V32.2447C36.2318 31.4077 36.2313 30.7456 36.1957 30.2183C34.7419 30.6299 33.2725 30.9844 31.791 31.2809C28.9331 31.8508 26.219 32.1722 24.3164 31.9329L23.7677 31.8639L23.6497 31.3237C23.4354 30.3441 23.3303 29.2849 23.3093 28.1882ZM54.1457 50.2819C52.6203 50.3037 50.5957 50.5607 48.5153 50.9756C46.9623 51.2852 45.3805 51.6821 43.901 52.1123C45.0678 52.3653 46.1528 52.7106 47.2177 53.1629L48.6167 53.757L47.3205 54.5506C43.2886 57.0195 40.2802 58.0885 36.8653 57.6422C33.9866 57.2659 30.8343 55.8276 26.5117 53.5316C28.7181 56.6894 31.9242 59.161 35.6185 60.2267C40.1901 61.5455 45.5204 60.7783 50.8678 56.4233L51.392 55.9963L51.8904 56.4528C52.9899 57.4597 53.6536 58.8557 54.1211 60.2543C54.9015 57.0386 55.3934 53.1773 54.9239 50.2957C54.6815 50.2835 54.4241 50.2779 54.1457 50.2819H54.1457Z" fill="url(#paint0_linear_192_309)"/>
<defs>
<linearGradient id="paint0_linear_192_309" x1="20" y1="45.8088" x2="59.9964" y2="46.6165" gradientUnits="userSpaceOnUse">
<stop offset="0.205" stop-color="#935600"/>
<stop offset="0.525" stop-color="#9E9B11"/>
<stop offset="0.77" stop-color="#966602"/>
</linearGradient>
</defs>
</svg>
