<svg width="118" height="109" viewBox="0 0 118 109" fill="none" xmlns="http://www.w3.org/2000/svg">
<g filter="url(#filter0_f_192_236)">
<path d="M4.6814 29.9399C4.6814 16.1328 15.8743 4.93994 29.6814 4.93994H113.563V79.9399C113.563 93.7471 102.371 104.94 88.5634 104.94H4.6814V29.9399Z" fill="black" fill-opacity="0.5"/>
</g>
<path d="M4.6814 29.9399C4.6814 16.1328 15.8743 4.93994 29.6814 4.93994H88.5634C102.371 4.93994 113.563 16.1328 113.563 29.9399V79.9399C113.563 93.7471 102.371 104.94 88.5634 104.94H4.6814V29.9399Z" fill="url(#paint0_linear_192_236)"/>
<g style="mix-blend-mode:overlay">
<mask id="mask0_192_236" style="mask-type:alpha" maskUnits="userSpaceOnUse" x="4" y="4" width="110" height="101">
<rect x="4.6814" y="4.93994" width="108.882" height="100" rx="25" fill="url(#paint1_linear_192_236)"/>
</mask>
<g mask="url(#mask0_192_236)">
<path opacity="0.3" d="M4.6814 4.93994H113.563V104.94L56.4004 55.9399L4.6814 4.93994Z" fill="url(#paint2_linear_192_236)"/>
</g>
</g>
<path fill-rule="evenodd" clip-rule="evenodd" d="M85.6764 49.6838L85.6848 59.8794C85.6117 60.8512 85.5189 61.8211 85.4064 62.7891C85.3068 63.5871 84.9411 64.3281 84.3686 64.8924C83.796 65.4567 83.05 65.8112 82.2512 65.8987C77.0768 66.4784 71.7225 66.4784 66.5482 65.8987C65.7493 65.8112 65.0033 65.4567 64.4308 64.8924C63.8582 64.3281 63.4926 63.5871 63.3929 62.7891C62.7738 57.5017 62.7738 52.16 63.3929 46.8726C63.4926 46.0746 63.8582 45.3336 64.4308 44.7693C65.0033 44.205 65.7493 43.8505 66.5482 43.763C71.7666 43.1855 77.0327 43.1855 82.2512 43.763C83.9019 43.9459 85.218 45.2544 85.4064 46.8726C85.5151 47.8087 85.6051 48.7468 85.6764 49.6867M74.3997 50.6097C73.2809 50.6097 72.208 51.0544 71.4169 51.846C70.6259 52.6377 70.1814 53.7113 70.1814 54.8308C70.1814 55.9504 70.6259 57.024 71.4169 57.8157C72.208 58.6073 73.2809 59.052 74.3997 59.052C75.5184 59.052 76.5913 58.6073 77.3824 57.8157C78.1735 57.024 78.6179 55.9504 78.6179 54.8308C78.6179 53.7113 78.1735 52.6377 77.3824 51.846C76.5913 51.0544 75.5184 50.6097 74.3997 50.6097Z" fill="#FFFDF0"/>
<path d="M83.972 38.059C84.4079 38.816 83.5867 39.6631 82.7178 39.5674C77.189 38.9576 71.61 38.9576 66.0811 39.5674C64.3344 39.7605 62.7042 40.5389 61.4555 41.7763C60.2067 43.0136 59.4128 44.6372 59.2026 46.3832C58.5506 51.9962 58.5506 57.666 59.2026 63.279C59.4128 65.025 60.2067 66.6486 61.4555 67.8859C62.7042 69.1233 64.3344 69.9017 66.0811 70.0948C71.61 70.7046 77.189 70.7046 82.7178 70.0948C83.5924 69.9963 84.4219 70.8518 83.9804 71.6144C82.8764 73.5201 81.3381 75.1379 79.4909 76.336C77.6437 77.5341 75.5398 78.2787 73.3505 78.509L71.517 78.7003C62.2063 79.6791 52.8155 79.614 43.5193 78.5062L42.3045 78.3627C39.8675 78.0729 37.5962 76.9798 35.8488 75.2555C34.1013 73.5313 32.977 71.2741 32.6532 68.8397C31.4122 59.5419 31.4122 50.1203 32.6532 40.8225C32.977 38.3882 34.1013 36.1309 35.8488 34.4067C37.5962 32.6824 39.8675 31.5893 42.3045 31.2995L43.5193 31.156C52.8155 30.0482 62.2063 29.9831 71.517 30.9619L73.3505 31.156C75.5397 31.3863 77.6433 32.1319 79.4893 33.3316C81.3354 34.5314 82.8715 36.1513 83.972 38.059Z" fill="#FFFDF0"/>
<defs>
<filter id="filter0_f_192_236" x="0.681396" y="0.939941" width="116.882" height="108" filterUnits="userSpaceOnUse" color-interpolation-filters="sRGB">
<feFlood flood-opacity="0" result="BackgroundImageFix"/>
<feBlend mode="normal" in="SourceGraphic" in2="BackgroundImageFix" result="shape"/>
<feGaussianBlur stdDeviation="2" result="effect1_foregroundBlur_192_236"/>
</filter>
<linearGradient id="paint0_linear_192_236" x1="-0.971237" y1="55.9734" x2="123.558" y2="55.9734" gradientUnits="userSpaceOnUse">
<stop stop-color="#966602"/>
<stop offset="0.397897" stop-color="#A38604"/>
<stop offset="0.565" stop-color="#B79E26"/>
<stop offset="1" stop-color="#966602"/>
</linearGradient>
<linearGradient id="paint1_linear_192_236" x1="7.21354" y1="52.3084" x2="109.765" y2="52.3084" gradientUnits="userSpaceOnUse">
<stop stop-color="#07569E"/>
<stop offset="1" stop-color="#0093DD"/>
</linearGradient>
<linearGradient id="paint2_linear_192_236" x1="107.03" y1="96.4399" x2="0.48832" y2="-27.1191" gradientUnits="userSpaceOnUse">
<stop offset="0.116225" stop-color="white" stop-opacity="0"/>
<stop offset="1" stop-color="white"/>
</linearGradient>
</defs>
</svg>
