<svg width="401" height="555" viewBox="0 0 401 555" fill="none" xmlns="http://www.w3.org/2000/svg">
<g opacity="0.7">
<path d="M384.494 209.393C386.818 209.494 389.095 210.079 391.18 211.109C393.265 212.14 395.113 213.594 396.605 215.379C398.097 217.164 399.2 219.24 399.845 221.475C400.489 223.71 400.661 226.055 400.349 228.36C395.55 263.779 381.385 297.275 359.317 325.392C337.25 353.508 308.078 375.226 274.814 388.303C241.549 401.381 205.398 405.344 170.091 399.783C134.783 394.223 101.599 379.341 73.9644 356.673C72.166 355.197 70.6948 353.364 69.6448 351.288C68.5947 349.212 67.9888 346.941 67.8658 344.618C67.7428 342.295 68.1054 339.972 68.9303 337.797C69.7553 335.622 71.0246 333.643 72.6572 331.986L153.417 250.025C156.046 247.357 159.494 245.648 163.209 245.171C166.924 244.695 170.692 245.478 173.909 247.396C180.933 251.584 188.822 254.107 196.973 254.773C205.123 255.439 213.318 254.23 220.928 251.238C228.539 248.246 235.363 243.551 240.878 237.512C246.393 231.474 250.452 224.253 252.743 216.404C253.793 212.808 256.018 209.669 259.063 207.488C262.108 205.307 265.797 204.21 269.539 204.373L384.494 209.393Z" fill="#F9F400"/>
<path d="M61.7652 320.274C59.9944 321.782 57.9286 322.904 55.6997 323.57C53.4707 324.235 51.1276 324.428 48.8198 324.137C46.512 323.846 44.2901 323.078 42.2961 321.88C40.302 320.682 38.5795 319.082 37.2384 317.182C8.05173 275.818 -4.43692 224.957 2.27196 174.779C8.98083 124.602 34.3923 78.8084 73.4204 46.5651C75.2136 45.0836 77.296 43.9921 79.5346 43.3604C81.7733 42.7287 84.119 42.5706 86.4222 42.8962C88.7254 43.2218 90.9354 44.0238 92.9112 45.2513C94.8871 46.4787 96.5854 48.1046 97.8978 50.0251L162.816 145.028C164.929 148.12 165.944 151.832 165.698 155.569C165.452 159.307 163.959 162.854 161.459 165.642C154.279 173.651 149.676 183.636 148.251 194.297C146.825 204.958 148.643 215.802 153.467 225.415C155.147 228.763 155.656 232.577 154.911 236.248C154.167 239.919 152.213 243.234 149.361 245.663L61.7652 320.274Z" fill="#2CA69E"/>
<path d="M111.484 41.5865C110.344 39.5589 109.639 37.3159 109.415 35.0007C109.19 32.6855 109.451 30.3489 110.179 28.14C110.908 25.9311 112.09 23.8984 113.648 22.1715C115.207 20.4447 117.108 19.0617 119.231 18.1108C154.052 2.51227 192.597 -2.84397 230.352 2.66909C268.107 8.18214 303.511 24.3363 332.418 49.2406C334.18 50.7588 335.607 52.6277 336.606 54.7281C337.606 56.8284 338.157 59.1141 338.223 61.4392C338.29 63.7644 337.872 66.0779 336.994 68.2322C336.117 70.3865 334.8 72.3343 333.128 73.9512L250.411 153.937C247.719 156.541 244.231 158.166 240.505 158.553C236.78 158.94 233.032 158.065 229.862 156.07C223.543 152.092 216.461 149.48 209.072 148.401C201.683 147.322 194.15 147.801 186.957 149.805C183.349 150.811 179.508 150.577 176.048 149.141C172.589 147.705 169.711 145.15 167.876 141.885L111.484 41.5865Z" fill="#CD4356"/>
<path d="M343.734 85.9224C345.541 84.4573 347.633 83.3849 349.877 82.7737C352.122 82.1625 354.469 82.0258 356.769 82.3724C359.069 82.719 361.272 83.5413 363.236 84.7867C365.201 86.0322 366.884 87.6735 368.179 89.606C385.231 115.057 396.235 144.072 400.348 174.43C400.661 176.735 400.489 179.08 399.844 181.315C399.2 183.55 398.096 185.626 396.605 187.411C395.113 189.195 393.265 190.649 391.18 191.68C389.095 192.711 386.818 193.296 384.494 193.397L269.539 198.416C265.797 198.58 262.108 197.483 259.063 195.302C256.018 193.121 253.793 189.982 252.743 186.386C251.958 183.696 250.963 181.072 249.767 178.537C248.168 175.15 247.752 171.324 248.585 167.672C249.418 164.021 251.451 160.754 254.361 158.395L343.734 85.9224Z" fill="#01D308"/>
</g>
<rect x="56" y="434.229" width="23" height="23" rx="11.5" fill="#F9F400"/>
<path d="M104.229 449.635C104.229 449.303 104.176 449.01 104.072 448.756C103.975 448.495 103.799 448.261 103.545 448.053C103.298 447.844 102.952 447.646 102.51 447.457C102.074 447.268 101.52 447.076 100.85 446.881C100.146 446.673 99.5117 446.441 98.9453 446.188C98.3789 445.927 97.8939 445.631 97.4902 445.299C97.0866 444.967 96.7773 444.586 96.5625 444.156C96.3477 443.727 96.2402 443.235 96.2402 442.682C96.2402 442.128 96.3542 441.617 96.582 441.148C96.8099 440.68 97.1354 440.273 97.5586 439.928C97.9883 439.576 98.4993 439.303 99.0918 439.107C99.6842 438.912 100.345 438.814 101.074 438.814C102.142 438.814 103.047 439.02 103.789 439.43C104.538 439.833 105.107 440.364 105.498 441.021C105.889 441.673 106.084 442.369 106.084 443.111H104.209C104.209 442.577 104.095 442.105 103.867 441.695C103.639 441.279 103.294 440.953 102.832 440.719C102.37 440.478 101.784 440.357 101.074 440.357C100.404 440.357 99.8503 440.458 99.4141 440.66C98.9779 440.862 98.6523 441.135 98.4375 441.48C98.2292 441.826 98.125 442.219 98.125 442.662C98.125 442.962 98.1868 443.235 98.3105 443.482C98.4408 443.723 98.6393 443.948 98.9062 444.156C99.1797 444.365 99.5247 444.557 99.9414 444.732C100.365 444.908 100.869 445.077 101.455 445.24C102.262 445.468 102.959 445.722 103.545 446.002C104.131 446.282 104.613 446.598 104.99 446.949C105.374 447.294 105.658 447.688 105.84 448.131C106.029 448.567 106.123 449.062 106.123 449.615C106.123 450.195 106.006 450.719 105.771 451.188C105.537 451.656 105.202 452.057 104.766 452.389C104.329 452.721 103.805 452.978 103.193 453.16C102.588 453.336 101.911 453.424 101.162 453.424C100.505 453.424 99.8568 453.333 99.2188 453.15C98.5872 452.968 98.0111 452.695 97.4902 452.33C96.9759 451.965 96.5625 451.516 96.25 450.982C95.944 450.442 95.791 449.817 95.791 449.107H97.666C97.666 449.596 97.7604 450.016 97.9492 450.367C98.138 450.712 98.3952 450.999 98.7207 451.227C99.0527 451.454 99.4271 451.624 99.8438 451.734C100.267 451.839 100.706 451.891 101.162 451.891C101.82 451.891 102.376 451.799 102.832 451.617C103.288 451.435 103.633 451.174 103.867 450.836C104.108 450.497 104.229 450.097 104.229 449.635ZM112.637 453.424C111.901 453.424 111.234 453.3 110.635 453.053C110.042 452.799 109.531 452.444 109.102 451.988C108.678 451.533 108.353 450.992 108.125 450.367C107.897 449.742 107.783 449.059 107.783 448.316V447.906C107.783 447.047 107.91 446.282 108.164 445.611C108.418 444.934 108.763 444.361 109.199 443.893C109.635 443.424 110.13 443.069 110.684 442.828C111.237 442.587 111.81 442.467 112.402 442.467C113.158 442.467 113.809 442.597 114.355 442.857C114.909 443.118 115.361 443.482 115.713 443.951C116.064 444.413 116.325 444.96 116.494 445.592C116.663 446.217 116.748 446.9 116.748 447.643V448.453H108.857V446.979H114.941V446.842C114.915 446.373 114.818 445.917 114.648 445.475C114.486 445.032 114.225 444.667 113.867 444.381C113.509 444.094 113.021 443.951 112.402 443.951C111.992 443.951 111.615 444.039 111.27 444.215C110.924 444.384 110.628 444.638 110.381 444.977C110.133 445.315 109.941 445.729 109.805 446.217C109.668 446.705 109.6 447.268 109.6 447.906V448.316C109.6 448.818 109.668 449.29 109.805 449.732C109.948 450.169 110.153 450.553 110.42 450.885C110.693 451.217 111.022 451.477 111.406 451.666C111.797 451.855 112.24 451.949 112.734 451.949C113.372 451.949 113.913 451.819 114.355 451.559C114.798 451.298 115.186 450.95 115.518 450.514L116.611 451.383C116.383 451.728 116.094 452.057 115.742 452.369C115.391 452.682 114.958 452.936 114.443 453.131C113.936 453.326 113.333 453.424 112.637 453.424ZM123.242 453.424C122.507 453.424 121.839 453.3 121.24 453.053C120.648 452.799 120.137 452.444 119.707 451.988C119.284 451.533 118.958 450.992 118.73 450.367C118.503 449.742 118.389 449.059 118.389 448.316V447.906C118.389 447.047 118.516 446.282 118.77 445.611C119.023 444.934 119.368 444.361 119.805 443.893C120.241 443.424 120.736 443.069 121.289 442.828C121.842 442.587 122.415 442.467 123.008 442.467C123.763 442.467 124.414 442.597 124.961 442.857C125.514 443.118 125.967 443.482 126.318 443.951C126.67 444.413 126.93 444.96 127.1 445.592C127.269 446.217 127.354 446.9 127.354 447.643V448.453H119.463V446.979H125.547V446.842C125.521 446.373 125.423 445.917 125.254 445.475C125.091 445.032 124.831 444.667 124.473 444.381C124.115 444.094 123.626 443.951 123.008 443.951C122.598 443.951 122.22 444.039 121.875 444.215C121.53 444.384 121.234 444.638 120.986 444.977C120.739 445.315 120.547 445.729 120.41 446.217C120.273 446.705 120.205 447.268 120.205 447.906V448.316C120.205 448.818 120.273 449.29 120.41 449.732C120.553 450.169 120.758 450.553 121.025 450.885C121.299 451.217 121.628 451.477 122.012 451.666C122.402 451.855 122.845 451.949 123.34 451.949C123.978 451.949 124.518 451.819 124.961 451.559C125.404 451.298 125.791 450.95 126.123 450.514L127.217 451.383C126.989 451.728 126.699 452.057 126.348 452.369C125.996 452.682 125.563 452.936 125.049 453.131C124.541 453.326 123.939 453.424 123.242 453.424ZM136.123 451.178V438.229H137.939V453.229H136.279L136.123 451.178ZM129.014 448.062V447.857C129.014 447.05 129.111 446.318 129.307 445.66C129.508 444.996 129.792 444.426 130.156 443.951C130.527 443.476 130.967 443.111 131.475 442.857C131.989 442.597 132.562 442.467 133.193 442.467C133.857 442.467 134.437 442.584 134.932 442.818C135.433 443.046 135.856 443.382 136.201 443.824C136.553 444.26 136.829 444.788 137.031 445.406C137.233 446.025 137.373 446.725 137.451 447.506V448.404C137.38 449.179 137.24 449.876 137.031 450.494C136.829 451.113 136.553 451.64 136.201 452.076C135.856 452.512 135.433 452.848 134.932 453.082C134.43 453.31 133.844 453.424 133.174 453.424C132.555 453.424 131.989 453.29 131.475 453.023C130.967 452.757 130.527 452.382 130.156 451.9C129.792 451.419 129.508 450.852 129.307 450.201C129.111 449.544 129.014 448.831 129.014 448.062ZM130.83 447.857V448.062C130.83 448.59 130.882 449.085 130.986 449.547C131.097 450.009 131.266 450.416 131.494 450.768C131.722 451.119 132.012 451.396 132.363 451.598C132.715 451.793 133.135 451.891 133.623 451.891C134.222 451.891 134.714 451.764 135.098 451.51C135.488 451.256 135.801 450.921 136.035 450.504C136.27 450.087 136.452 449.635 136.582 449.146V446.793C136.504 446.435 136.39 446.09 136.24 445.758C136.097 445.419 135.908 445.12 135.674 444.859C135.446 444.592 135.163 444.381 134.824 444.225C134.492 444.068 134.098 443.99 133.643 443.99C133.148 443.99 132.721 444.094 132.363 444.303C132.012 444.505 131.722 444.785 131.494 445.143C131.266 445.494 131.097 445.904 130.986 446.373C130.882 446.835 130.83 447.33 130.83 447.857ZM151.865 450.426C151.865 450.165 151.807 449.924 151.689 449.703C151.579 449.475 151.348 449.27 150.996 449.088C150.651 448.899 150.13 448.736 149.434 448.6C148.848 448.476 148.317 448.329 147.842 448.16C147.373 447.991 146.973 447.786 146.641 447.545C146.315 447.304 146.064 447.021 145.889 446.695C145.713 446.37 145.625 445.989 145.625 445.553C145.625 445.136 145.716 444.742 145.898 444.371C146.087 444 146.351 443.671 146.689 443.385C147.035 443.098 147.448 442.874 147.93 442.711C148.411 442.548 148.949 442.467 149.541 442.467C150.387 442.467 151.11 442.617 151.709 442.916C152.308 443.215 152.767 443.616 153.086 444.117C153.405 444.612 153.564 445.162 153.564 445.768H151.758C151.758 445.475 151.67 445.191 151.494 444.918C151.325 444.638 151.074 444.407 150.742 444.225C150.417 444.042 150.016 443.951 149.541 443.951C149.04 443.951 148.633 444.029 148.32 444.186C148.014 444.335 147.79 444.527 147.646 444.762C147.51 444.996 147.441 445.243 147.441 445.504C147.441 445.699 147.474 445.875 147.539 446.031C147.611 446.181 147.734 446.321 147.91 446.451C148.086 446.575 148.333 446.692 148.652 446.803C148.971 446.913 149.378 447.024 149.873 447.135C150.739 447.33 151.452 447.564 152.012 447.838C152.572 448.111 152.988 448.447 153.262 448.844C153.535 449.241 153.672 449.723 153.672 450.289C153.672 450.751 153.574 451.174 153.379 451.559C153.19 451.943 152.913 452.275 152.549 452.555C152.191 452.828 151.761 453.043 151.26 453.199C150.765 453.349 150.208 453.424 149.59 453.424C148.659 453.424 147.871 453.258 147.227 452.926C146.582 452.594 146.094 452.164 145.762 451.637C145.43 451.109 145.264 450.553 145.264 449.967H147.08C147.106 450.462 147.249 450.855 147.51 451.148C147.77 451.435 148.089 451.64 148.467 451.764C148.844 451.881 149.219 451.939 149.59 451.939C150.085 451.939 150.498 451.874 150.83 451.744C151.169 451.614 151.426 451.435 151.602 451.207C151.777 450.979 151.865 450.719 151.865 450.426ZM162.275 451.422V445.982C162.275 445.566 162.191 445.204 162.021 444.898C161.859 444.586 161.611 444.345 161.279 444.176C160.947 444.007 160.537 443.922 160.049 443.922C159.593 443.922 159.193 444 158.848 444.156C158.509 444.312 158.242 444.518 158.047 444.771C157.858 445.025 157.764 445.299 157.764 445.592H155.957C155.957 445.214 156.055 444.84 156.25 444.469C156.445 444.098 156.725 443.762 157.09 443.463C157.461 443.157 157.904 442.916 158.418 442.74C158.939 442.558 159.518 442.467 160.156 442.467C160.924 442.467 161.602 442.597 162.188 442.857C162.78 443.118 163.242 443.512 163.574 444.039C163.913 444.56 164.082 445.214 164.082 446.002V450.924C164.082 451.275 164.111 451.65 164.17 452.047C164.235 452.444 164.329 452.786 164.453 453.072V453.229H162.568C162.477 453.02 162.406 452.743 162.354 452.398C162.301 452.047 162.275 451.721 162.275 451.422ZM162.588 446.822L162.607 448.092H160.781C160.267 448.092 159.808 448.134 159.404 448.219C159.001 448.297 158.662 448.417 158.389 448.58C158.115 448.743 157.907 448.948 157.764 449.195C157.62 449.436 157.549 449.719 157.549 450.045C157.549 450.377 157.624 450.68 157.773 450.953C157.923 451.227 158.148 451.445 158.447 451.607C158.753 451.764 159.128 451.842 159.57 451.842C160.124 451.842 160.612 451.725 161.035 451.49C161.458 451.256 161.794 450.969 162.041 450.631C162.295 450.292 162.432 449.964 162.451 449.645L163.223 450.514C163.177 450.787 163.053 451.09 162.852 451.422C162.65 451.754 162.38 452.073 162.041 452.379C161.709 452.678 161.312 452.929 160.85 453.131C160.394 453.326 159.88 453.424 159.307 453.424C158.59 453.424 157.962 453.284 157.422 453.004C156.888 452.724 156.471 452.35 156.172 451.881C155.879 451.406 155.732 450.875 155.732 450.289C155.732 449.723 155.843 449.225 156.064 448.795C156.286 448.359 156.605 447.997 157.021 447.711C157.438 447.418 157.939 447.197 158.525 447.047C159.111 446.897 159.766 446.822 160.488 446.822H162.588ZM168.887 438.229V453.229H167.07V438.229H168.887ZM176.172 453.424C175.436 453.424 174.769 453.3 174.17 453.053C173.577 452.799 173.066 452.444 172.637 451.988C172.214 451.533 171.888 450.992 171.66 450.367C171.432 449.742 171.318 449.059 171.318 448.316V447.906C171.318 447.047 171.445 446.282 171.699 445.611C171.953 444.934 172.298 444.361 172.734 443.893C173.171 443.424 173.665 443.069 174.219 442.828C174.772 442.587 175.345 442.467 175.938 442.467C176.693 442.467 177.344 442.597 177.891 442.857C178.444 443.118 178.896 443.482 179.248 443.951C179.6 444.413 179.86 444.96 180.029 445.592C180.199 446.217 180.283 446.9 180.283 447.643V448.453H172.393V446.979H178.477V446.842C178.451 446.373 178.353 445.917 178.184 445.475C178.021 445.032 177.76 444.667 177.402 444.381C177.044 444.094 176.556 443.951 175.938 443.951C175.527 443.951 175.15 444.039 174.805 444.215C174.46 444.384 174.163 444.638 173.916 444.977C173.669 445.315 173.477 445.729 173.34 446.217C173.203 446.705 173.135 447.268 173.135 447.906V448.316C173.135 448.818 173.203 449.29 173.34 449.732C173.483 450.169 173.688 450.553 173.955 450.885C174.229 451.217 174.557 451.477 174.941 451.666C175.332 451.855 175.775 451.949 176.27 451.949C176.908 451.949 177.448 451.819 177.891 451.559C178.333 451.298 178.721 450.95 179.053 450.514L180.146 451.383C179.919 451.728 179.629 452.057 179.277 452.369C178.926 452.682 178.493 452.936 177.979 453.131C177.471 453.326 176.868 453.424 176.172 453.424ZM188.545 450.426C188.545 450.165 188.486 449.924 188.369 449.703C188.258 449.475 188.027 449.27 187.676 449.088C187.331 448.899 186.81 448.736 186.113 448.6C185.527 448.476 184.997 448.329 184.521 448.16C184.053 447.991 183.652 447.786 183.32 447.545C182.995 447.304 182.744 447.021 182.568 446.695C182.393 446.37 182.305 445.989 182.305 445.553C182.305 445.136 182.396 444.742 182.578 444.371C182.767 444 183.031 443.671 183.369 443.385C183.714 443.098 184.128 442.874 184.609 442.711C185.091 442.548 185.628 442.467 186.221 442.467C187.067 442.467 187.79 442.617 188.389 442.916C188.988 443.215 189.447 443.616 189.766 444.117C190.085 444.612 190.244 445.162 190.244 445.768H188.438C188.438 445.475 188.35 445.191 188.174 444.918C188.005 444.638 187.754 444.407 187.422 444.225C187.096 444.042 186.696 443.951 186.221 443.951C185.719 443.951 185.312 444.029 185 444.186C184.694 444.335 184.469 444.527 184.326 444.762C184.189 444.996 184.121 445.243 184.121 445.504C184.121 445.699 184.154 445.875 184.219 446.031C184.29 446.181 184.414 446.321 184.59 446.451C184.766 446.575 185.013 446.692 185.332 446.803C185.651 446.913 186.058 447.024 186.553 447.135C187.419 447.33 188.132 447.564 188.691 447.838C189.251 448.111 189.668 448.447 189.941 448.844C190.215 449.241 190.352 449.723 190.352 450.289C190.352 450.751 190.254 451.174 190.059 451.559C189.87 451.943 189.593 452.275 189.229 452.555C188.87 452.828 188.441 453.043 187.939 453.199C187.445 453.349 186.888 453.424 186.27 453.424C185.339 453.424 184.551 453.258 183.906 452.926C183.262 452.594 182.773 452.164 182.441 451.637C182.109 451.109 181.943 450.553 181.943 449.967H183.76C183.786 450.462 183.929 450.855 184.189 451.148C184.45 451.435 184.769 451.64 185.146 451.764C185.524 451.881 185.898 451.939 186.27 451.939C186.764 451.939 187.178 451.874 187.51 451.744C187.848 451.614 188.105 451.435 188.281 451.207C188.457 450.979 188.545 450.719 188.545 450.426ZM197.617 447.545V447.447C197.617 446.028 197.777 444.745 198.096 443.6C198.415 442.447 198.822 441.438 199.316 440.572C199.811 439.706 200.332 438.99 200.879 438.424C201.426 437.851 201.93 437.438 202.393 437.184L202.773 438.375C202.389 438.668 201.999 439.072 201.602 439.586C201.211 440.1 200.85 440.732 200.518 441.48C200.192 442.229 199.928 443.098 199.727 444.088C199.525 445.077 199.424 446.191 199.424 447.428V447.564C199.424 448.801 199.525 449.918 199.727 450.914C199.928 451.904 200.192 452.776 200.518 453.531C200.85 454.286 201.211 454.928 201.602 455.455C201.999 455.989 202.389 456.412 202.773 456.725L202.393 457.818C201.93 457.564 201.426 457.151 200.879 456.578C200.332 456.012 199.811 455.296 199.316 454.43C198.822 453.57 198.415 452.564 198.096 451.412C197.777 450.26 197.617 448.971 197.617 447.545ZM213.955 448.443V449.928H203.682V448.863L210.049 439.01H211.523L209.941 441.861L205.732 448.443H213.955ZM211.973 439.01V453.229H210.166V439.01H211.973ZM224.521 444.986V447.154C224.521 448.32 224.417 449.303 224.209 450.104C224.001 450.904 223.701 451.549 223.311 452.037C222.92 452.525 222.448 452.88 221.895 453.102C221.348 453.316 220.729 453.424 220.039 453.424C219.492 453.424 218.988 453.355 218.525 453.219C218.063 453.082 217.646 452.864 217.275 452.564C216.911 452.258 216.598 451.861 216.338 451.373C216.077 450.885 215.879 450.292 215.742 449.596C215.605 448.899 215.537 448.085 215.537 447.154V444.986C215.537 443.821 215.641 442.844 215.85 442.057C216.064 441.269 216.367 440.637 216.758 440.162C217.148 439.68 217.617 439.335 218.164 439.127C218.717 438.919 219.336 438.814 220.02 438.814C220.573 438.814 221.081 438.883 221.543 439.02C222.012 439.15 222.428 439.361 222.793 439.654C223.158 439.941 223.467 440.325 223.721 440.807C223.981 441.282 224.18 441.865 224.316 442.555C224.453 443.245 224.521 444.055 224.521 444.986ZM222.705 447.447V444.684C222.705 444.046 222.666 443.486 222.588 443.004C222.516 442.516 222.409 442.099 222.266 441.754C222.122 441.409 221.94 441.129 221.719 440.914C221.504 440.699 221.253 440.543 220.967 440.445C220.687 440.341 220.371 440.289 220.02 440.289C219.59 440.289 219.209 440.37 218.877 440.533C218.545 440.689 218.265 440.94 218.037 441.285C217.816 441.63 217.646 442.083 217.529 442.643C217.412 443.202 217.354 443.883 217.354 444.684V447.447C217.354 448.085 217.389 448.648 217.461 449.137C217.539 449.625 217.653 450.048 217.803 450.406C217.952 450.758 218.135 451.048 218.35 451.275C218.564 451.503 218.812 451.673 219.092 451.783C219.378 451.887 219.694 451.939 220.039 451.939C220.482 451.939 220.869 451.855 221.201 451.686C221.533 451.516 221.81 451.253 222.031 450.895C222.259 450.53 222.428 450.064 222.539 449.498C222.65 448.925 222.705 448.242 222.705 447.447ZM226.689 442.496V441.744C226.689 441.204 226.807 440.712 227.041 440.27C227.275 439.827 227.611 439.472 228.047 439.205C228.483 438.938 229.001 438.805 229.6 438.805C230.212 438.805 230.732 438.938 231.162 439.205C231.598 439.472 231.934 439.827 232.168 440.27C232.402 440.712 232.52 441.204 232.52 441.744V442.496C232.52 443.023 232.402 443.508 232.168 443.951C231.94 444.394 231.608 444.749 231.172 445.016C230.742 445.283 230.225 445.416 229.619 445.416C229.014 445.416 228.49 445.283 228.047 445.016C227.611 444.749 227.275 444.394 227.041 443.951C226.807 443.508 226.689 443.023 226.689 442.496ZM228.047 441.744V442.496C228.047 442.796 228.102 443.079 228.213 443.346C228.33 443.613 228.506 443.831 228.74 444C228.975 444.163 229.268 444.244 229.619 444.244C229.971 444.244 230.26 444.163 230.488 444C230.716 443.831 230.885 443.613 230.996 443.346C231.107 443.079 231.162 442.796 231.162 442.496V441.744C231.162 441.438 231.104 441.152 230.986 440.885C230.876 440.611 230.703 440.393 230.469 440.23C230.241 440.061 229.951 439.977 229.6 439.977C229.255 439.977 228.965 440.061 228.73 440.23C228.503 440.393 228.33 440.611 228.213 440.885C228.102 441.152 228.047 441.438 228.047 441.744ZM233.613 450.504V449.742C233.613 449.208 233.73 448.72 233.965 448.277C234.199 447.835 234.535 447.48 234.971 447.213C235.407 446.946 235.924 446.812 236.523 446.812C237.135 446.812 237.656 446.946 238.086 447.213C238.522 447.48 238.857 447.835 239.092 448.277C239.326 448.72 239.443 449.208 239.443 449.742V450.504C239.443 451.038 239.326 451.526 239.092 451.969C238.864 452.411 238.532 452.766 238.096 453.033C237.666 453.3 237.148 453.434 236.543 453.434C235.938 453.434 235.417 453.3 234.98 453.033C234.544 452.766 234.206 452.411 233.965 451.969C233.73 451.526 233.613 451.038 233.613 450.504ZM234.971 449.742V450.504C234.971 450.803 235.026 451.09 235.137 451.363C235.254 451.63 235.43 451.848 235.664 452.018C235.898 452.18 236.191 452.262 236.543 452.262C236.895 452.262 237.184 452.18 237.412 452.018C237.646 451.848 237.819 451.63 237.93 451.363C238.04 451.096 238.096 450.81 238.096 450.504V449.742C238.096 449.436 238.037 449.15 237.92 448.883C237.809 448.616 237.637 448.401 237.402 448.238C237.174 448.069 236.882 447.984 236.523 447.984C236.178 447.984 235.889 448.069 235.654 448.238C235.426 448.401 235.254 448.616 235.137 448.883C235.026 449.15 234.971 449.436 234.971 449.742ZM236.973 441.031L230.029 452.145L229.014 451.5L235.957 440.387L236.973 441.031ZM245.85 447.447V447.545C245.85 448.971 245.69 450.26 245.371 451.412C245.052 452.564 244.645 453.57 244.15 454.43C243.656 455.296 243.135 456.012 242.588 456.578C242.041 457.151 241.536 457.564 241.074 457.818L240.693 456.725C241.077 456.432 241.465 456.021 241.855 455.494C242.246 454.973 242.607 454.329 242.939 453.561C243.271 452.799 243.538 451.92 243.74 450.924C243.942 449.921 244.043 448.801 244.043 447.564V447.428C244.043 446.191 243.936 445.074 243.721 444.078C243.506 443.076 243.226 442.193 242.881 441.432C242.542 440.67 242.178 440.029 241.787 439.508C241.403 438.98 241.038 438.574 240.693 438.287L241.074 437.184C241.536 437.438 242.041 437.851 242.588 438.424C243.135 438.99 243.656 439.706 244.15 440.572C244.645 441.438 245.052 442.447 245.371 443.6C245.69 444.745 245.85 446.028 245.85 447.447Z" fill="#FFFDF0" fill-opacity="0.8"/>
<rect x="56" y="466.229" width="23" height="23" rx="11.5" fill="#2CA69E"/>
<path d="M104.229 481.635C104.229 481.303 104.176 481.01 104.072 480.756C103.975 480.495 103.799 480.261 103.545 480.053C103.298 479.844 102.952 479.646 102.51 479.457C102.074 479.268 101.52 479.076 100.85 478.881C100.146 478.673 99.5117 478.441 98.9453 478.188C98.3789 477.927 97.8939 477.631 97.4902 477.299C97.0866 476.967 96.7773 476.586 96.5625 476.156C96.3477 475.727 96.2402 475.235 96.2402 474.682C96.2402 474.128 96.3542 473.617 96.582 473.148C96.8099 472.68 97.1354 472.273 97.5586 471.928C97.9883 471.576 98.4993 471.303 99.0918 471.107C99.6842 470.912 100.345 470.814 101.074 470.814C102.142 470.814 103.047 471.02 103.789 471.43C104.538 471.833 105.107 472.364 105.498 473.021C105.889 473.673 106.084 474.369 106.084 475.111H104.209C104.209 474.577 104.095 474.105 103.867 473.695C103.639 473.279 103.294 472.953 102.832 472.719C102.37 472.478 101.784 472.357 101.074 472.357C100.404 472.357 99.8503 472.458 99.4141 472.66C98.9779 472.862 98.6523 473.135 98.4375 473.48C98.2292 473.826 98.125 474.219 98.125 474.662C98.125 474.962 98.1868 475.235 98.3105 475.482C98.4408 475.723 98.6393 475.948 98.9062 476.156C99.1797 476.365 99.5247 476.557 99.9414 476.732C100.365 476.908 100.869 477.077 101.455 477.24C102.262 477.468 102.959 477.722 103.545 478.002C104.131 478.282 104.613 478.598 104.99 478.949C105.374 479.294 105.658 479.688 105.84 480.131C106.029 480.567 106.123 481.062 106.123 481.615C106.123 482.195 106.006 482.719 105.771 483.188C105.537 483.656 105.202 484.057 104.766 484.389C104.329 484.721 103.805 484.978 103.193 485.16C102.588 485.336 101.911 485.424 101.162 485.424C100.505 485.424 99.8568 485.333 99.2188 485.15C98.5872 484.968 98.0111 484.695 97.4902 484.33C96.9759 483.965 96.5625 483.516 96.25 482.982C95.944 482.442 95.791 481.817 95.791 481.107H97.666C97.666 481.596 97.7604 482.016 97.9492 482.367C98.138 482.712 98.3952 482.999 98.7207 483.227C99.0527 483.454 99.4271 483.624 99.8438 483.734C100.267 483.839 100.706 483.891 101.162 483.891C101.82 483.891 102.376 483.799 102.832 483.617C103.288 483.435 103.633 483.174 103.867 482.836C104.108 482.497 104.229 482.097 104.229 481.635ZM112.676 474.662V476.049H106.963V474.662H112.676ZM108.896 472.094H110.703V482.611C110.703 482.969 110.758 483.24 110.869 483.422C110.98 483.604 111.123 483.725 111.299 483.783C111.475 483.842 111.663 483.871 111.865 483.871C112.015 483.871 112.171 483.858 112.334 483.832C112.503 483.799 112.63 483.773 112.715 483.754L112.725 485.229C112.581 485.274 112.393 485.316 112.158 485.355C111.93 485.401 111.654 485.424 111.328 485.424C110.885 485.424 110.479 485.336 110.107 485.16C109.736 484.984 109.44 484.691 109.219 484.281C109.004 483.865 108.896 483.305 108.896 482.602V472.094ZM121.025 483.422V477.982C121.025 477.566 120.941 477.204 120.771 476.898C120.609 476.586 120.361 476.345 120.029 476.176C119.697 476.007 119.287 475.922 118.799 475.922C118.343 475.922 117.943 476 117.598 476.156C117.259 476.312 116.992 476.518 116.797 476.771C116.608 477.025 116.514 477.299 116.514 477.592H114.707C114.707 477.214 114.805 476.84 115 476.469C115.195 476.098 115.475 475.762 115.84 475.463C116.211 475.157 116.654 474.916 117.168 474.74C117.689 474.558 118.268 474.467 118.906 474.467C119.674 474.467 120.352 474.597 120.938 474.857C121.53 475.118 121.992 475.512 122.324 476.039C122.663 476.56 122.832 477.214 122.832 478.002V482.924C122.832 483.275 122.861 483.65 122.92 484.047C122.985 484.444 123.079 484.786 123.203 485.072V485.229H121.318C121.227 485.02 121.156 484.743 121.104 484.398C121.051 484.047 121.025 483.721 121.025 483.422ZM121.338 478.822L121.357 480.092H119.531C119.017 480.092 118.558 480.134 118.154 480.219C117.751 480.297 117.412 480.417 117.139 480.58C116.865 480.743 116.657 480.948 116.514 481.195C116.37 481.436 116.299 481.719 116.299 482.045C116.299 482.377 116.374 482.68 116.523 482.953C116.673 483.227 116.898 483.445 117.197 483.607C117.503 483.764 117.878 483.842 118.32 483.842C118.874 483.842 119.362 483.725 119.785 483.49C120.208 483.256 120.544 482.969 120.791 482.631C121.045 482.292 121.182 481.964 121.201 481.645L121.973 482.514C121.927 482.787 121.803 483.09 121.602 483.422C121.4 483.754 121.13 484.073 120.791 484.379C120.459 484.678 120.062 484.929 119.6 485.131C119.144 485.326 118.63 485.424 118.057 485.424C117.34 485.424 116.712 485.284 116.172 485.004C115.638 484.724 115.221 484.35 114.922 483.881C114.629 483.406 114.482 482.875 114.482 482.289C114.482 481.723 114.593 481.225 114.814 480.795C115.036 480.359 115.355 479.997 115.771 479.711C116.188 479.418 116.689 479.197 117.275 479.047C117.861 478.897 118.516 478.822 119.238 478.822H121.338ZM127.49 470.229V485.229H125.674V470.229H127.49ZM133.945 474.662L129.336 479.594L126.758 482.27L126.611 480.346L128.457 478.139L131.738 474.662H133.945ZM132.295 485.229L128.525 480.189L129.463 478.578L134.424 485.229H132.295ZM137.773 474.662V485.229H135.957V474.662H137.773ZM135.82 471.859C135.82 471.566 135.908 471.319 136.084 471.117C136.266 470.915 136.533 470.814 136.885 470.814C137.23 470.814 137.493 470.915 137.676 471.117C137.865 471.319 137.959 471.566 137.959 471.859C137.959 472.139 137.865 472.38 137.676 472.582C137.493 472.777 137.23 472.875 136.885 472.875C136.533 472.875 136.266 472.777 136.084 472.582C135.908 472.38 135.82 472.139 135.82 471.859ZM142.48 476.918V485.229H140.674V474.662H142.383L142.48 476.918ZM142.051 479.545L141.299 479.516C141.305 478.793 141.413 478.126 141.621 477.514C141.829 476.895 142.122 476.358 142.5 475.902C142.878 475.447 143.327 475.095 143.848 474.848C144.375 474.594 144.958 474.467 145.596 474.467C146.117 474.467 146.585 474.538 147.002 474.682C147.419 474.818 147.773 475.04 148.066 475.346C148.366 475.652 148.594 476.049 148.75 476.537C148.906 477.019 148.984 477.608 148.984 478.305V485.229H147.168V478.285C147.168 477.732 147.087 477.289 146.924 476.957C146.761 476.618 146.523 476.374 146.211 476.225C145.898 476.068 145.514 475.99 145.059 475.99C144.609 475.99 144.199 476.085 143.828 476.273C143.464 476.462 143.148 476.723 142.881 477.055C142.62 477.387 142.415 477.768 142.266 478.197C142.122 478.62 142.051 479.07 142.051 479.545ZM158.574 474.662H160.215V485.004C160.215 485.935 160.026 486.729 159.648 487.387C159.271 488.044 158.743 488.542 158.066 488.881C157.396 489.226 156.621 489.398 155.742 489.398C155.378 489.398 154.948 489.34 154.453 489.223C153.965 489.112 153.483 488.92 153.008 488.646C152.539 488.38 152.145 488.018 151.826 487.562L152.773 486.488C153.216 487.022 153.678 487.393 154.16 487.602C154.648 487.81 155.13 487.914 155.605 487.914C156.178 487.914 156.673 487.807 157.09 487.592C157.507 487.377 157.829 487.058 158.057 486.635C158.291 486.218 158.408 485.704 158.408 485.092V476.986L158.574 474.662ZM151.299 480.062V479.857C151.299 479.05 151.393 478.318 151.582 477.66C151.777 476.996 152.054 476.426 152.412 475.951C152.777 475.476 153.216 475.111 153.73 474.857C154.245 474.597 154.824 474.467 155.469 474.467C156.133 474.467 156.712 474.584 157.207 474.818C157.708 475.046 158.132 475.382 158.477 475.824C158.828 476.26 159.105 476.788 159.307 477.406C159.508 478.025 159.648 478.725 159.727 479.506V480.404C159.655 481.179 159.515 481.876 159.307 482.494C159.105 483.113 158.828 483.64 158.477 484.076C158.132 484.512 157.708 484.848 157.207 485.082C156.706 485.31 156.12 485.424 155.449 485.424C154.818 485.424 154.245 485.29 153.73 485.023C153.223 484.757 152.786 484.382 152.422 483.9C152.057 483.419 151.777 482.852 151.582 482.201C151.393 481.544 151.299 480.831 151.299 480.062ZM153.105 479.857V480.062C153.105 480.59 153.158 481.085 153.262 481.547C153.372 482.009 153.538 482.416 153.76 482.768C153.988 483.119 154.277 483.396 154.629 483.598C154.98 483.793 155.4 483.891 155.889 483.891C156.488 483.891 156.982 483.764 157.373 483.51C157.764 483.256 158.073 482.921 158.301 482.504C158.535 482.087 158.717 481.635 158.848 481.146V478.793C158.776 478.435 158.665 478.09 158.516 477.758C158.372 477.419 158.184 477.12 157.949 476.859C157.721 476.592 157.438 476.381 157.1 476.225C156.761 476.068 156.364 475.99 155.908 475.99C155.413 475.99 154.987 476.094 154.629 476.303C154.277 476.505 153.988 476.785 153.76 477.143C153.538 477.494 153.372 477.904 153.262 478.373C153.158 478.835 153.105 479.33 153.105 479.857ZM169.727 476.322V485.229H167.92V474.662H169.678L169.727 476.322ZM173.027 474.604L173.018 476.283C172.868 476.251 172.725 476.231 172.588 476.225C172.458 476.212 172.308 476.205 172.139 476.205C171.722 476.205 171.354 476.27 171.035 476.4C170.716 476.531 170.446 476.713 170.225 476.947C170.003 477.182 169.827 477.462 169.697 477.787C169.574 478.106 169.492 478.458 169.453 478.842L168.945 479.135C168.945 478.497 169.007 477.898 169.131 477.338C169.261 476.778 169.46 476.283 169.727 475.854C169.993 475.417 170.332 475.079 170.742 474.838C171.159 474.59 171.654 474.467 172.227 474.467C172.357 474.467 172.507 474.483 172.676 474.516C172.845 474.542 172.962 474.571 173.027 474.604ZM178.887 485.424C178.151 485.424 177.484 485.3 176.885 485.053C176.292 484.799 175.781 484.444 175.352 483.988C174.928 483.533 174.603 482.992 174.375 482.367C174.147 481.742 174.033 481.059 174.033 480.316V479.906C174.033 479.047 174.16 478.282 174.414 477.611C174.668 476.934 175.013 476.361 175.449 475.893C175.885 475.424 176.38 475.069 176.934 474.828C177.487 474.587 178.06 474.467 178.652 474.467C179.408 474.467 180.059 474.597 180.605 474.857C181.159 475.118 181.611 475.482 181.963 475.951C182.314 476.413 182.575 476.96 182.744 477.592C182.913 478.217 182.998 478.9 182.998 479.643V480.453H175.107V478.979H181.191V478.842C181.165 478.373 181.068 477.917 180.898 477.475C180.736 477.032 180.475 476.667 180.117 476.381C179.759 476.094 179.271 475.951 178.652 475.951C178.242 475.951 177.865 476.039 177.52 476.215C177.174 476.384 176.878 476.638 176.631 476.977C176.383 477.315 176.191 477.729 176.055 478.217C175.918 478.705 175.85 479.268 175.85 479.906V480.316C175.85 480.818 175.918 481.29 176.055 481.732C176.198 482.169 176.403 482.553 176.67 482.885C176.943 483.217 177.272 483.477 177.656 483.666C178.047 483.855 178.49 483.949 178.984 483.949C179.622 483.949 180.163 483.819 180.605 483.559C181.048 483.298 181.436 482.95 181.768 482.514L182.861 483.383C182.633 483.728 182.344 484.057 181.992 484.369C181.641 484.682 181.208 484.936 180.693 485.131C180.186 485.326 179.583 485.424 178.887 485.424ZM187.783 483.354L190.498 474.662H191.689L191.455 476.391L188.691 485.229H187.529L187.783 483.354ZM185.957 474.662L188.271 483.451L188.438 485.229H187.217L184.15 474.662H185.957ZM194.287 483.383L196.494 474.662H198.291L195.225 485.229H194.014L194.287 483.383ZM191.953 474.662L194.609 483.207L194.912 485.229H193.76L190.918 476.371L190.684 474.662H191.953ZM206.377 483.422V477.982C206.377 477.566 206.292 477.204 206.123 476.898C205.96 476.586 205.713 476.345 205.381 476.176C205.049 476.007 204.639 475.922 204.15 475.922C203.695 475.922 203.294 476 202.949 476.156C202.611 476.312 202.344 476.518 202.148 476.771C201.96 477.025 201.865 477.299 201.865 477.592H200.059C200.059 477.214 200.156 476.84 200.352 476.469C200.547 476.098 200.827 475.762 201.191 475.463C201.562 475.157 202.005 474.916 202.52 474.74C203.04 474.558 203.62 474.467 204.258 474.467C205.026 474.467 205.703 474.597 206.289 474.857C206.882 475.118 207.344 475.512 207.676 476.039C208.014 476.56 208.184 477.214 208.184 478.002V482.924C208.184 483.275 208.213 483.65 208.271 484.047C208.337 484.444 208.431 484.786 208.555 485.072V485.229H206.67C206.579 485.02 206.507 484.743 206.455 484.398C206.403 484.047 206.377 483.721 206.377 483.422ZM206.689 478.822L206.709 480.092H204.883C204.368 480.092 203.91 480.134 203.506 480.219C203.102 480.297 202.764 480.417 202.49 480.58C202.217 480.743 202.008 480.948 201.865 481.195C201.722 481.436 201.65 481.719 201.65 482.045C201.65 482.377 201.725 482.68 201.875 482.953C202.025 483.227 202.249 483.445 202.549 483.607C202.855 483.764 203.229 483.842 203.672 483.842C204.225 483.842 204.714 483.725 205.137 483.49C205.56 483.256 205.895 482.969 206.143 482.631C206.396 482.292 206.533 481.964 206.553 481.645L207.324 482.514C207.279 482.787 207.155 483.09 206.953 483.422C206.751 483.754 206.481 484.073 206.143 484.379C205.811 484.678 205.413 484.929 204.951 485.131C204.495 485.326 203.981 485.424 203.408 485.424C202.692 485.424 202.064 485.284 201.523 485.004C200.99 484.724 200.573 484.35 200.273 483.881C199.98 483.406 199.834 482.875 199.834 482.289C199.834 481.723 199.945 481.225 200.166 480.795C200.387 480.359 200.706 479.997 201.123 479.711C201.54 479.418 202.041 479.197 202.627 479.047C203.213 478.897 203.867 478.822 204.59 478.822H206.689ZM212.832 476.322V485.229H211.025V474.662H212.783L212.832 476.322ZM216.133 474.604L216.123 476.283C215.973 476.251 215.83 476.231 215.693 476.225C215.563 476.212 215.413 476.205 215.244 476.205C214.827 476.205 214.46 476.27 214.141 476.4C213.822 476.531 213.551 476.713 213.33 476.947C213.109 477.182 212.933 477.462 212.803 477.787C212.679 478.106 212.598 478.458 212.559 478.842L212.051 479.135C212.051 478.497 212.113 477.898 212.236 477.338C212.367 476.778 212.565 476.283 212.832 475.854C213.099 475.417 213.438 475.079 213.848 474.838C214.264 474.59 214.759 474.467 215.332 474.467C215.462 474.467 215.612 474.483 215.781 474.516C215.951 474.542 216.068 474.571 216.133 474.604ZM224.268 483.178V470.229H226.084V485.229H224.424L224.268 483.178ZM217.158 480.062V479.857C217.158 479.05 217.256 478.318 217.451 477.66C217.653 476.996 217.936 476.426 218.301 475.951C218.672 475.476 219.111 475.111 219.619 474.857C220.133 474.597 220.706 474.467 221.338 474.467C222.002 474.467 222.581 474.584 223.076 474.818C223.577 475.046 224.001 475.382 224.346 475.824C224.697 476.26 224.974 476.788 225.176 477.406C225.378 478.025 225.518 478.725 225.596 479.506V480.404C225.524 481.179 225.384 481.876 225.176 482.494C224.974 483.113 224.697 483.64 224.346 484.076C224.001 484.512 223.577 484.848 223.076 485.082C222.575 485.31 221.989 485.424 221.318 485.424C220.7 485.424 220.133 485.29 219.619 485.023C219.111 484.757 218.672 484.382 218.301 483.9C217.936 483.419 217.653 482.852 217.451 482.201C217.256 481.544 217.158 480.831 217.158 480.062ZM218.975 479.857V480.062C218.975 480.59 219.027 481.085 219.131 481.547C219.242 482.009 219.411 482.416 219.639 482.768C219.867 483.119 220.156 483.396 220.508 483.598C220.859 483.793 221.279 483.891 221.768 483.891C222.367 483.891 222.858 483.764 223.242 483.51C223.633 483.256 223.945 482.921 224.18 482.504C224.414 482.087 224.596 481.635 224.727 481.146V478.793C224.648 478.435 224.535 478.09 224.385 477.758C224.242 477.419 224.053 477.12 223.818 476.859C223.59 476.592 223.307 476.381 222.969 476.225C222.637 476.068 222.243 475.99 221.787 475.99C221.292 475.99 220.866 476.094 220.508 476.303C220.156 476.505 219.867 476.785 219.639 477.143C219.411 477.494 219.242 477.904 219.131 478.373C219.027 478.835 218.975 479.33 218.975 479.857ZM235.049 482.426C235.049 482.165 234.99 481.924 234.873 481.703C234.762 481.475 234.531 481.27 234.18 481.088C233.835 480.899 233.314 480.736 232.617 480.6C232.031 480.476 231.501 480.329 231.025 480.16C230.557 479.991 230.156 479.786 229.824 479.545C229.499 479.304 229.248 479.021 229.072 478.695C228.896 478.37 228.809 477.989 228.809 477.553C228.809 477.136 228.9 476.742 229.082 476.371C229.271 476 229.535 475.671 229.873 475.385C230.218 475.098 230.632 474.874 231.113 474.711C231.595 474.548 232.132 474.467 232.725 474.467C233.571 474.467 234.294 474.617 234.893 474.916C235.492 475.215 235.951 475.616 236.27 476.117C236.589 476.612 236.748 477.162 236.748 477.768H234.941C234.941 477.475 234.854 477.191 234.678 476.918C234.508 476.638 234.258 476.407 233.926 476.225C233.6 476.042 233.2 475.951 232.725 475.951C232.223 475.951 231.816 476.029 231.504 476.186C231.198 476.335 230.973 476.527 230.83 476.762C230.693 476.996 230.625 477.243 230.625 477.504C230.625 477.699 230.658 477.875 230.723 478.031C230.794 478.181 230.918 478.321 231.094 478.451C231.27 478.575 231.517 478.692 231.836 478.803C232.155 478.913 232.562 479.024 233.057 479.135C233.923 479.33 234.635 479.564 235.195 479.838C235.755 480.111 236.172 480.447 236.445 480.844C236.719 481.241 236.855 481.723 236.855 482.289C236.855 482.751 236.758 483.174 236.562 483.559C236.374 483.943 236.097 484.275 235.732 484.555C235.374 484.828 234.945 485.043 234.443 485.199C233.949 485.349 233.392 485.424 232.773 485.424C231.842 485.424 231.055 485.258 230.41 484.926C229.766 484.594 229.277 484.164 228.945 483.637C228.613 483.109 228.447 482.553 228.447 481.967H230.264C230.29 482.462 230.433 482.855 230.693 483.148C230.954 483.435 231.273 483.64 231.65 483.764C232.028 483.881 232.402 483.939 232.773 483.939C233.268 483.939 233.682 483.874 234.014 483.744C234.352 483.614 234.609 483.435 234.785 483.207C234.961 482.979 235.049 482.719 235.049 482.426ZM244.121 479.545V479.447C244.121 478.028 244.281 476.745 244.6 475.6C244.919 474.447 245.326 473.438 245.82 472.572C246.315 471.706 246.836 470.99 247.383 470.424C247.93 469.851 248.434 469.438 248.896 469.184L249.277 470.375C248.893 470.668 248.503 471.072 248.105 471.586C247.715 472.1 247.354 472.732 247.021 473.48C246.696 474.229 246.432 475.098 246.23 476.088C246.029 477.077 245.928 478.191 245.928 479.428V479.564C245.928 480.801 246.029 481.918 246.23 482.914C246.432 483.904 246.696 484.776 247.021 485.531C247.354 486.286 247.715 486.928 248.105 487.455C248.503 487.989 248.893 488.412 249.277 488.725L248.896 489.818C248.434 489.564 247.93 489.151 247.383 488.578C246.836 488.012 246.315 487.296 245.82 486.43C245.326 485.57 244.919 484.564 244.6 483.412C244.281 482.26 244.121 480.971 244.121 479.545ZM253.486 477.23H254.775C255.407 477.23 255.928 477.126 256.338 476.918C256.755 476.703 257.064 476.413 257.266 476.049C257.474 475.678 257.578 475.261 257.578 474.799C257.578 474.252 257.487 473.793 257.305 473.422C257.122 473.051 256.849 472.771 256.484 472.582C256.12 472.393 255.658 472.299 255.098 472.299C254.59 472.299 254.141 472.4 253.75 472.602C253.366 472.797 253.063 473.077 252.842 473.441C252.627 473.806 252.52 474.236 252.52 474.73H250.713C250.713 474.008 250.895 473.35 251.26 472.758C251.624 472.165 252.135 471.693 252.793 471.342C253.457 470.99 254.225 470.814 255.098 470.814C255.957 470.814 256.709 470.967 257.354 471.273C257.998 471.573 258.499 472.022 258.857 472.621C259.215 473.214 259.395 473.952 259.395 474.838C259.395 475.196 259.31 475.58 259.141 475.99C258.978 476.394 258.721 476.771 258.369 477.123C258.024 477.475 257.575 477.764 257.021 477.992C256.468 478.214 255.804 478.324 255.029 478.324H253.486V477.23ZM253.486 478.715V477.631H255.029C255.934 477.631 256.683 477.738 257.275 477.953C257.868 478.168 258.333 478.454 258.672 478.812C259.017 479.171 259.258 479.564 259.395 479.994C259.538 480.417 259.609 480.84 259.609 481.264C259.609 481.928 259.495 482.517 259.268 483.031C259.046 483.546 258.73 483.982 258.32 484.34C257.917 484.698 257.441 484.968 256.895 485.15C256.348 485.333 255.752 485.424 255.107 485.424C254.489 485.424 253.906 485.336 253.359 485.16C252.819 484.984 252.34 484.73 251.924 484.398C251.507 484.06 251.182 483.646 250.947 483.158C250.713 482.663 250.596 482.1 250.596 481.469H252.402C252.402 481.964 252.51 482.396 252.725 482.768C252.946 483.139 253.258 483.428 253.662 483.637C254.072 483.839 254.554 483.939 255.107 483.939C255.661 483.939 256.136 483.845 256.533 483.656C256.937 483.461 257.246 483.168 257.461 482.777C257.682 482.387 257.793 481.895 257.793 481.303C257.793 480.71 257.669 480.225 257.422 479.848C257.174 479.464 256.823 479.18 256.367 478.998C255.918 478.809 255.387 478.715 254.775 478.715H253.486ZM271.025 476.986V479.154C271.025 480.32 270.921 481.303 270.713 482.104C270.505 482.904 270.205 483.549 269.814 484.037C269.424 484.525 268.952 484.88 268.398 485.102C267.852 485.316 267.233 485.424 266.543 485.424C265.996 485.424 265.492 485.355 265.029 485.219C264.567 485.082 264.15 484.864 263.779 484.564C263.415 484.258 263.102 483.861 262.842 483.373C262.581 482.885 262.383 482.292 262.246 481.596C262.109 480.899 262.041 480.085 262.041 479.154V476.986C262.041 475.821 262.145 474.844 262.354 474.057C262.568 473.269 262.871 472.637 263.262 472.162C263.652 471.68 264.121 471.335 264.668 471.127C265.221 470.919 265.84 470.814 266.523 470.814C267.077 470.814 267.585 470.883 268.047 471.02C268.516 471.15 268.932 471.361 269.297 471.654C269.661 471.941 269.971 472.325 270.225 472.807C270.485 473.282 270.684 473.865 270.82 474.555C270.957 475.245 271.025 476.055 271.025 476.986ZM269.209 479.447V476.684C269.209 476.046 269.17 475.486 269.092 475.004C269.02 474.516 268.913 474.099 268.77 473.754C268.626 473.409 268.444 473.129 268.223 472.914C268.008 472.699 267.757 472.543 267.471 472.445C267.191 472.341 266.875 472.289 266.523 472.289C266.094 472.289 265.713 472.37 265.381 472.533C265.049 472.689 264.769 472.94 264.541 473.285C264.32 473.63 264.15 474.083 264.033 474.643C263.916 475.202 263.857 475.883 263.857 476.684V479.447C263.857 480.085 263.893 480.648 263.965 481.137C264.043 481.625 264.157 482.048 264.307 482.406C264.456 482.758 264.639 483.048 264.854 483.275C265.068 483.503 265.316 483.673 265.596 483.783C265.882 483.887 266.198 483.939 266.543 483.939C266.986 483.939 267.373 483.855 267.705 483.686C268.037 483.516 268.314 483.253 268.535 482.895C268.763 482.53 268.932 482.064 269.043 481.498C269.154 480.925 269.209 480.242 269.209 479.447ZM273.193 474.496V473.744C273.193 473.204 273.311 472.712 273.545 472.27C273.779 471.827 274.115 471.472 274.551 471.205C274.987 470.938 275.505 470.805 276.104 470.805C276.715 470.805 277.236 470.938 277.666 471.205C278.102 471.472 278.438 471.827 278.672 472.27C278.906 472.712 279.023 473.204 279.023 473.744V474.496C279.023 475.023 278.906 475.508 278.672 475.951C278.444 476.394 278.112 476.749 277.676 477.016C277.246 477.283 276.729 477.416 276.123 477.416C275.518 477.416 274.993 477.283 274.551 477.016C274.115 476.749 273.779 476.394 273.545 475.951C273.311 475.508 273.193 475.023 273.193 474.496ZM274.551 473.744V474.496C274.551 474.796 274.606 475.079 274.717 475.346C274.834 475.613 275.01 475.831 275.244 476C275.479 476.163 275.771 476.244 276.123 476.244C276.475 476.244 276.764 476.163 276.992 476C277.22 475.831 277.389 475.613 277.5 475.346C277.611 475.079 277.666 474.796 277.666 474.496V473.744C277.666 473.438 277.607 473.152 277.49 472.885C277.38 472.611 277.207 472.393 276.973 472.23C276.745 472.061 276.455 471.977 276.104 471.977C275.758 471.977 275.469 472.061 275.234 472.23C275.007 472.393 274.834 472.611 274.717 472.885C274.606 473.152 274.551 473.438 274.551 473.744ZM280.117 482.504V481.742C280.117 481.208 280.234 480.72 280.469 480.277C280.703 479.835 281.038 479.48 281.475 479.213C281.911 478.946 282.428 478.812 283.027 478.812C283.639 478.812 284.16 478.946 284.59 479.213C285.026 479.48 285.361 479.835 285.596 480.277C285.83 480.72 285.947 481.208 285.947 481.742V482.504C285.947 483.038 285.83 483.526 285.596 483.969C285.368 484.411 285.036 484.766 284.6 485.033C284.17 485.3 283.652 485.434 283.047 485.434C282.441 485.434 281.921 485.3 281.484 485.033C281.048 484.766 280.71 484.411 280.469 483.969C280.234 483.526 280.117 483.038 280.117 482.504ZM281.475 481.742V482.504C281.475 482.803 281.53 483.09 281.641 483.363C281.758 483.63 281.934 483.848 282.168 484.018C282.402 484.18 282.695 484.262 283.047 484.262C283.398 484.262 283.688 484.18 283.916 484.018C284.15 483.848 284.323 483.63 284.434 483.363C284.544 483.096 284.6 482.81 284.6 482.504V481.742C284.6 481.436 284.541 481.15 284.424 480.883C284.313 480.616 284.141 480.401 283.906 480.238C283.678 480.069 283.385 479.984 283.027 479.984C282.682 479.984 282.393 480.069 282.158 480.238C281.93 480.401 281.758 480.616 281.641 480.883C281.53 481.15 281.475 481.436 281.475 481.742ZM283.477 473.031L276.533 484.145L275.518 483.5L282.461 472.387L283.477 473.031ZM292.354 479.447V479.545C292.354 480.971 292.194 482.26 291.875 483.412C291.556 484.564 291.149 485.57 290.654 486.43C290.16 487.296 289.639 488.012 289.092 488.578C288.545 489.151 288.04 489.564 287.578 489.818L287.197 488.725C287.581 488.432 287.969 488.021 288.359 487.494C288.75 486.973 289.111 486.329 289.443 485.561C289.775 484.799 290.042 483.92 290.244 482.924C290.446 481.921 290.547 480.801 290.547 479.564V479.428C290.547 478.191 290.439 477.074 290.225 476.078C290.01 475.076 289.73 474.193 289.385 473.432C289.046 472.67 288.682 472.029 288.291 471.508C287.907 470.98 287.542 470.574 287.197 470.287L287.578 469.184C288.04 469.438 288.545 469.851 289.092 470.424C289.639 470.99 290.16 471.706 290.654 472.572C291.149 473.438 291.556 474.447 291.875 475.6C292.194 476.745 292.354 478.028 292.354 479.447Z" fill="#FFFDF0" fill-opacity="0.8"/>
<rect x="56" y="498.229" width="23" height="23" rx="11.5" fill="#CD4356"/>
<path d="M105.684 515.695V517.229H98.1543V515.695H105.684ZM98.5352 503.01V517.229H96.6504V503.01H98.5352ZM104.688 509.123V510.656H98.1543V509.123H104.688ZM105.586 503.01V504.553H98.1543V503.01H105.586ZM111.777 515.939C112.207 515.939 112.604 515.852 112.969 515.676C113.333 515.5 113.633 515.259 113.867 514.953C114.102 514.641 114.235 514.286 114.268 513.889H115.986C115.954 514.514 115.742 515.096 115.352 515.637C114.967 516.171 114.463 516.604 113.838 516.936C113.213 517.261 112.526 517.424 111.777 517.424C110.983 517.424 110.29 517.284 109.697 517.004C109.111 516.724 108.623 516.34 108.232 515.852C107.848 515.363 107.559 514.803 107.363 514.172C107.174 513.534 107.08 512.86 107.08 512.15V511.74C107.08 511.031 107.174 510.36 107.363 509.729C107.559 509.09 107.848 508.527 108.232 508.039C108.623 507.551 109.111 507.167 109.697 506.887C110.29 506.607 110.983 506.467 111.777 506.467C112.604 506.467 113.327 506.636 113.945 506.975C114.564 507.307 115.049 507.762 115.4 508.342C115.758 508.915 115.954 509.566 115.986 510.295H114.268C114.235 509.859 114.111 509.465 113.896 509.113C113.688 508.762 113.402 508.482 113.037 508.273C112.679 508.059 112.259 507.951 111.777 507.951C111.224 507.951 110.758 508.062 110.381 508.283C110.01 508.498 109.714 508.791 109.492 509.162C109.277 509.527 109.121 509.934 109.023 510.383C108.932 510.826 108.887 511.278 108.887 511.74V512.15C108.887 512.613 108.932 513.068 109.023 513.518C109.115 513.967 109.268 514.374 109.482 514.738C109.704 515.103 110 515.396 110.371 515.617C110.749 515.832 111.217 515.939 111.777 515.939ZM117.539 512.062V511.838C117.539 511.076 117.65 510.37 117.871 509.719C118.092 509.061 118.411 508.492 118.828 508.01C119.245 507.521 119.749 507.144 120.342 506.877C120.934 506.604 121.598 506.467 122.334 506.467C123.076 506.467 123.743 506.604 124.336 506.877C124.935 507.144 125.443 507.521 125.859 508.01C126.283 508.492 126.605 509.061 126.826 509.719C127.048 510.37 127.158 511.076 127.158 511.838V512.062C127.158 512.824 127.048 513.531 126.826 514.182C126.605 514.833 126.283 515.402 125.859 515.891C125.443 516.372 124.938 516.75 124.346 517.023C123.76 517.29 123.096 517.424 122.354 517.424C121.611 517.424 120.944 517.29 120.352 517.023C119.759 516.75 119.251 516.372 118.828 515.891C118.411 515.402 118.092 514.833 117.871 514.182C117.65 513.531 117.539 512.824 117.539 512.062ZM119.346 511.838V512.062C119.346 512.59 119.408 513.088 119.531 513.557C119.655 514.019 119.84 514.429 120.088 514.787C120.342 515.145 120.658 515.428 121.035 515.637C121.413 515.839 121.852 515.939 122.354 515.939C122.848 515.939 123.281 515.839 123.652 515.637C124.03 515.428 124.342 515.145 124.59 514.787C124.837 514.429 125.023 514.019 125.146 513.557C125.277 513.088 125.342 512.59 125.342 512.062V511.838C125.342 511.317 125.277 510.826 125.146 510.363C125.023 509.895 124.834 509.481 124.58 509.123C124.333 508.758 124.02 508.472 123.643 508.264C123.271 508.055 122.835 507.951 122.334 507.951C121.839 507.951 121.403 508.055 121.025 508.264C120.654 508.472 120.342 508.758 120.088 509.123C119.84 509.481 119.655 509.895 119.531 510.363C119.408 510.826 119.346 511.317 119.346 511.838ZM135.576 514.426C135.576 514.165 135.518 513.924 135.4 513.703C135.29 513.475 135.059 513.27 134.707 513.088C134.362 512.899 133.841 512.736 133.145 512.6C132.559 512.476 132.028 512.329 131.553 512.16C131.084 511.991 130.684 511.786 130.352 511.545C130.026 511.304 129.775 511.021 129.6 510.695C129.424 510.37 129.336 509.989 129.336 509.553C129.336 509.136 129.427 508.742 129.609 508.371C129.798 508 130.062 507.671 130.4 507.385C130.745 507.098 131.159 506.874 131.641 506.711C132.122 506.548 132.66 506.467 133.252 506.467C134.098 506.467 134.821 506.617 135.42 506.916C136.019 507.215 136.478 507.616 136.797 508.117C137.116 508.612 137.275 509.162 137.275 509.768H135.469C135.469 509.475 135.381 509.191 135.205 508.918C135.036 508.638 134.785 508.407 134.453 508.225C134.128 508.042 133.727 507.951 133.252 507.951C132.751 507.951 132.344 508.029 132.031 508.186C131.725 508.335 131.501 508.527 131.357 508.762C131.221 508.996 131.152 509.243 131.152 509.504C131.152 509.699 131.185 509.875 131.25 510.031C131.322 510.181 131.445 510.321 131.621 510.451C131.797 510.575 132.044 510.692 132.363 510.803C132.682 510.913 133.089 511.024 133.584 511.135C134.45 511.33 135.163 511.564 135.723 511.838C136.283 512.111 136.699 512.447 136.973 512.844C137.246 513.241 137.383 513.723 137.383 514.289C137.383 514.751 137.285 515.174 137.09 515.559C136.901 515.943 136.624 516.275 136.26 516.555C135.902 516.828 135.472 517.043 134.971 517.199C134.476 517.349 133.919 517.424 133.301 517.424C132.37 517.424 131.582 517.258 130.938 516.926C130.293 516.594 129.805 516.164 129.473 515.637C129.141 515.109 128.975 514.553 128.975 513.967H130.791C130.817 514.462 130.96 514.855 131.221 515.148C131.481 515.435 131.8 515.64 132.178 515.764C132.555 515.881 132.93 515.939 133.301 515.939C133.796 515.939 134.209 515.874 134.541 515.744C134.88 515.614 135.137 515.435 135.312 515.207C135.488 514.979 135.576 514.719 135.576 514.426ZM142.725 516.135L145.664 506.662H147.598L143.359 518.859C143.262 519.12 143.132 519.4 142.969 519.699C142.812 520.005 142.611 520.295 142.363 520.568C142.116 520.842 141.816 521.063 141.465 521.232C141.12 521.408 140.706 521.496 140.225 521.496C140.081 521.496 139.899 521.477 139.678 521.438C139.456 521.398 139.3 521.366 139.209 521.34L139.199 519.875C139.251 519.882 139.333 519.888 139.443 519.895C139.561 519.908 139.642 519.914 139.688 519.914C140.098 519.914 140.446 519.859 140.732 519.748C141.019 519.644 141.26 519.465 141.455 519.211C141.657 518.964 141.829 518.622 141.973 518.186L142.725 516.135ZM140.566 506.662L143.311 514.865L143.779 516.77L142.48 517.434L138.594 506.662H140.566ZM155.381 514.426C155.381 514.165 155.322 513.924 155.205 513.703C155.094 513.475 154.863 513.27 154.512 513.088C154.167 512.899 153.646 512.736 152.949 512.6C152.363 512.476 151.833 512.329 151.357 512.16C150.889 511.991 150.488 511.786 150.156 511.545C149.831 511.304 149.58 511.021 149.404 510.695C149.229 510.37 149.141 509.989 149.141 509.553C149.141 509.136 149.232 508.742 149.414 508.371C149.603 508 149.867 507.671 150.205 507.385C150.55 507.098 150.964 506.874 151.445 506.711C151.927 506.548 152.464 506.467 153.057 506.467C153.903 506.467 154.626 506.617 155.225 506.916C155.824 507.215 156.283 507.616 156.602 508.117C156.921 508.612 157.08 509.162 157.08 509.768H155.273C155.273 509.475 155.186 509.191 155.01 508.918C154.84 508.638 154.59 508.407 154.258 508.225C153.932 508.042 153.532 507.951 153.057 507.951C152.555 507.951 152.148 508.029 151.836 508.186C151.53 508.335 151.305 508.527 151.162 508.762C151.025 508.996 150.957 509.243 150.957 509.504C150.957 509.699 150.99 509.875 151.055 510.031C151.126 510.181 151.25 510.321 151.426 510.451C151.602 510.575 151.849 510.692 152.168 510.803C152.487 510.913 152.894 511.024 153.389 511.135C154.255 511.33 154.967 511.564 155.527 511.838C156.087 512.111 156.504 512.447 156.777 512.844C157.051 513.241 157.188 513.723 157.188 514.289C157.188 514.751 157.09 515.174 156.895 515.559C156.706 515.943 156.429 516.275 156.064 516.555C155.706 516.828 155.277 517.043 154.775 517.199C154.281 517.349 153.724 517.424 153.105 517.424C152.174 517.424 151.387 517.258 150.742 516.926C150.098 516.594 149.609 516.164 149.277 515.637C148.945 515.109 148.779 514.553 148.779 513.967H150.596C150.622 514.462 150.765 514.855 151.025 515.148C151.286 515.435 151.605 515.64 151.982 515.764C152.36 515.881 152.734 515.939 153.105 515.939C153.6 515.939 154.014 515.874 154.346 515.744C154.684 515.614 154.941 515.435 155.117 515.207C155.293 514.979 155.381 514.719 155.381 514.426ZM163.984 506.662V508.049H158.271V506.662H163.984ZM160.205 504.094H162.012V514.611C162.012 514.969 162.067 515.24 162.178 515.422C162.288 515.604 162.432 515.725 162.607 515.783C162.783 515.842 162.972 515.871 163.174 515.871C163.324 515.871 163.48 515.858 163.643 515.832C163.812 515.799 163.939 515.773 164.023 515.754L164.033 517.229C163.89 517.274 163.701 517.316 163.467 517.355C163.239 517.401 162.962 517.424 162.637 517.424C162.194 517.424 161.787 517.336 161.416 517.16C161.045 516.984 160.749 516.691 160.527 516.281C160.312 515.865 160.205 515.305 160.205 514.602V504.094ZM170.488 517.424C169.753 517.424 169.085 517.3 168.486 517.053C167.894 516.799 167.383 516.444 166.953 515.988C166.53 515.533 166.204 514.992 165.977 514.367C165.749 513.742 165.635 513.059 165.635 512.316V511.906C165.635 511.047 165.762 510.282 166.016 509.611C166.27 508.934 166.615 508.361 167.051 507.893C167.487 507.424 167.982 507.069 168.535 506.828C169.089 506.587 169.661 506.467 170.254 506.467C171.009 506.467 171.66 506.597 172.207 506.857C172.76 507.118 173.213 507.482 173.564 507.951C173.916 508.413 174.176 508.96 174.346 509.592C174.515 510.217 174.6 510.9 174.6 511.643V512.453H166.709V510.979H172.793V510.842C172.767 510.373 172.669 509.917 172.5 509.475C172.337 509.032 172.077 508.667 171.719 508.381C171.361 508.094 170.872 507.951 170.254 507.951C169.844 507.951 169.466 508.039 169.121 508.215C168.776 508.384 168.48 508.638 168.232 508.977C167.985 509.315 167.793 509.729 167.656 510.217C167.52 510.705 167.451 511.268 167.451 511.906V512.316C167.451 512.818 167.52 513.29 167.656 513.732C167.799 514.169 168.005 514.553 168.271 514.885C168.545 515.217 168.874 515.477 169.258 515.666C169.648 515.855 170.091 515.949 170.586 515.949C171.224 515.949 171.764 515.819 172.207 515.559C172.65 515.298 173.037 514.95 173.369 514.514L174.463 515.383C174.235 515.728 173.945 516.057 173.594 516.369C173.242 516.682 172.809 516.936 172.295 517.131C171.787 517.326 171.185 517.424 170.488 517.424ZM178.506 508.762V517.229H176.689V506.662H178.408L178.506 508.762ZM178.135 511.545L177.295 511.516C177.301 510.793 177.396 510.126 177.578 509.514C177.76 508.895 178.031 508.358 178.389 507.902C178.747 507.447 179.193 507.095 179.727 506.848C180.26 506.594 180.879 506.467 181.582 506.467C182.077 506.467 182.533 506.538 182.949 506.682C183.366 506.818 183.727 507.036 184.033 507.336C184.339 507.635 184.577 508.02 184.746 508.488C184.915 508.957 185 509.523 185 510.188V517.229H183.193V510.275C183.193 509.722 183.099 509.279 182.91 508.947C182.728 508.615 182.467 508.374 182.129 508.225C181.79 508.068 181.393 507.99 180.938 507.99C180.404 507.99 179.958 508.085 179.6 508.273C179.242 508.462 178.955 508.723 178.74 509.055C178.525 509.387 178.369 509.768 178.271 510.197C178.18 510.62 178.135 511.07 178.135 511.545ZM184.98 510.549L183.77 510.92C183.776 510.34 183.87 509.784 184.053 509.25C184.242 508.716 184.512 508.241 184.863 507.824C185.221 507.408 185.661 507.079 186.182 506.838C186.702 506.59 187.298 506.467 187.969 506.467C188.535 506.467 189.036 506.542 189.473 506.691C189.915 506.841 190.286 507.072 190.586 507.385C190.892 507.691 191.123 508.085 191.279 508.566C191.436 509.048 191.514 509.621 191.514 510.285V517.229H189.697V510.266C189.697 509.673 189.603 509.214 189.414 508.889C189.232 508.557 188.971 508.326 188.633 508.195C188.301 508.059 187.904 507.99 187.441 507.99C187.044 507.99 186.693 508.059 186.387 508.195C186.081 508.332 185.824 508.521 185.615 508.762C185.407 508.996 185.247 509.266 185.137 509.572C185.033 509.878 184.98 510.204 184.98 510.549ZM205.869 515.178V502.229H207.686V517.229H206.025L205.869 515.178ZM198.76 512.062V511.857C198.76 511.05 198.857 510.318 199.053 509.66C199.255 508.996 199.538 508.426 199.902 507.951C200.273 507.476 200.713 507.111 201.221 506.857C201.735 506.597 202.308 506.467 202.939 506.467C203.604 506.467 204.183 506.584 204.678 506.818C205.179 507.046 205.602 507.382 205.947 507.824C206.299 508.26 206.576 508.788 206.777 509.406C206.979 510.025 207.119 510.725 207.197 511.506V512.404C207.126 513.179 206.986 513.876 206.777 514.494C206.576 515.113 206.299 515.64 205.947 516.076C205.602 516.512 205.179 516.848 204.678 517.082C204.176 517.31 203.59 517.424 202.92 517.424C202.301 517.424 201.735 517.29 201.221 517.023C200.713 516.757 200.273 516.382 199.902 515.9C199.538 515.419 199.255 514.852 199.053 514.201C198.857 513.544 198.76 512.831 198.76 512.062ZM200.576 511.857V512.062C200.576 512.59 200.628 513.085 200.732 513.547C200.843 514.009 201.012 514.416 201.24 514.768C201.468 515.119 201.758 515.396 202.109 515.598C202.461 515.793 202.881 515.891 203.369 515.891C203.968 515.891 204.46 515.764 204.844 515.51C205.234 515.256 205.547 514.921 205.781 514.504C206.016 514.087 206.198 513.635 206.328 513.146V510.793C206.25 510.435 206.136 510.09 205.986 509.758C205.843 509.419 205.654 509.12 205.42 508.859C205.192 508.592 204.909 508.381 204.57 508.225C204.238 508.068 203.844 507.99 203.389 507.99C202.894 507.99 202.467 508.094 202.109 508.303C201.758 508.505 201.468 508.785 201.24 509.143C201.012 509.494 200.843 509.904 200.732 510.373C200.628 510.835 200.576 511.33 200.576 511.857ZM214.883 517.424C214.147 517.424 213.48 517.3 212.881 517.053C212.288 516.799 211.777 516.444 211.348 515.988C210.924 515.533 210.599 514.992 210.371 514.367C210.143 513.742 210.029 513.059 210.029 512.316V511.906C210.029 511.047 210.156 510.282 210.41 509.611C210.664 508.934 211.009 508.361 211.445 507.893C211.882 507.424 212.376 507.069 212.93 506.828C213.483 506.587 214.056 506.467 214.648 506.467C215.404 506.467 216.055 506.597 216.602 506.857C217.155 507.118 217.607 507.482 217.959 507.951C218.311 508.413 218.571 508.96 218.74 509.592C218.91 510.217 218.994 510.9 218.994 511.643V512.453H211.104V510.979H217.188V510.842C217.161 510.373 217.064 509.917 216.895 509.475C216.732 509.032 216.471 508.667 216.113 508.381C215.755 508.094 215.267 507.951 214.648 507.951C214.238 507.951 213.861 508.039 213.516 508.215C213.171 508.384 212.874 508.638 212.627 508.977C212.38 509.315 212.188 509.729 212.051 510.217C211.914 510.705 211.846 511.268 211.846 511.906V512.316C211.846 512.818 211.914 513.29 212.051 513.732C212.194 514.169 212.399 514.553 212.666 514.885C212.939 515.217 213.268 515.477 213.652 515.666C214.043 515.855 214.486 515.949 214.98 515.949C215.618 515.949 216.159 515.819 216.602 515.559C217.044 515.298 217.432 514.95 217.764 514.514L218.857 515.383C218.63 515.728 218.34 516.057 217.988 516.369C217.637 516.682 217.204 516.936 216.689 517.131C216.182 517.326 215.579 517.424 214.883 517.424ZM224.18 515.598L227.07 506.662H228.916L225.117 517.229H223.906L224.18 515.598ZM221.768 506.662L224.746 515.646L224.951 517.229H223.74L219.912 506.662H221.768ZM234.902 517.424C234.167 517.424 233.499 517.3 232.9 517.053C232.308 516.799 231.797 516.444 231.367 515.988C230.944 515.533 230.618 514.992 230.391 514.367C230.163 513.742 230.049 513.059 230.049 512.316V511.906C230.049 511.047 230.176 510.282 230.43 509.611C230.684 508.934 231.029 508.361 231.465 507.893C231.901 507.424 232.396 507.069 232.949 506.828C233.503 506.587 234.076 506.467 234.668 506.467C235.423 506.467 236.074 506.597 236.621 506.857C237.174 507.118 237.627 507.482 237.979 507.951C238.33 508.413 238.59 508.96 238.76 509.592C238.929 510.217 239.014 510.9 239.014 511.643V512.453H231.123V510.979H237.207V510.842C237.181 510.373 237.083 509.917 236.914 509.475C236.751 509.032 236.491 508.667 236.133 508.381C235.775 508.094 235.286 507.951 234.668 507.951C234.258 507.951 233.88 508.039 233.535 508.215C233.19 508.384 232.894 508.638 232.646 508.977C232.399 509.315 232.207 509.729 232.07 510.217C231.934 510.705 231.865 511.268 231.865 511.906V512.316C231.865 512.818 231.934 513.29 232.07 513.732C232.214 514.169 232.419 514.553 232.686 514.885C232.959 515.217 233.288 515.477 233.672 515.666C234.062 515.855 234.505 515.949 235 515.949C235.638 515.949 236.178 515.819 236.621 515.559C237.064 515.298 237.451 514.95 237.783 514.514L238.877 515.383C238.649 515.728 238.359 516.057 238.008 516.369C237.656 516.682 237.223 516.936 236.709 517.131C236.201 517.326 235.599 517.424 234.902 517.424ZM243.086 502.229V517.229H241.27V502.229H243.086ZM245.508 512.062V511.838C245.508 511.076 245.618 510.37 245.84 509.719C246.061 509.061 246.38 508.492 246.797 508.01C247.214 507.521 247.718 507.144 248.311 506.877C248.903 506.604 249.567 506.467 250.303 506.467C251.045 506.467 251.712 506.604 252.305 506.877C252.904 507.144 253.411 507.521 253.828 508.01C254.251 508.492 254.574 509.061 254.795 509.719C255.016 510.37 255.127 511.076 255.127 511.838V512.062C255.127 512.824 255.016 513.531 254.795 514.182C254.574 514.833 254.251 515.402 253.828 515.891C253.411 516.372 252.907 516.75 252.314 517.023C251.729 517.29 251.064 517.424 250.322 517.424C249.58 517.424 248.913 517.29 248.32 517.023C247.728 516.75 247.22 516.372 246.797 515.891C246.38 515.402 246.061 514.833 245.84 514.182C245.618 513.531 245.508 512.824 245.508 512.062ZM247.314 511.838V512.062C247.314 512.59 247.376 513.088 247.5 513.557C247.624 514.019 247.809 514.429 248.057 514.787C248.311 515.145 248.626 515.428 249.004 515.637C249.382 515.839 249.821 515.939 250.322 515.939C250.817 515.939 251.25 515.839 251.621 515.637C251.999 515.428 252.311 515.145 252.559 514.787C252.806 514.429 252.992 514.019 253.115 513.557C253.245 513.088 253.311 512.59 253.311 512.062V511.838C253.311 511.317 253.245 510.826 253.115 510.363C252.992 509.895 252.803 509.481 252.549 509.123C252.301 508.758 251.989 508.472 251.611 508.264C251.24 508.055 250.804 507.951 250.303 507.951C249.808 507.951 249.372 508.055 248.994 508.264C248.623 508.472 248.311 508.758 248.057 509.123C247.809 509.481 247.624 509.895 247.5 510.363C247.376 510.826 247.314 511.317 247.314 511.838ZM259.199 508.693V521.291H257.383V506.662H259.043L259.199 508.693ZM266.318 511.857V512.062C266.318 512.831 266.227 513.544 266.045 514.201C265.863 514.852 265.596 515.419 265.244 515.9C264.899 516.382 264.473 516.757 263.965 517.023C263.457 517.29 262.874 517.424 262.217 517.424C261.546 517.424 260.954 517.313 260.439 517.092C259.925 516.87 259.489 516.548 259.131 516.125C258.773 515.702 258.486 515.194 258.271 514.602C258.063 514.009 257.92 513.342 257.842 512.6V511.506C257.92 510.725 258.066 510.025 258.281 509.406C258.496 508.788 258.779 508.26 259.131 507.824C259.489 507.382 259.922 507.046 260.43 506.818C260.938 506.584 261.523 506.467 262.188 506.467C262.852 506.467 263.441 506.597 263.955 506.857C264.469 507.111 264.902 507.476 265.254 507.951C265.605 508.426 265.869 508.996 266.045 509.66C266.227 510.318 266.318 511.05 266.318 511.857ZM264.502 512.062V511.857C264.502 511.33 264.447 510.835 264.336 510.373C264.225 509.904 264.053 509.494 263.818 509.143C263.59 508.785 263.298 508.505 262.939 508.303C262.581 508.094 262.155 507.99 261.66 507.99C261.204 507.99 260.807 508.068 260.469 508.225C260.137 508.381 259.854 508.592 259.619 508.859C259.385 509.12 259.193 509.419 259.043 509.758C258.9 510.09 258.792 510.435 258.721 510.793V513.322C258.851 513.778 259.033 514.208 259.268 514.611C259.502 515.008 259.814 515.331 260.205 515.578C260.596 515.819 261.087 515.939 261.68 515.939C262.168 515.939 262.588 515.839 262.939 515.637C263.298 515.428 263.59 515.145 263.818 514.787C264.053 514.429 264.225 514.019 264.336 513.557C264.447 513.088 264.502 512.59 264.502 512.062ZM270.42 508.762V517.229H268.604V506.662H270.322L270.42 508.762ZM270.049 511.545L269.209 511.516C269.215 510.793 269.31 510.126 269.492 509.514C269.674 508.895 269.945 508.358 270.303 507.902C270.661 507.447 271.107 507.095 271.641 506.848C272.174 506.594 272.793 506.467 273.496 506.467C273.991 506.467 274.447 506.538 274.863 506.682C275.28 506.818 275.641 507.036 275.947 507.336C276.253 507.635 276.491 508.02 276.66 508.488C276.829 508.957 276.914 509.523 276.914 510.188V517.229H275.107V510.275C275.107 509.722 275.013 509.279 274.824 508.947C274.642 508.615 274.382 508.374 274.043 508.225C273.704 508.068 273.307 507.99 272.852 507.99C272.318 507.99 271.872 508.085 271.514 508.273C271.156 508.462 270.869 508.723 270.654 509.055C270.439 509.387 270.283 509.768 270.186 510.197C270.094 510.62 270.049 511.07 270.049 511.545ZM276.895 510.549L275.684 510.92C275.69 510.34 275.785 509.784 275.967 509.25C276.156 508.716 276.426 508.241 276.777 507.824C277.135 507.408 277.575 507.079 278.096 506.838C278.617 506.59 279.212 506.467 279.883 506.467C280.449 506.467 280.951 506.542 281.387 506.691C281.829 506.841 282.201 507.072 282.5 507.385C282.806 507.691 283.037 508.085 283.193 508.566C283.35 509.048 283.428 509.621 283.428 510.285V517.229H281.611V510.266C281.611 509.673 281.517 509.214 281.328 508.889C281.146 508.557 280.885 508.326 280.547 508.195C280.215 508.059 279.818 507.99 279.355 507.99C278.958 507.99 278.607 508.059 278.301 508.195C277.995 508.332 277.738 508.521 277.529 508.762C277.321 508.996 277.161 509.266 277.051 509.572C276.947 509.878 276.895 510.204 276.895 510.549ZM290.547 517.424C289.811 517.424 289.144 517.3 288.545 517.053C287.952 516.799 287.441 516.444 287.012 515.988C286.589 515.533 286.263 514.992 286.035 514.367C285.807 513.742 285.693 513.059 285.693 512.316V511.906C285.693 511.047 285.82 510.282 286.074 509.611C286.328 508.934 286.673 508.361 287.109 507.893C287.546 507.424 288.04 507.069 288.594 506.828C289.147 506.587 289.72 506.467 290.312 506.467C291.068 506.467 291.719 506.597 292.266 506.857C292.819 507.118 293.271 507.482 293.623 507.951C293.975 508.413 294.235 508.96 294.404 509.592C294.574 510.217 294.658 510.9 294.658 511.643V512.453H286.768V510.979H292.852V510.842C292.826 510.373 292.728 509.917 292.559 509.475C292.396 509.032 292.135 508.667 291.777 508.381C291.419 508.094 290.931 507.951 290.312 507.951C289.902 507.951 289.525 508.039 289.18 508.215C288.835 508.384 288.538 508.638 288.291 508.977C288.044 509.315 287.852 509.729 287.715 510.217C287.578 510.705 287.51 511.268 287.51 511.906V512.316C287.51 512.818 287.578 513.29 287.715 513.732C287.858 514.169 288.063 514.553 288.33 514.885C288.604 515.217 288.932 515.477 289.316 515.666C289.707 515.855 290.15 515.949 290.645 515.949C291.283 515.949 291.823 515.819 292.266 515.559C292.708 515.298 293.096 514.95 293.428 514.514L294.521 515.383C294.294 515.728 294.004 516.057 293.652 516.369C293.301 516.682 292.868 516.936 292.354 517.131C291.846 517.326 291.243 517.424 290.547 517.424ZM298.574 508.918V517.229H296.768V506.662H298.477L298.574 508.918ZM298.145 511.545L297.393 511.516C297.399 510.793 297.507 510.126 297.715 509.514C297.923 508.895 298.216 508.358 298.594 507.902C298.971 507.447 299.421 507.095 299.941 506.848C300.469 506.594 301.051 506.467 301.689 506.467C302.21 506.467 302.679 506.538 303.096 506.682C303.512 506.818 303.867 507.04 304.16 507.346C304.46 507.652 304.688 508.049 304.844 508.537C305 509.019 305.078 509.608 305.078 510.305V517.229H303.262V510.285C303.262 509.732 303.18 509.289 303.018 508.957C302.855 508.618 302.617 508.374 302.305 508.225C301.992 508.068 301.608 507.99 301.152 507.99C300.703 507.99 300.293 508.085 299.922 508.273C299.557 508.462 299.242 508.723 298.975 509.055C298.714 509.387 298.509 509.768 298.359 510.197C298.216 510.62 298.145 511.07 298.145 511.545ZM312.246 506.662V508.049H306.533V506.662H312.246ZM308.467 504.094H310.273V514.611C310.273 514.969 310.329 515.24 310.439 515.422C310.55 515.604 310.693 515.725 310.869 515.783C311.045 515.842 311.234 515.871 311.436 515.871C311.585 515.871 311.742 515.858 311.904 515.832C312.074 515.799 312.201 515.773 312.285 515.754L312.295 517.229C312.152 517.274 311.963 517.316 311.729 517.355C311.501 517.401 311.224 517.424 310.898 517.424C310.456 517.424 310.049 517.336 309.678 517.16C309.307 516.984 309.01 516.691 308.789 516.281C308.574 515.865 308.467 515.305 308.467 514.602V504.094ZM319.258 511.545V511.447C319.258 510.028 319.417 508.745 319.736 507.6C320.055 506.447 320.462 505.438 320.957 504.572C321.452 503.706 321.973 502.99 322.52 502.424C323.066 501.851 323.571 501.438 324.033 501.184L324.414 502.375C324.03 502.668 323.639 503.072 323.242 503.586C322.852 504.1 322.49 504.732 322.158 505.48C321.833 506.229 321.569 507.098 321.367 508.088C321.165 509.077 321.064 510.191 321.064 511.428V511.564C321.064 512.801 321.165 513.918 321.367 514.914C321.569 515.904 321.833 516.776 322.158 517.531C322.49 518.286 322.852 518.928 323.242 519.455C323.639 519.989 324.03 520.412 324.414 520.725L324.033 521.818C323.571 521.564 323.066 521.151 322.52 520.578C321.973 520.012 321.452 519.296 320.957 518.43C320.462 517.57 320.055 516.564 319.736 515.412C319.417 514.26 319.258 512.971 319.258 511.545ZM335.303 515.744V517.229H325.996V515.93L330.654 510.744C331.227 510.106 331.67 509.566 331.982 509.123C332.301 508.674 332.523 508.273 332.646 507.922C332.777 507.564 332.842 507.199 332.842 506.828C332.842 506.359 332.744 505.936 332.549 505.559C332.36 505.174 332.08 504.868 331.709 504.641C331.338 504.413 330.889 504.299 330.361 504.299C329.73 504.299 329.202 504.423 328.779 504.67C328.363 504.911 328.05 505.249 327.842 505.686C327.633 506.122 327.529 506.623 327.529 507.189H325.723C325.723 506.389 325.898 505.656 326.25 504.992C326.602 504.328 327.122 503.801 327.812 503.41C328.503 503.013 329.352 502.814 330.361 502.814C331.26 502.814 332.028 502.974 332.666 503.293C333.304 503.605 333.792 504.048 334.131 504.621C334.476 505.188 334.648 505.852 334.648 506.613C334.648 507.03 334.577 507.453 334.434 507.883C334.297 508.306 334.105 508.729 333.857 509.152C333.617 509.576 333.333 509.992 333.008 510.402C332.689 510.812 332.347 511.216 331.982 511.613L328.174 515.744H335.303ZM346.162 508.986V511.154C346.162 512.32 346.058 513.303 345.85 514.104C345.641 514.904 345.342 515.549 344.951 516.037C344.561 516.525 344.089 516.88 343.535 517.102C342.988 517.316 342.37 517.424 341.68 517.424C341.133 517.424 340.628 517.355 340.166 517.219C339.704 517.082 339.287 516.864 338.916 516.564C338.551 516.258 338.239 515.861 337.979 515.373C337.718 514.885 337.52 514.292 337.383 513.596C337.246 512.899 337.178 512.085 337.178 511.154V508.986C337.178 507.821 337.282 506.844 337.49 506.057C337.705 505.269 338.008 504.637 338.398 504.162C338.789 503.68 339.258 503.335 339.805 503.127C340.358 502.919 340.977 502.814 341.66 502.814C342.214 502.814 342.721 502.883 343.184 503.02C343.652 503.15 344.069 503.361 344.434 503.654C344.798 503.941 345.107 504.325 345.361 504.807C345.622 505.282 345.82 505.865 345.957 506.555C346.094 507.245 346.162 508.055 346.162 508.986ZM344.346 511.447V508.684C344.346 508.046 344.307 507.486 344.229 507.004C344.157 506.516 344.049 506.099 343.906 505.754C343.763 505.409 343.581 505.129 343.359 504.914C343.145 504.699 342.894 504.543 342.607 504.445C342.327 504.341 342.012 504.289 341.66 504.289C341.23 504.289 340.85 504.37 340.518 504.533C340.186 504.689 339.906 504.94 339.678 505.285C339.456 505.63 339.287 506.083 339.17 506.643C339.053 507.202 338.994 507.883 338.994 508.684V511.447C338.994 512.085 339.03 512.648 339.102 513.137C339.18 513.625 339.294 514.048 339.443 514.406C339.593 514.758 339.775 515.048 339.99 515.275C340.205 515.503 340.452 515.673 340.732 515.783C341.019 515.887 341.335 515.939 341.68 515.939C342.122 515.939 342.51 515.855 342.842 515.686C343.174 515.516 343.451 515.253 343.672 514.895C343.9 514.53 344.069 514.064 344.18 513.498C344.29 512.925 344.346 512.242 344.346 511.447ZM348.33 506.496V505.744C348.33 505.204 348.447 504.712 348.682 504.27C348.916 503.827 349.251 503.472 349.688 503.205C350.124 502.938 350.641 502.805 351.24 502.805C351.852 502.805 352.373 502.938 352.803 503.205C353.239 503.472 353.574 503.827 353.809 504.27C354.043 504.712 354.16 505.204 354.16 505.744V506.496C354.16 507.023 354.043 507.508 353.809 507.951C353.581 508.394 353.249 508.749 352.812 509.016C352.383 509.283 351.865 509.416 351.26 509.416C350.654 509.416 350.13 509.283 349.688 509.016C349.251 508.749 348.916 508.394 348.682 507.951C348.447 507.508 348.33 507.023 348.33 506.496ZM349.688 505.744V506.496C349.688 506.796 349.743 507.079 349.854 507.346C349.971 507.613 350.146 507.831 350.381 508C350.615 508.163 350.908 508.244 351.26 508.244C351.611 508.244 351.901 508.163 352.129 508C352.357 507.831 352.526 507.613 352.637 507.346C352.747 507.079 352.803 506.796 352.803 506.496V505.744C352.803 505.438 352.744 505.152 352.627 504.885C352.516 504.611 352.344 504.393 352.109 504.23C351.882 504.061 351.592 503.977 351.24 503.977C350.895 503.977 350.605 504.061 350.371 504.23C350.143 504.393 349.971 504.611 349.854 504.885C349.743 505.152 349.688 505.438 349.688 505.744ZM355.254 514.504V513.742C355.254 513.208 355.371 512.72 355.605 512.277C355.84 511.835 356.175 511.48 356.611 511.213C357.048 510.946 357.565 510.812 358.164 510.812C358.776 510.812 359.297 510.946 359.727 511.213C360.163 511.48 360.498 511.835 360.732 512.277C360.967 512.72 361.084 513.208 361.084 513.742V514.504C361.084 515.038 360.967 515.526 360.732 515.969C360.505 516.411 360.173 516.766 359.736 517.033C359.307 517.3 358.789 517.434 358.184 517.434C357.578 517.434 357.057 517.3 356.621 517.033C356.185 516.766 355.846 516.411 355.605 515.969C355.371 515.526 355.254 515.038 355.254 514.504ZM356.611 513.742V514.504C356.611 514.803 356.667 515.09 356.777 515.363C356.895 515.63 357.07 515.848 357.305 516.018C357.539 516.18 357.832 516.262 358.184 516.262C358.535 516.262 358.825 516.18 359.053 516.018C359.287 515.848 359.46 515.63 359.57 515.363C359.681 515.096 359.736 514.81 359.736 514.504V513.742C359.736 513.436 359.678 513.15 359.561 512.883C359.45 512.616 359.277 512.401 359.043 512.238C358.815 512.069 358.522 511.984 358.164 511.984C357.819 511.984 357.529 512.069 357.295 512.238C357.067 512.401 356.895 512.616 356.777 512.883C356.667 513.15 356.611 513.436 356.611 513.742ZM358.613 505.031L351.67 516.145L350.654 515.5L357.598 504.387L358.613 505.031ZM367.49 511.447V511.545C367.49 512.971 367.331 514.26 367.012 515.412C366.693 516.564 366.286 517.57 365.791 518.43C365.296 519.296 364.775 520.012 364.229 520.578C363.682 521.151 363.177 521.564 362.715 521.818L362.334 520.725C362.718 520.432 363.105 520.021 363.496 519.494C363.887 518.973 364.248 518.329 364.58 517.561C364.912 516.799 365.179 515.92 365.381 514.924C365.583 513.921 365.684 512.801 365.684 511.564V511.428C365.684 510.191 365.576 509.074 365.361 508.078C365.146 507.076 364.867 506.193 364.521 505.432C364.183 504.67 363.818 504.029 363.428 503.508C363.044 502.98 362.679 502.574 362.334 502.287L362.715 501.184C363.177 501.438 363.682 501.851 364.229 502.424C364.775 502.99 365.296 503.706 365.791 504.572C366.286 505.438 366.693 506.447 367.012 507.6C367.331 508.745 367.49 510.028 367.49 511.447Z" fill="#FFFDF0" fill-opacity="0.8"/>
<rect x="56" y="530.229" width="23" height="23" rx="11.5" fill="#01D308"/>
<path d="M101.895 543.652H98.0957V542.119H101.895C102.63 542.119 103.226 542.002 103.682 541.768C104.137 541.533 104.469 541.208 104.678 540.791C104.893 540.374 105 539.899 105 539.365C105 538.877 104.893 538.418 104.678 537.988C104.469 537.559 104.137 537.214 103.682 536.953C103.226 536.686 102.63 536.553 101.895 536.553H98.5352V549.229H96.6504V535.01H101.895C102.969 535.01 103.877 535.195 104.619 535.566C105.361 535.938 105.924 536.452 106.309 537.109C106.693 537.76 106.885 538.506 106.885 539.346C106.885 540.257 106.693 541.035 106.309 541.68C105.924 542.324 105.361 542.816 104.619 543.154C103.877 543.486 102.969 543.652 101.895 543.652ZM115.107 547.422V541.982C115.107 541.566 115.023 541.204 114.854 540.898C114.691 540.586 114.443 540.345 114.111 540.176C113.779 540.007 113.369 539.922 112.881 539.922C112.425 539.922 112.025 540 111.68 540.156C111.341 540.312 111.074 540.518 110.879 540.771C110.69 541.025 110.596 541.299 110.596 541.592H108.789C108.789 541.214 108.887 540.84 109.082 540.469C109.277 540.098 109.557 539.762 109.922 539.463C110.293 539.157 110.736 538.916 111.25 538.74C111.771 538.558 112.35 538.467 112.988 538.467C113.757 538.467 114.434 538.597 115.02 538.857C115.612 539.118 116.074 539.512 116.406 540.039C116.745 540.56 116.914 541.214 116.914 542.002V546.924C116.914 547.275 116.943 547.65 117.002 548.047C117.067 548.444 117.161 548.786 117.285 549.072V549.229H115.4C115.309 549.02 115.238 548.743 115.186 548.398C115.133 548.047 115.107 547.721 115.107 547.422ZM115.42 542.822L115.439 544.092H113.613C113.099 544.092 112.64 544.134 112.236 544.219C111.833 544.297 111.494 544.417 111.221 544.58C110.947 544.743 110.739 544.948 110.596 545.195C110.452 545.436 110.381 545.719 110.381 546.045C110.381 546.377 110.456 546.68 110.605 546.953C110.755 547.227 110.98 547.445 111.279 547.607C111.585 547.764 111.96 547.842 112.402 547.842C112.956 547.842 113.444 547.725 113.867 547.49C114.29 547.256 114.626 546.969 114.873 546.631C115.127 546.292 115.264 545.964 115.283 545.645L116.055 546.514C116.009 546.787 115.885 547.09 115.684 547.422C115.482 547.754 115.212 548.073 114.873 548.379C114.541 548.678 114.144 548.929 113.682 549.131C113.226 549.326 112.712 549.424 112.139 549.424C111.423 549.424 110.794 549.284 110.254 549.004C109.72 548.724 109.303 548.35 109.004 547.881C108.711 547.406 108.564 546.875 108.564 546.289C108.564 545.723 108.675 545.225 108.896 544.795C109.118 544.359 109.437 543.997 109.854 543.711C110.27 543.418 110.771 543.197 111.357 543.047C111.943 542.897 112.598 542.822 113.32 542.822H115.42ZM121.562 540.322V549.229H119.756V538.662H121.514L121.562 540.322ZM124.863 538.604L124.854 540.283C124.704 540.251 124.561 540.231 124.424 540.225C124.294 540.212 124.144 540.205 123.975 540.205C123.558 540.205 123.19 540.27 122.871 540.4C122.552 540.531 122.282 540.713 122.061 540.947C121.839 541.182 121.663 541.462 121.533 541.787C121.41 542.106 121.328 542.458 121.289 542.842L120.781 543.135C120.781 542.497 120.843 541.898 120.967 541.338C121.097 540.778 121.296 540.283 121.562 539.854C121.829 539.417 122.168 539.079 122.578 538.838C122.995 538.59 123.49 538.467 124.062 538.467C124.193 538.467 124.342 538.483 124.512 538.516C124.681 538.542 124.798 538.571 124.863 538.604ZM131.445 538.662V540.049H125.732V538.662H131.445ZM127.666 536.094H129.473V546.611C129.473 546.969 129.528 547.24 129.639 547.422C129.749 547.604 129.893 547.725 130.068 547.783C130.244 547.842 130.433 547.871 130.635 547.871C130.785 547.871 130.941 547.858 131.104 547.832C131.273 547.799 131.4 547.773 131.484 547.754L131.494 549.229C131.351 549.274 131.162 549.316 130.928 549.355C130.7 549.401 130.423 549.424 130.098 549.424C129.655 549.424 129.248 549.336 128.877 549.16C128.506 548.984 128.21 548.691 127.988 548.281C127.773 547.865 127.666 547.305 127.666 546.602V536.094ZM135.371 540.918V549.229H133.564V538.662H135.273L135.371 540.918ZM134.941 543.545L134.189 543.516C134.196 542.793 134.303 542.126 134.512 541.514C134.72 540.895 135.013 540.358 135.391 539.902C135.768 539.447 136.217 539.095 136.738 538.848C137.266 538.594 137.848 538.467 138.486 538.467C139.007 538.467 139.476 538.538 139.893 538.682C140.309 538.818 140.664 539.04 140.957 539.346C141.257 539.652 141.484 540.049 141.641 540.537C141.797 541.019 141.875 541.608 141.875 542.305V549.229H140.059V542.285C140.059 541.732 139.977 541.289 139.814 540.957C139.652 540.618 139.414 540.374 139.102 540.225C138.789 540.068 138.405 539.99 137.949 539.99C137.5 539.99 137.09 540.085 136.719 540.273C136.354 540.462 136.038 540.723 135.771 541.055C135.511 541.387 135.306 541.768 135.156 542.197C135.013 542.62 134.941 543.07 134.941 543.545ZM149.004 549.424C148.268 549.424 147.601 549.3 147.002 549.053C146.41 548.799 145.898 548.444 145.469 547.988C145.046 547.533 144.72 546.992 144.492 546.367C144.264 545.742 144.15 545.059 144.15 544.316V543.906C144.15 543.047 144.277 542.282 144.531 541.611C144.785 540.934 145.13 540.361 145.566 539.893C146.003 539.424 146.497 539.069 147.051 538.828C147.604 538.587 148.177 538.467 148.77 538.467C149.525 538.467 150.176 538.597 150.723 538.857C151.276 539.118 151.729 539.482 152.08 539.951C152.432 540.413 152.692 540.96 152.861 541.592C153.031 542.217 153.115 542.9 153.115 543.643V544.453H145.225V542.979H151.309V542.842C151.283 542.373 151.185 541.917 151.016 541.475C150.853 541.032 150.592 540.667 150.234 540.381C149.876 540.094 149.388 539.951 148.77 539.951C148.359 539.951 147.982 540.039 147.637 540.215C147.292 540.384 146.995 540.638 146.748 540.977C146.501 541.315 146.309 541.729 146.172 542.217C146.035 542.705 145.967 543.268 145.967 543.906V544.316C145.967 544.818 146.035 545.29 146.172 545.732C146.315 546.169 146.52 546.553 146.787 546.885C147.061 547.217 147.389 547.477 147.773 547.666C148.164 547.855 148.607 547.949 149.102 547.949C149.74 547.949 150.28 547.819 150.723 547.559C151.165 547.298 151.553 546.95 151.885 546.514L152.979 547.383C152.751 547.728 152.461 548.057 152.109 548.369C151.758 548.682 151.325 548.936 150.811 549.131C150.303 549.326 149.701 549.424 149.004 549.424ZM157.031 540.322V549.229H155.225V538.662H156.982L157.031 540.322ZM160.332 538.604L160.322 540.283C160.173 540.251 160.029 540.231 159.893 540.225C159.762 540.212 159.613 540.205 159.443 540.205C159.027 540.205 158.659 540.27 158.34 540.4C158.021 540.531 157.751 540.713 157.529 540.947C157.308 541.182 157.132 541.462 157.002 541.787C156.878 542.106 156.797 542.458 156.758 542.842L156.25 543.135C156.25 542.497 156.312 541.898 156.436 541.338C156.566 540.778 156.764 540.283 157.031 539.854C157.298 539.417 157.637 539.079 158.047 538.838C158.464 538.59 158.958 538.467 159.531 538.467C159.661 538.467 159.811 538.483 159.98 538.516C160.15 538.542 160.267 538.571 160.332 538.604ZM168.154 546.426C168.154 546.165 168.096 545.924 167.979 545.703C167.868 545.475 167.637 545.27 167.285 545.088C166.94 544.899 166.419 544.736 165.723 544.6C165.137 544.476 164.606 544.329 164.131 544.16C163.662 543.991 163.262 543.786 162.93 543.545C162.604 543.304 162.354 543.021 162.178 542.695C162.002 542.37 161.914 541.989 161.914 541.553C161.914 541.136 162.005 540.742 162.188 540.371C162.376 540 162.64 539.671 162.979 539.385C163.324 539.098 163.737 538.874 164.219 538.711C164.701 538.548 165.238 538.467 165.83 538.467C166.676 538.467 167.399 538.617 167.998 538.916C168.597 539.215 169.056 539.616 169.375 540.117C169.694 540.612 169.854 541.162 169.854 541.768H168.047C168.047 541.475 167.959 541.191 167.783 540.918C167.614 540.638 167.363 540.407 167.031 540.225C166.706 540.042 166.305 539.951 165.83 539.951C165.329 539.951 164.922 540.029 164.609 540.186C164.303 540.335 164.079 540.527 163.936 540.762C163.799 540.996 163.73 541.243 163.73 541.504C163.73 541.699 163.763 541.875 163.828 542.031C163.9 542.181 164.023 542.321 164.199 542.451C164.375 542.575 164.622 542.692 164.941 542.803C165.26 542.913 165.667 543.024 166.162 543.135C167.028 543.33 167.741 543.564 168.301 543.838C168.861 544.111 169.277 544.447 169.551 544.844C169.824 545.241 169.961 545.723 169.961 546.289C169.961 546.751 169.863 547.174 169.668 547.559C169.479 547.943 169.202 548.275 168.838 548.555C168.48 548.828 168.05 549.043 167.549 549.199C167.054 549.349 166.497 549.424 165.879 549.424C164.948 549.424 164.16 549.258 163.516 548.926C162.871 548.594 162.383 548.164 162.051 547.637C161.719 547.109 161.553 546.553 161.553 545.967H163.369C163.395 546.462 163.538 546.855 163.799 547.148C164.059 547.435 164.378 547.64 164.756 547.764C165.133 547.881 165.508 547.939 165.879 547.939C166.374 547.939 166.787 547.874 167.119 547.744C167.458 547.614 167.715 547.435 167.891 547.207C168.066 546.979 168.154 546.719 168.154 546.426ZM174.141 534.229V549.229H172.334V534.229H174.141ZM173.711 543.545L172.959 543.516C172.965 542.793 173.073 542.126 173.281 541.514C173.49 540.895 173.783 540.358 174.16 539.902C174.538 539.447 174.987 539.095 175.508 538.848C176.035 538.594 176.618 538.467 177.256 538.467C177.777 538.467 178.245 538.538 178.662 538.682C179.079 538.818 179.434 539.04 179.727 539.346C180.026 539.652 180.254 540.049 180.41 540.537C180.566 541.019 180.645 541.608 180.645 542.305V549.229H178.828V542.285C178.828 541.732 178.747 541.289 178.584 540.957C178.421 540.618 178.184 540.374 177.871 540.225C177.559 540.068 177.174 539.99 176.719 539.99C176.27 539.99 175.859 540.085 175.488 540.273C175.124 540.462 174.808 540.723 174.541 541.055C174.281 541.387 174.076 541.768 173.926 542.197C173.783 542.62 173.711 543.07 173.711 543.545ZM185.312 538.662V549.229H183.496V538.662H185.312ZM183.359 535.859C183.359 535.566 183.447 535.319 183.623 535.117C183.805 534.915 184.072 534.814 184.424 534.814C184.769 534.814 185.033 534.915 185.215 535.117C185.404 535.319 185.498 535.566 185.498 535.859C185.498 536.139 185.404 536.38 185.215 536.582C185.033 536.777 184.769 536.875 184.424 536.875C184.072 536.875 183.805 536.777 183.623 536.582C183.447 536.38 183.359 536.139 183.359 535.859ZM190.02 540.693V553.291H188.203V538.662H189.863L190.02 540.693ZM197.139 543.857V544.062C197.139 544.831 197.048 545.544 196.865 546.201C196.683 546.852 196.416 547.419 196.064 547.9C195.719 548.382 195.293 548.757 194.785 549.023C194.277 549.29 193.695 549.424 193.037 549.424C192.367 549.424 191.774 549.313 191.26 549.092C190.745 548.87 190.309 548.548 189.951 548.125C189.593 547.702 189.307 547.194 189.092 546.602C188.883 546.009 188.74 545.342 188.662 544.6V543.506C188.74 542.725 188.887 542.025 189.102 541.406C189.316 540.788 189.6 540.26 189.951 539.824C190.309 539.382 190.742 539.046 191.25 538.818C191.758 538.584 192.344 538.467 193.008 538.467C193.672 538.467 194.261 538.597 194.775 538.857C195.29 539.111 195.723 539.476 196.074 539.951C196.426 540.426 196.689 540.996 196.865 541.66C197.048 542.318 197.139 543.05 197.139 543.857ZM195.322 544.062V543.857C195.322 543.33 195.267 542.835 195.156 542.373C195.046 541.904 194.873 541.494 194.639 541.143C194.411 540.785 194.118 540.505 193.76 540.303C193.402 540.094 192.975 539.99 192.48 539.99C192.025 539.99 191.628 540.068 191.289 540.225C190.957 540.381 190.674 540.592 190.439 540.859C190.205 541.12 190.013 541.419 189.863 541.758C189.72 542.09 189.613 542.435 189.541 542.793V545.322C189.671 545.778 189.854 546.208 190.088 546.611C190.322 547.008 190.635 547.331 191.025 547.578C191.416 547.819 191.908 547.939 192.5 547.939C192.988 547.939 193.408 547.839 193.76 547.637C194.118 547.428 194.411 547.145 194.639 546.787C194.873 546.429 195.046 546.019 195.156 545.557C195.267 545.088 195.322 544.59 195.322 544.062ZM205.596 546.426C205.596 546.165 205.537 545.924 205.42 545.703C205.309 545.475 205.078 545.27 204.727 545.088C204.382 544.899 203.861 544.736 203.164 544.6C202.578 544.476 202.048 544.329 201.572 544.16C201.104 543.991 200.703 543.786 200.371 543.545C200.046 543.304 199.795 543.021 199.619 542.695C199.443 542.37 199.355 541.989 199.355 541.553C199.355 541.136 199.447 540.742 199.629 540.371C199.818 540 200.081 539.671 200.42 539.385C200.765 539.098 201.178 538.874 201.66 538.711C202.142 538.548 202.679 538.467 203.271 538.467C204.118 538.467 204.84 538.617 205.439 538.916C206.038 539.215 206.497 539.616 206.816 540.117C207.135 540.612 207.295 541.162 207.295 541.768H205.488C205.488 541.475 205.4 541.191 205.225 540.918C205.055 540.638 204.805 540.407 204.473 540.225C204.147 540.042 203.747 539.951 203.271 539.951C202.77 539.951 202.363 540.029 202.051 540.186C201.745 540.335 201.52 540.527 201.377 540.762C201.24 540.996 201.172 541.243 201.172 541.504C201.172 541.699 201.204 541.875 201.27 542.031C201.341 542.181 201.465 542.321 201.641 542.451C201.816 542.575 202.064 542.692 202.383 542.803C202.702 542.913 203.109 543.024 203.604 543.135C204.469 543.33 205.182 543.564 205.742 543.838C206.302 544.111 206.719 544.447 206.992 544.844C207.266 545.241 207.402 545.723 207.402 546.289C207.402 546.751 207.305 547.174 207.109 547.559C206.921 547.943 206.644 548.275 206.279 548.555C205.921 548.828 205.492 549.043 204.99 549.199C204.495 549.349 203.939 549.424 203.32 549.424C202.389 549.424 201.602 549.258 200.957 548.926C200.312 548.594 199.824 548.164 199.492 547.637C199.16 547.109 198.994 546.553 198.994 545.967H200.811C200.837 546.462 200.98 546.855 201.24 547.148C201.501 547.435 201.82 547.64 202.197 547.764C202.575 547.881 202.949 547.939 203.32 547.939C203.815 547.939 204.229 547.874 204.561 547.744C204.899 547.614 205.156 547.435 205.332 547.207C205.508 546.979 205.596 546.719 205.596 546.426ZM209.707 543.545V543.447C209.707 542.028 209.867 540.745 210.186 539.6C210.505 538.447 210.911 537.438 211.406 536.572C211.901 535.706 212.422 534.99 212.969 534.424C213.516 533.851 214.02 533.438 214.482 533.184L214.863 534.375C214.479 534.668 214.089 535.072 213.691 535.586C213.301 536.1 212.939 536.732 212.607 537.48C212.282 538.229 212.018 539.098 211.816 540.088C211.615 541.077 211.514 542.191 211.514 543.428V543.564C211.514 544.801 211.615 545.918 211.816 546.914C212.018 547.904 212.282 548.776 212.607 549.531C212.939 550.286 213.301 550.928 213.691 551.455C214.089 551.989 214.479 552.412 214.863 552.725L214.482 553.818C214.02 553.564 213.516 553.151 212.969 552.578C212.422 552.012 211.901 551.296 211.406 550.43C210.911 549.57 210.505 548.564 210.186 547.412C209.867 546.26 209.707 544.971 209.707 543.545ZM222.373 534.932V549.229H220.566V537.188L216.924 538.516V536.885L222.09 534.932H222.373ZM236.611 540.986V543.154C236.611 544.32 236.507 545.303 236.299 546.104C236.09 546.904 235.791 547.549 235.4 548.037C235.01 548.525 234.538 548.88 233.984 549.102C233.438 549.316 232.819 549.424 232.129 549.424C231.582 549.424 231.077 549.355 230.615 549.219C230.153 549.082 229.736 548.864 229.365 548.564C229.001 548.258 228.688 547.861 228.428 547.373C228.167 546.885 227.969 546.292 227.832 545.596C227.695 544.899 227.627 544.085 227.627 543.154V540.986C227.627 539.821 227.731 538.844 227.939 538.057C228.154 537.269 228.457 536.637 228.848 536.162C229.238 535.68 229.707 535.335 230.254 535.127C230.807 534.919 231.426 534.814 232.109 534.814C232.663 534.814 233.171 534.883 233.633 535.02C234.102 535.15 234.518 535.361 234.883 535.654C235.247 535.941 235.557 536.325 235.811 536.807C236.071 537.282 236.27 537.865 236.406 538.555C236.543 539.245 236.611 540.055 236.611 540.986ZM234.795 543.447V540.684C234.795 540.046 234.756 539.486 234.678 539.004C234.606 538.516 234.499 538.099 234.355 537.754C234.212 537.409 234.03 537.129 233.809 536.914C233.594 536.699 233.343 536.543 233.057 536.445C232.777 536.341 232.461 536.289 232.109 536.289C231.68 536.289 231.299 536.37 230.967 536.533C230.635 536.689 230.355 536.94 230.127 537.285C229.906 537.63 229.736 538.083 229.619 538.643C229.502 539.202 229.443 539.883 229.443 540.684V543.447C229.443 544.085 229.479 544.648 229.551 545.137C229.629 545.625 229.743 546.048 229.893 546.406C230.042 546.758 230.225 547.048 230.439 547.275C230.654 547.503 230.902 547.673 231.182 547.783C231.468 547.887 231.784 547.939 232.129 547.939C232.572 547.939 232.959 547.855 233.291 547.686C233.623 547.516 233.9 547.253 234.121 546.895C234.349 546.53 234.518 546.064 234.629 545.498C234.74 544.925 234.795 544.242 234.795 543.447ZM238.779 538.496V537.744C238.779 537.204 238.896 536.712 239.131 536.27C239.365 535.827 239.701 535.472 240.137 535.205C240.573 534.938 241.09 534.805 241.689 534.805C242.301 534.805 242.822 534.938 243.252 535.205C243.688 535.472 244.023 535.827 244.258 536.27C244.492 536.712 244.609 537.204 244.609 537.744V538.496C244.609 539.023 244.492 539.508 244.258 539.951C244.03 540.394 243.698 540.749 243.262 541.016C242.832 541.283 242.314 541.416 241.709 541.416C241.104 541.416 240.579 541.283 240.137 541.016C239.701 540.749 239.365 540.394 239.131 539.951C238.896 539.508 238.779 539.023 238.779 538.496ZM240.137 537.744V538.496C240.137 538.796 240.192 539.079 240.303 539.346C240.42 539.613 240.596 539.831 240.83 540C241.064 540.163 241.357 540.244 241.709 540.244C242.061 540.244 242.35 540.163 242.578 540C242.806 539.831 242.975 539.613 243.086 539.346C243.197 539.079 243.252 538.796 243.252 538.496V537.744C243.252 537.438 243.193 537.152 243.076 536.885C242.965 536.611 242.793 536.393 242.559 536.23C242.331 536.061 242.041 535.977 241.689 535.977C241.344 535.977 241.055 536.061 240.82 536.23C240.592 536.393 240.42 536.611 240.303 536.885C240.192 537.152 240.137 537.438 240.137 537.744ZM245.703 546.504V545.742C245.703 545.208 245.82 544.72 246.055 544.277C246.289 543.835 246.624 543.48 247.061 543.213C247.497 542.946 248.014 542.812 248.613 542.812C249.225 542.812 249.746 542.946 250.176 543.213C250.612 543.48 250.947 543.835 251.182 544.277C251.416 544.72 251.533 545.208 251.533 545.742V546.504C251.533 547.038 251.416 547.526 251.182 547.969C250.954 548.411 250.622 548.766 250.186 549.033C249.756 549.3 249.238 549.434 248.633 549.434C248.027 549.434 247.507 549.3 247.07 549.033C246.634 548.766 246.296 548.411 246.055 547.969C245.82 547.526 245.703 547.038 245.703 546.504ZM247.061 545.742V546.504C247.061 546.803 247.116 547.09 247.227 547.363C247.344 547.63 247.52 547.848 247.754 548.018C247.988 548.18 248.281 548.262 248.633 548.262C248.984 548.262 249.274 548.18 249.502 548.018C249.736 547.848 249.909 547.63 250.02 547.363C250.13 547.096 250.186 546.81 250.186 546.504V545.742C250.186 545.436 250.127 545.15 250.01 544.883C249.899 544.616 249.727 544.401 249.492 544.238C249.264 544.069 248.971 543.984 248.613 543.984C248.268 543.984 247.979 544.069 247.744 544.238C247.516 544.401 247.344 544.616 247.227 544.883C247.116 545.15 247.061 545.436 247.061 545.742ZM249.062 537.031L242.119 548.145L241.104 547.5L248.047 536.387L249.062 537.031ZM257.939 543.447V543.545C257.939 544.971 257.78 546.26 257.461 547.412C257.142 548.564 256.735 549.57 256.24 550.43C255.745 551.296 255.225 552.012 254.678 552.578C254.131 553.151 253.626 553.564 253.164 553.818L252.783 552.725C253.167 552.432 253.555 552.021 253.945 551.494C254.336 550.973 254.697 550.329 255.029 549.561C255.361 548.799 255.628 547.92 255.83 546.924C256.032 545.921 256.133 544.801 256.133 543.564V543.428C256.133 542.191 256.025 541.074 255.811 540.078C255.596 539.076 255.316 538.193 254.971 537.432C254.632 536.67 254.268 536.029 253.877 535.508C253.493 534.98 253.128 534.574 252.783 534.287L253.164 533.184C253.626 533.438 254.131 533.851 254.678 534.424C255.225 534.99 255.745 535.706 256.24 536.572C256.735 537.438 257.142 538.447 257.461 539.6C257.78 540.745 257.939 542.028 257.939 543.447Z" fill="#FFFDF0" fill-opacity="0.8"/>
</svg>
