<svg width="29" height="29" viewBox="0 0 29 29" fill="none" xmlns="http://www.w3.org/2000/svg">
<path d="M14.5525 28.1934C22.2845 28.1934 28.5525 21.9254 28.5525 14.1934C28.5525 6.46138 22.2845 0.193359 14.5525 0.193359C6.82051 0.193359 0.55249 6.46138 0.55249 14.1934C0.55249 21.9254 6.82051 28.1934 14.5525 28.1934Z" fill="#26A17B"/>
<path fill-rule="evenodd" clip-rule="evenodd" d="M16.2312 15.4034V15.4016C16.1349 15.4087 15.6388 15.4384 14.5319 15.4384C13.6481 15.4384 13.026 15.4122 12.8072 15.4016V15.4043C9.40523 15.2547 6.86601 14.6623 6.86601 13.9536C6.86601 13.2456 9.40523 12.6533 12.8072 12.5011V14.8145C13.0295 14.8303 13.6665 14.868 14.5468 14.868C15.6029 14.868 16.1323 14.8242 16.2312 14.8154V12.5028C19.6261 12.6542 22.1592 13.2465 22.1592 13.9536C22.1592 14.6623 19.6261 15.2529 16.2312 15.4034ZM16.2312 12.2622V10.192H20.9684V7.03491H8.07002V10.192H12.8072V12.2613C8.95723 12.438 6.06189 13.2011 6.06189 14.1145C6.06189 15.028 8.95723 15.7902 12.8072 15.9678V22.602H16.2312V15.966C20.075 15.7893 22.9634 15.0272 22.9634 14.1145C22.9634 13.202 20.075 12.4398 16.2312 12.2622Z" fill="#FFFDF0"/>
</svg>
