<svg width="1512" height="1201" viewBox="0 0 1512 1201" fill="none" xmlns="http://www.w3.org/2000/svg">
<g opacity="0.8">
<mask id="mask0_193_1412" style="mask-type:luminance" maskUnits="userSpaceOnUse" x="0" y="0" width="1512" height="1201">
<path d="M0.5 1200.23V1.01172H1511.5V1200.23H0.5Z" fill="white" stroke="white"/>
</mask>
<g mask="url(#mask0_193_1412)">
<g opacity="0.3">
<mask id="path-2-inside-1_193_1412" fill="white">
<path d="M1362.82 250.405V295.766H1347.01H1322.51H1298.01H1273.51H1249.01H1224.51H1216.66C1211.02 295.766 1205.48 296.203 1200.01 296.966C1191.6 298.14 1183.41 300.173 1175.51 303.025C1166.97 306.105 1158.79 310.13 1151.01 314.975C1142.28 320.414 1134.06 326.869 1126.51 334.264C1117.3 343.285 1109.07 353.67 1102.01 365.132C1090.22 384.266 1081.71 406.429 1077.51 430.462C1075.57 441.518 1074.54 452.966 1074.52 464.692C1074.51 478.72 1065.16 490.202 1053.38 490.202H1053.01H1028.51H1004.01H979.512H955.012H930.511H906.011H881.51H857.01H832.509H808.009H783.508H760.238C759.825 490.202 759.419 490.235 759.008 490.238C750.632 490.329 742.441 491.344 734.508 493.221C726.016 495.23 717.823 498.217 710.007 502.074C701.33 506.357 693.129 511.719 685.507 518.013C676.441 525.5 668.215 534.312 661.006 544.211C650.416 558.756 642.036 575.633 636.506 594.136C631.607 610.526 628.918 628.167 628.918 646.559V698.607C628.918 710.792 621.656 720.956 612.005 723.301C610.63 723.634 609.207 723.812 607.75 723.812H587.507H563.006H538.506H514.006H489.505H465.005H440.504H416.004H391.503H367.003H342.518H335.12C329.328 723.812 323.629 724.273 318.018 725.075C309.605 726.277 301.412 728.322 293.518 731.196C284.978 734.304 276.791 738.361 269.017 743.234C260.278 748.712 252.063 755.215 244.517 762.656C235.287 771.758 227.064 782.243 220.016 793.811C207.999 813.54 199.477 836.469 195.516 861.333C193.879 871.609 192.988 882.2 192.988 893.043V969.089C192.988 983.009 183.511 994.293 171.82 994.293H171.015H146.521H122.023H97.5221H73.0216H48.5232H24.0227H-0.47773H-24.9782H-49.4786H-73.9791H-98.4795H-122.976V1138.32H-98.4755H-73.9751H-49.4746H-24.9742H-0.473694H24.0267H48.5272H73.0276H97.5281H122.029H146.529H171.029H171.834C179.912 1138.32 187.821 1137.47 195.53 1135.93C203.971 1134.25 212.164 1131.7 220.03 1128.32C228.612 1124.64 236.806 1119.99 244.531 1114.51C253.367 1108.23 261.57 1100.84 269.031 1092.5C278.502 1081.93 286.774 1069.85 293.532 1056.54C306.497 1031.02 313.964 1001.09 313.964 969.089V893.043C313.964 887.5 315.484 882.392 318.03 878.232C321.879 871.943 328.096 867.838 335.132 867.838H342.531H367.031H391.531H416.032H440.532H465.033H489.533H514.034H538.534H563.035H587.535H607.778C609.205 867.838 610.616 867.759 612.034 867.711C620.398 867.418 628.591 866.314 636.534 864.37C645.005 862.298 653.186 859.29 661.034 855.51C669.655 851.357 677.852 846.234 685.535 840.24C694.45 833.286 702.663 825.173 710.035 816.078C719.815 804.011 728.095 790.227 734.536 775.131C744.344 752.144 749.908 726.157 749.908 698.607V673.693C749.908 663.165 753.391 653.623 759.034 646.547C765.074 638.973 773.59 634.225 783.053 634.225H783.533H808.033H832.534H857.034H881.534H906.035H930.535H955.036H979.536H1004.04H1028.54H1053.04H1053.39C1061.62 634.225 1069.68 633.342 1077.54 631.731C1085.98 630.003 1094.17 627.394 1102.04 623.968C1110.62 620.233 1118.82 615.538 1126.54 609.993C1135.37 603.649 1143.59 596.21 1151.04 587.808C1160.54 577.09 1168.8 564.834 1175.54 551.372C1186.4 529.691 1193.32 504.909 1195.07 478.413C1195.5 472.014 1197.29 465.984 1200.04 460.659C1205.38 450.333 1214.41 442.726 1224.54 440.489C1226.55 440.044 1228.59 439.79 1230.67 439.79H1249.04H1273.54H1298.04H1322.54H1347.04H1362.82L1364.14 486.531C1364.47 498.101 1376.23 503.644 1383.12 495.478L1490.89 367.779L1381.72 240.919C1374.67 232.728 1362.82 238.674 1362.82 250.405Z"/>
</mask>
<path d="M1362.82 250.405V295.766H1347.01H1322.51H1298.01H1273.51H1249.01H1224.51H1216.66C1211.02 295.766 1205.48 296.203 1200.01 296.966C1191.6 298.14 1183.41 300.173 1175.51 303.025C1166.97 306.105 1158.79 310.13 1151.01 314.975C1142.28 320.414 1134.06 326.869 1126.51 334.264C1117.3 343.285 1109.07 353.67 1102.01 365.132C1090.22 384.266 1081.71 406.429 1077.51 430.462C1075.57 441.518 1074.54 452.966 1074.52 464.692C1074.51 478.72 1065.16 490.202 1053.38 490.202H1053.01H1028.51H1004.01H979.512H955.012H930.511H906.011H881.51H857.01H832.509H808.009H783.508H760.238C759.825 490.202 759.419 490.235 759.008 490.238C750.632 490.329 742.441 491.344 734.508 493.221C726.016 495.23 717.823 498.217 710.007 502.074C701.33 506.357 693.129 511.719 685.507 518.013C676.441 525.5 668.215 534.312 661.006 544.211C650.416 558.756 642.036 575.633 636.506 594.136C631.607 610.526 628.918 628.167 628.918 646.559V698.607C628.918 710.792 621.656 720.956 612.005 723.301C610.63 723.634 609.207 723.812 607.75 723.812H587.507H563.006H538.506H514.006H489.505H465.005H440.504H416.004H391.503H367.003H342.518H335.12C329.328 723.812 323.629 724.273 318.018 725.075C309.605 726.277 301.412 728.322 293.518 731.196C284.978 734.304 276.791 738.361 269.017 743.234C260.278 748.712 252.063 755.215 244.517 762.656C235.287 771.758 227.064 782.243 220.016 793.811C207.999 813.54 199.477 836.469 195.516 861.333C193.879 871.609 192.988 882.2 192.988 893.043V969.089C192.988 983.009 183.511 994.293 171.82 994.293H171.015H146.521H122.023H97.5221H73.0216H48.5232H24.0227H-0.47773H-24.9782H-49.4786H-73.9791H-98.4795H-122.976V1138.32H-98.4755H-73.9751H-49.4746H-24.9742H-0.473694H24.0267H48.5272H73.0276H97.5281H122.029H146.529H171.029H171.834C179.912 1138.32 187.821 1137.47 195.53 1135.93C203.971 1134.25 212.164 1131.7 220.03 1128.32C228.612 1124.64 236.806 1119.99 244.531 1114.51C253.367 1108.23 261.57 1100.84 269.031 1092.5C278.502 1081.93 286.774 1069.85 293.532 1056.54C306.497 1031.02 313.964 1001.09 313.964 969.089V893.043C313.964 887.5 315.484 882.392 318.03 878.232C321.879 871.943 328.096 867.838 335.132 867.838H342.531H367.031H391.531H416.032H440.532H465.033H489.533H514.034H538.534H563.035H587.535H607.778C609.205 867.838 610.616 867.759 612.034 867.711C620.398 867.418 628.591 866.314 636.534 864.37C645.005 862.298 653.186 859.29 661.034 855.51C669.655 851.357 677.852 846.234 685.535 840.24C694.45 833.286 702.663 825.173 710.035 816.078C719.815 804.011 728.095 790.227 734.536 775.131C744.344 752.144 749.908 726.157 749.908 698.607V673.693C749.908 663.165 753.391 653.623 759.034 646.547C765.074 638.973 773.59 634.225 783.053 634.225H783.533H808.033H832.534H857.034H881.534H906.035H930.535H955.036H979.536H1004.04H1028.54H1053.04H1053.39C1061.62 634.225 1069.68 633.342 1077.54 631.731C1085.98 630.003 1094.17 627.394 1102.04 623.968C1110.62 620.233 1118.82 615.538 1126.54 609.993C1135.37 603.649 1143.59 596.21 1151.04 587.808C1160.54 577.09 1168.8 564.834 1175.54 551.372C1186.4 529.691 1193.32 504.909 1195.07 478.413C1195.5 472.014 1197.29 465.984 1200.04 460.659C1205.38 450.333 1214.41 442.726 1224.54 440.489C1226.55 440.044 1228.59 439.79 1230.67 439.79H1249.04H1273.54H1298.04H1322.54H1347.04H1362.82L1364.14 486.531C1364.47 498.101 1376.23 503.644 1383.12 495.478L1490.89 367.779L1381.72 240.919C1374.67 232.728 1362.82 238.674 1362.82 250.405Z" fill="#FEE142" stroke="url(#paint0_linear_193_1412)" stroke-width="2" mask="url(#path-2-inside-1_193_1412)"/>
</g>
<mask id="path-3-inside-2_193_1412" fill="white">
<path d="M1354.75 248.005V293.366H1338.94H1314.44H1289.94H1265.44H1240.94H1216.44H1208.59C1202.96 293.366 1197.41 293.803 1191.95 294.566C1183.54 295.74 1175.35 297.773 1167.45 300.625C1158.91 303.705 1150.72 307.73 1142.95 312.574C1134.21 318.014 1126 324.468 1118.44 331.864C1109.23 340.885 1101.01 351.269 1093.94 362.731C1082.16 381.865 1073.65 404.028 1069.44 428.062C1067.51 439.118 1066.48 450.566 1066.46 462.292C1066.44 476.32 1057.1 487.801 1045.31 487.801H1044.95H1020.45H995.948H971.448H946.948H922.447H897.947H873.446H848.946H824.445H799.945H775.445H752.174C751.761 487.801 751.355 487.835 750.944 487.837C742.568 487.928 734.377 488.944 726.444 490.821C717.952 492.83 709.759 495.816 701.943 499.674C693.266 503.956 685.065 509.319 677.443 515.613C668.377 523.1 660.151 531.912 652.942 541.811C642.352 556.355 633.972 573.233 628.442 591.735C623.543 608.125 620.854 625.766 620.854 644.158V696.207C620.854 708.392 613.592 718.555 603.941 720.9C602.566 721.234 601.143 721.412 599.686 721.412H579.443H554.943H530.442H505.942H481.441H456.941H432.44H407.94H383.439H358.939H334.455H327.056C321.264 721.412 315.565 721.873 309.954 722.674C301.541 723.877 293.348 725.922 285.454 728.795C276.914 731.904 268.727 735.961 260.953 740.834C252.214 746.311 243.999 752.814 236.453 760.256C227.223 769.358 219 779.843 211.952 791.411C199.935 811.14 191.413 834.069 187.452 858.933C185.815 869.209 184.924 879.8 184.924 890.642V966.688C184.924 980.608 175.447 991.893 163.756 991.893H162.951H138.457H113.959H89.4581H64.9576H40.4592H15.9588H-8.54169H-33.0421H-57.5426H-82.043H-106.543H-131.04V1135.92H-106.539H-82.039H-57.5386H-33.0381H-8.53766H15.9588H40.4592H64.9597H89.4601H113.961H138.461H162.961H163.766C171.844 1135.92 179.753 1135.07 187.462 1133.53C195.903 1131.85 204.096 1129.3 211.962 1125.92C220.544 1122.24 228.738 1117.59 236.463 1112.11C245.299 1105.83 253.502 1098.44 260.963 1090.1C270.434 1079.53 278.706 1067.45 285.464 1054.14C298.429 1028.62 305.896 998.693 305.896 966.688V890.642C305.896 885.1 307.416 879.992 309.962 875.832C313.811 869.543 320.028 865.438 327.064 865.438H334.463H358.963H383.464H407.964H432.464H456.965H481.465H505.966H530.466H554.967H579.467H599.71C601.137 865.438 602.548 865.359 603.966 865.311C612.33 865.018 620.523 863.914 628.466 861.969C636.937 859.898 645.118 856.89 652.966 853.109C661.587 848.956 669.784 843.834 677.467 837.84C686.382 830.886 694.595 822.772 701.967 813.677C711.747 801.61 720.027 787.827 726.468 772.731C736.276 749.744 741.84 723.757 741.84 696.207V671.293C741.84 660.765 745.323 651.223 750.966 644.146C757.006 636.573 765.522 631.825 774.985 631.825H775.465H799.965H824.466H848.966H873.466H897.967H922.467H946.968H971.468H995.969H1020.47H1044.97H1045.32C1053.55 631.825 1061.61 630.942 1069.47 629.331C1077.91 627.603 1086.1 624.993 1093.97 621.568C1102.55 617.833 1110.75 613.138 1118.47 607.593C1127.31 601.248 1135.52 593.809 1142.97 585.408C1152.47 574.69 1160.73 562.433 1167.47 548.971C1178.33 527.291 1185.25 502.509 1187.01 476.013C1187.43 469.613 1189.22 463.583 1191.97 458.259C1197.31 447.932 1206.34 440.325 1216.47 438.088C1218.48 437.644 1220.53 437.39 1222.6 437.39H1240.97H1265.47H1289.97H1314.47H1338.97H1354.75L1356.08 484.131C1356.41 495.701 1368.16 501.244 1375.06 493.077L1482.83 365.379L1373.66 238.518C1366.61 230.328 1354.75 236.274 1354.75 248.005Z"/>
</mask>
<path d="M1354.75 248.005V293.366H1338.94H1314.44H1289.94H1265.44H1240.94H1216.44H1208.59C1202.96 293.366 1197.41 293.803 1191.95 294.566C1183.54 295.74 1175.35 297.773 1167.45 300.625C1158.91 303.705 1150.72 307.73 1142.95 312.574C1134.21 318.014 1126 324.468 1118.44 331.864C1109.23 340.885 1101.01 351.269 1093.94 362.731C1082.16 381.865 1073.65 404.028 1069.44 428.062C1067.51 439.118 1066.48 450.566 1066.46 462.292C1066.44 476.32 1057.1 487.801 1045.31 487.801H1044.95H1020.45H995.948H971.448H946.948H922.447H897.947H873.446H848.946H824.445H799.945H775.445H752.174C751.761 487.801 751.355 487.835 750.944 487.837C742.568 487.928 734.377 488.944 726.444 490.821C717.952 492.83 709.759 495.816 701.943 499.674C693.266 503.956 685.065 509.319 677.443 515.613C668.377 523.1 660.151 531.912 652.942 541.811C642.352 556.355 633.972 573.233 628.442 591.735C623.543 608.125 620.854 625.766 620.854 644.158V696.207C620.854 708.392 613.592 718.555 603.941 720.9C602.566 721.234 601.143 721.412 599.686 721.412H579.443H554.943H530.442H505.942H481.441H456.941H432.44H407.94H383.439H358.939H334.455H327.056C321.264 721.412 315.565 721.873 309.954 722.674C301.541 723.877 293.348 725.922 285.454 728.795C276.914 731.904 268.727 735.961 260.953 740.834C252.214 746.311 243.999 752.814 236.453 760.256C227.223 769.358 219 779.843 211.952 791.411C199.935 811.14 191.413 834.069 187.452 858.933C185.815 869.209 184.924 879.8 184.924 890.642V966.688C184.924 980.608 175.447 991.893 163.756 991.893H162.951H138.457H113.959H89.4581H64.9576H40.4592H15.9588H-8.54169H-33.0421H-57.5426H-82.043H-106.543H-131.04V1135.92H-106.539H-82.039H-57.5386H-33.0381H-8.53766H15.9588H40.4592H64.9597H89.4601H113.961H138.461H162.961H163.766C171.844 1135.92 179.753 1135.07 187.462 1133.53C195.903 1131.85 204.096 1129.3 211.962 1125.92C220.544 1122.24 228.738 1117.59 236.463 1112.11C245.299 1105.83 253.502 1098.44 260.963 1090.1C270.434 1079.53 278.706 1067.45 285.464 1054.14C298.429 1028.62 305.896 998.693 305.896 966.688V890.642C305.896 885.1 307.416 879.992 309.962 875.832C313.811 869.543 320.028 865.438 327.064 865.438H334.463H358.963H383.464H407.964H432.464H456.965H481.465H505.966H530.466H554.967H579.467H599.71C601.137 865.438 602.548 865.359 603.966 865.311C612.33 865.018 620.523 863.914 628.466 861.969C636.937 859.898 645.118 856.89 652.966 853.109C661.587 848.956 669.784 843.834 677.467 837.84C686.382 830.886 694.595 822.772 701.967 813.677C711.747 801.61 720.027 787.827 726.468 772.731C736.276 749.744 741.84 723.757 741.84 696.207V671.293C741.84 660.765 745.323 651.223 750.966 644.146C757.006 636.573 765.522 631.825 774.985 631.825H775.465H799.965H824.466H848.966H873.466H897.967H922.467H946.968H971.468H995.969H1020.47H1044.97H1045.32C1053.55 631.825 1061.61 630.942 1069.47 629.331C1077.91 627.603 1086.1 624.993 1093.97 621.568C1102.55 617.833 1110.75 613.138 1118.47 607.593C1127.31 601.248 1135.52 593.809 1142.97 585.408C1152.47 574.69 1160.73 562.433 1167.47 548.971C1178.33 527.291 1185.25 502.509 1187.01 476.013C1187.43 469.613 1189.22 463.583 1191.97 458.259C1197.31 447.932 1206.34 440.325 1216.47 438.088C1218.48 437.644 1220.53 437.39 1222.6 437.39H1240.97H1265.47H1289.97H1314.47H1338.97H1354.75L1356.08 484.131C1356.41 495.701 1368.16 501.244 1375.06 493.077L1482.83 365.379L1373.66 238.518C1366.61 230.328 1354.75 236.274 1354.75 248.005Z" fill="url(#paint1_linear_193_1412)" stroke="url(#paint2_linear_193_1412)" stroke-width="2" mask="url(#path-3-inside-2_193_1412)"/>
</g>
<mask id="mask1_193_1412" style="mask-type:luminance" maskUnits="userSpaceOnUse" x="0" y="0" width="1512" height="1201">
<path d="M0.5 1200.23V1.01172H1511.5V1200.23H0.5Z" fill="white" stroke="white"/>
</mask>
<g mask="url(#mask1_193_1412)">
<path d="M1457.36 365.849L1457.64 365.523L1457.36 365.2L1380.56 275.952C1379.6 274.839 1378.41 274.316 1377.21 274.316C1374.68 274.316 1372.4 276.635 1372.4 279.931V314.468H1208.59C1141.35 314.468 1086.5 378.185 1084.19 457.374C1083.35 485.791 1063.64 508.903 1039.95 508.903H752.253C689.356 508.903 638.508 569.584 638.508 644.246V696.208C638.508 721.87 621.054 742.516 599.696 742.516H327.056C258.226 742.516 202.572 808.919 202.572 890.643V966.689C202.572 992.351 185.118 1013 163.76 1013H-112.896H-113.396V1013.5V1114.32V1114.82H-112.896H163.76C232.588 1114.82 288.244 1048.41 288.244 966.689V890.643C288.244 864.981 305.698 844.335 327.056 844.335H599.696C668.524 844.335 724.18 777.932 724.18 696.208V664.121C724.18 634.544 744.301 610.722 768.947 610.722H1045.3C1112.27 610.722 1166.95 547.516 1169.67 468.769C1170.68 439.814 1192.16 416.286 1216.33 416.286H1372.4V452.88C1372.4 456.18 1374.68 458.493 1377.21 458.493C1378.42 458.493 1379.63 457.957 1380.59 456.821L1380.2 456.498L1380.59 456.82L1457.36 365.849ZM1370.88 313.068H1371.38V312.568V279.931C1371.38 275.981 1374.07 272.918 1377.21 272.918C1378.68 272.918 1380.1 273.601 1381.21 274.886L1458.01 364.133L1459.2 365.512L1458.02 366.905L1381.25 457.875C1380.13 459.194 1378.7 459.894 1377.21 459.894C1374.07 459.894 1371.38 456.831 1371.38 452.88V418.187V417.687H1370.88H1216.33C1192.48 417.687 1171.65 441.172 1170.69 468.836C1169.35 507.421 1155.69 543.468 1132.22 570.348C1108.7 597.3 1077.82 612.122 1045.3 612.122H768.947C744.743 612.122 725.196 635.536 725.196 664.121V696.208C725.196 778.743 668.819 845.735 599.696 845.735H327.056C306.137 845.735 289.26 865.965 289.26 890.643V966.689C289.26 1049.22 232.883 1116.22 163.76 1116.22H-112.896H-114.412V1114.32V1013.5V1011.6H-112.896H163.76C184.68 1011.6 201.556 991.367 201.556 966.689V890.643C201.556 808.108 257.933 741.116 327.056 741.116H599.698C620.617 741.116 637.494 720.885 637.494 696.208V644.246C637.494 568.76 689.053 507.503 752.255 507.503H1039.95C1063.06 507.503 1082.36 484.905 1083.17 457.319C1084.3 418.528 1097.89 382.248 1121.39 355.155C1144.95 328 1175.92 313.068 1208.59 313.068H1370.88Z" fill="#FFEF9F" stroke="url(#paint3_linear_193_1412)"/>
</g>
<mask id="mask2_193_1412" style="mask-type:luminance" maskUnits="userSpaceOnUse" x="0" y="0" width="1512" height="1201">
<path d="M0.5 1200.23V1.01172H1511.5V1200.23H0.5Z" fill="white" stroke="white"/>
</mask>
<g mask="url(#mask2_193_1412)">
<path d="M-94.9498 1063.91H163.761C208.855 1063.91 245.409 1020.38 245.409 966.688V890.642C245.409 836.952 281.964 793.425 327.057 793.425H599.697C644.789 793.425 681.345 749.9 681.345 696.207V657.032C681.345 603.339 717.901 559.814 762.993 559.814H1045.3C1090.39 559.814 1126.94 516.29 1126.94 462.597C1126.94 408.904 1163.5 365.379 1208.59 365.379H1388.35" stroke="url(#paint4_linear_193_1412)" stroke-width="2" stroke-miterlimit="10" stroke-dasharray="11.9 11.9"/>
<path d="M1400.35 365.379H1412.44" stroke="url(#paint5_linear_193_1412)" stroke-width="2" stroke-miterlimit="10"/>
</g>
</g>
<defs>
<linearGradient id="paint0_linear_193_1412" x1="-206.76" y1="697.035" x2="1639.04" y2="697.035" gradientUnits="userSpaceOnUse">
<stop stop-color="#966602"/>
<stop offset="0.245" stop-color="#D3BD01"/>
<stop offset="0.397897" stop-color="#F9F400"/>
<stop offset="0.565" stop-color="#F9F400"/>
<stop offset="0.835" stop-color="#BC9C01"/>
<stop offset="1" stop-color="#966602"/>
</linearGradient>
<linearGradient id="paint1_linear_193_1412" x1="675.895" y1="234.725" x2="675.895" y2="1135.92" gradientUnits="userSpaceOnUse">
<stop stop-color="#493409"/>
<stop offset="1" stop-color="#312204"/>
</linearGradient>
<linearGradient id="paint2_linear_193_1412" x1="-214.824" y1="694.635" x2="1630.97" y2="694.635" gradientUnits="userSpaceOnUse">
<stop stop-color="#966602"/>
<stop offset="0.245" stop-color="#D3BD01"/>
<stop offset="0.397897" stop-color="#F9F400"/>
<stop offset="0.565" stop-color="#F9F400"/>
<stop offset="0.835" stop-color="#BC9C01"/>
<stop offset="1" stop-color="#966602"/>
</linearGradient>
<linearGradient id="paint3_linear_193_1412" x1="-196.666" y1="703.292" x2="1604.41" y2="703.292" gradientUnits="userSpaceOnUse">
<stop stop-color="#966602"/>
<stop offset="0.245" stop-color="#D3BD01"/>
<stop offset="0.397897" stop-color="#F9F400"/>
<stop offset="0.565" stop-color="#F9F400"/>
<stop offset="0.835" stop-color="#BC9C01"/>
<stop offset="1" stop-color="#966602"/>
</linearGradient>
<linearGradient id="paint4_linear_193_1412" x1="-171.956" y1="721.861" x2="1524.51" y2="721.861" gradientUnits="userSpaceOnUse">
<stop stop-color="#966602"/>
<stop offset="0.245" stop-color="#D3BD01"/>
<stop offset="0.397897" stop-color="#F9F400"/>
<stop offset="0.565" stop-color="#F9F400"/>
<stop offset="0.835" stop-color="#BC9C01"/>
<stop offset="1" stop-color="#966602"/>
</linearGradient>
<linearGradient id="paint5_linear_193_1412" x1="1399.72" y1="365.889" x2="1413.55" y2="365.889" gradientUnits="userSpaceOnUse">
<stop stop-color="#966602"/>
<stop offset="0.245" stop-color="#D3BD01"/>
<stop offset="0.397897" stop-color="#F9F400"/>
<stop offset="0.565" stop-color="#F9F400"/>
<stop offset="0.835" stop-color="#BC9C01"/>
<stop offset="1" stop-color="#966602"/>
</linearGradient>
</defs>
</svg>
